  0
SECTION
  2
HEADER
  9
$ACADVER
  1
AC1014
  9
$HANDSEED
  5
FFFF
  9
$MEASUREMENT
 70
     1
  0
ENDSEC
  0
SECTION
  2
TABLES
  0
TABLE
  2
VPORT
  5
8
330
0
100
AcDbSymbolTable
 70
     4
  0
VPORT
  5
2E
330
8
100
AcDbSymbolTableRecord
100
AcDbViewportTableRecord
  2
*ACTIVE
 70
     0
 10
0.0
 20
0.0
 11
1.0
 21
1.0
 12
210.0
 22
148.5
 13
0.0
 23
0.0
 14
10.0
 24
10.0
 15
10.0
 25
10.0
 16
0.0
 26
0.0
 36
1.0
 17
0.0
 27
0.0
 37
0.0
 40
341.0
 41
1.24
 42
50.0
 43
0.0
 44
0.0
 50
0.0
 51
0.0
 71
     0
 72
   100
 73
     1
 74
     3
 75
     0
 76
     0
 77
     0
 78
     0
  0
ENDTAB
  0
TABLE
  2
LTYPE
  5
5
330
0
100
AcDbSymbolTable
 70
     1
  0
LTYPE
  5
14
330
5
100
AcDbSymbolTableRecord
100
AcDbLinetypeTableRecord
  2
BYBLOCK
 70
     0
  3

 72
    65
 73
     0
 40
0.0
  0
LTYPE
  5
15
330
5
100
AcDbSymbolTableRecord
100
AcDbLinetypeTableRecord
  2
BYLAYER
 70
     0
  3

 72
    65
 73
     0
 40
0.0
  0
LTYPE
  5
16
330
5
100
AcDbSymbolTableRecord
100
AcDbLinetypeTableRecord
  2
CONTINUOUS
 70
     0
  3
Solid line
 72
    65
 73
     0
 40
0.0
  0
ENDTAB
  0
TABLE
  2
LAYER
  5
2
100
AcDbSymbolTable
 70
2
  0
LAYER
  5
50
100
AcDbSymbolTableRecord
100
AcDbLayerTableRecord
  2
0
 70
0
  6
CONTINUOUS
  0
LAYER
  5
51
100
AcDbSymbolTableRecord
100
AcDbLayerTableRecord
  2
Layer
 70
0
  6
CONTINUOUS
  0
ENDTAB
  0
TABLE
  2
STYLE
  5
3
330
0
100
AcDbSymbolTable
 70
     1
  0
STYLE
  5
11
330
3
100
AcDbSymbolTableRecord
100
AcDbTextStyleTableRecord
  2
STANDARD
 70
     0
 40
0.0
 41
1.0
 50
0.0
 71
     0
 42
2.5
  3
txt
  4

  0
ENDTAB
  0
TABLE
  2
VIEW
  5
6
330
0
100
AcDbSymbolTable
 70
     0
  0
ENDTAB
  0
TABLE
  2
UCS
  5
7
330
0
100
AcDbSymbolTable
 70
     0
  0
ENDTAB
  0
TABLE
  2
APPID
  5
9
330
0
100
AcDbSymbolTable
 70
     2
  0
APPID
  5
12
330
9
100
AcDbSymbolTableRecord
100
AcDbRegAppTableRecord
  2
ACAD
 70
     0
  0
ENDTAB
  0
TABLE
  2
DIMSTYLE
  5
A
330
0
100
AcDbSymbolTable
 70
     1
  0
DIMSTYLE
105
27
330
A
100
AcDbSymbolTableRecord
100
AcDbDimStyleTableRecord
  2
ISO-25
 70
     0
  3

  4

  5

  6

  7

 40
1.0
 41
2.5
 42
0.625
 43
3.75
 44
1.25
 45
0.0
 46
0.0
 47
0.0
 48
0.0
140
2.5
141
2.5
142
0.0
143
0.03937007874016
144
1.0
145
0.0
146
1.0
147
0.625
 71
     0
 72
     0
 73
     0
 74
     0
 75
     0
 76
     0
 77
     1
 78
     8
170
     0
171
     3
172
     1
173
     0
174
     0
175
     0
176
     0
177
     0
178
     0
270
     2
271
     2
272
     2
273
     2
274
     3
340
11
275
     0
280
     0
281
     0
282
     0
283
     0
284
     8
285
     0
286
     0
287
     3
288
     0
  0
ENDTAB
  0
TABLE
  2
BLOCK_RECORD
  5
1
330
0
100
AcDbSymbolTable
 70
     1
  0
BLOCK_RECORD
  5
1F
330
1
100
AcDbSymbolTableRecord
100
AcDbBlockTableRecord
  2
*MODEL_SPACE
  0
BLOCK_RECORD
  5
1B
330
1
100
AcDbSymbolTableRecord
100
AcDbBlockTableRecord
  2
*PAPER_SPACE
  0
ENDTAB
  0
ENDSEC
  0
SECTION
  2
BLOCKS
  0
BLOCK
  5
20
330
1F
100
AcDbEntity
  8
0
100
AcDbBlockBegin
  2
*MODEL_SPACE
 70
     0
 10
0.0
 20
0.0
 30
0.0
  3
*MODEL_SPACE
  1

  0
ENDBLK
  5
21
330
1F
100
AcDbEntity
  8
0
100
AcDbBlockEnd
  0
BLOCK
  5
1C
330
1B
100
AcDbEntity
 67
     1
  8
0
100
AcDbBlockBegin
  2
*PAPER_SPACE
  1

  0
ENDBLK
  5
1D
330
1B
100
AcDbEntity
 67
     1
  8
0
100
AcDbBlockEnd
  0
ENDSEC
  0
SECTION
  2
ENTITIES
  0
LWPOLYLINE
  5
100
100
AcDbEntity
  8
Layer
 62
7
100
AcDbPolyline
 90
19
 70
0
 10
45.032380
 20
38.253378
 30
0.0
 10
44.181341
 20
38.049582
 30
0.0
 10
43.667426
 20
38.227478
 30
0.0
 10
32.149412
 20
26.183707
 30
0.0
 10
32.274677
 20
25.406523
 30
0.0
 10
31.916858
 20
24.643338
 30
0.0
 10
30.973437
 20
24.228147
 30
0.0
 10
30.011762
 20
24.602839
 30
0.0
 10
29.596481
 20
25.546621
 30
0.0
 10
29.970422
 20
26.507803
 30
0.0
 10
30.755968
 20
26.935293
 30
0.0
 10
31.606326
 20
26.780997
 30
0.0
 10
43.110026
 20
38.787269
 30
0.0
 10
43.024168
 20
39.891246
 30
0.0
 10
43.732518
 20
40.662334
 30
0.0
 10
44.790140
 20
40.702333
 30
0.0
 10
45.547785
 20
39.988745
 30
0.0
 10
45.589596
 20
38.961115
 30
0.0
 10
45.032380
 20
38.253378
 30
0.0
  0
LWPOLYLINE
  5
101
100
AcDbEntity
  8
Layer
 62
7
100
AcDbPolyline
 90
13
 70
0
 10
39.977870
 20
10.316409
 30
0.0
 10
26.257086
 20
24.793534
 30
0.0
 10
12.536649
 20
10.316409
 30
0.0
 10
11.885027
 20
10.934306
 30
0.0
 10
25.638440
 20
25.446523
 30
0.0
 10
11.885303
 20
39.957946
 30
0.0
 10
12.537133
 20
40.575533
 30
0.0
 10
26.257086
 20
26.098911
 30
0.0
 10
39.977043
 20
40.575533
 30
0.0
 10
40.628940
 20
39.957946
 30
0.0
 10
26.875805
 20
25.446523
 30
0.0
 10
40.629769
 20
10.934306
 30
0.0
 10
39.977870
 20
10.316409
 30
0.0
  0
LWPOLYLINE
  5
102
100
AcDbEntity
  8
Layer
 62
7
100
AcDbPolyline
 90
21
 70
0
 10
8.978540
 20
10.697409
 30
0.0
 10
7.931324
 20
10.652394
 30
0.0
 10
7.161689
 20
11.358204
 30
0.0
 10
7.115835
 20
12.401072
 30
0.0
 10
7.646991
 20
13.068668
 30
0.0
 10
8.219077
 20
13.280166
 30
0.0
 10
8.839762
 20
13.218161
 30
0.0
 10
9.047431
 20
13.108744
 30
0.0
 10
20.423935
 20
25.004831
 30
0.0
 10
20.304936
 20
25.770517
 30
0.0
 10
20.665892
 20
26.482202
 30
0.0
 10
21.593611
 20
26.890394
 30
0.0
 10
22.538909
 20
26.522501
 30
0.0
 10
22.947495
 20
25.594520
 30
0.0
 10
22.579973
 20
24.649739
 30
0.0
 10
21.816367
 20
24.239845
 30
0.0
 10
20.988315
 20
24.397243
 30
0.0
 10
9.625013
 20
12.514073
 30
0.0
 10
9.752256
 20
12.085378
 30
0.0
 10
9.681774
 20
11.470641
 30
0.0
 10
8.978540
 20
10.697409
 30
0.0
  0
LWPOLYLINE
  5
103
100
AcDbEntity
  8
Layer
 62
7
100
AcDbPolyline
 90
21
 70
0
 10
44.805656
 20
42.457699
 30
0.0
 10
42.397432
 20
44.865952
 30
0.0
 10
10.052244
 20
44.865952
 30
0.0
 10
7.645400
 20
42.457699
 30
0.0
 10
7.645400
 20
13.913331
 30
0.0
 10
6.872426
 20
13.428953
 30
0.0
 10
6.361341
 20
12.637376
 30
0.0
 10
6.433372
 20
10.989396
 30
0.0
 10
7.649133
 20
9.874308
 30
0.0
 10
8.361522
 20
9.754109
 30
0.0
 10
10.967944
 20
6.245579
 30
0.0
 10
12.291445
 20
5.849988
 30
0.0
 10
42.397432
 20
5.849988
 30
0.0
 10
44.805656
 20
8.257936
 30
0.0
 10
44.805656
 20
37.366094
 30
0.0
 10
45.735330
 20
37.838486
 30
0.0
 10
46.344360
 20
38.724669
 30
0.0
 10
46.272354
 20
40.372339
 30
0.0
 10
45.056256
 20
41.487216
 30
0.0
 10
44.805656
 20
41.550416
 30
0.0
 10
44.805656
 20
42.457699
 30
0.0
  0
LWPOLYLINE
  5
104
100
AcDbEntity
  8
Layer
 62
7
100
AcDbPolyline
 90
20
 70
0
 10
39.868783
 20
1.014590
 30
0.0
 10
7.545637
 20
0.976575
 30
0.0
 10
5.822885
 20
1.274545
 30
0.0
 10
2.842802
 20
5.069531
 30
0.0
 10
2.036103
 20
7.216254
 30
0.0
 10
2.036103
 20
31.091515
 30
0.0
 10
2.772233
 20
31.581204
 30
0.0
 10
3.064417
 20
32.430690
 30
0.0
 10
2.656724
 20
33.417571
 30
0.0
 10
1.671012
 20
33.826463
 30
0.0
 10
0.684653
 20
33.417571
 30
0.0
 10
0.276521
 20
32.430690
 30
0.0
 10
0.567389
 20
31.583806
 30
0.0
 10
1.299976
 20
31.093414
 30
0.0
 10
1.299976
 20
7.089085
 30
0.0
 10
2.235122
 20
4.673517
 30
0.0
 10
5.470477
 20
0.592696
 30
0.0
 10
7.461792
 20
0.276410
 30
0.0
 10
39.875491
 20
0.276410
 30
0.0
 10
39.868783
 20
1.014590
 30
0.0
  0
LWPOLYLINE
  5
105
100
AcDbEntity
  8
Layer
 62
7
100
AcDbPolyline
 90
9
 70
0
 10
4.218032
 20
48.608255
 30
0.0
 10
5.239470
 20
48.609384
 30
0.0
 10
5.962984
 20
47.886726
 30
0.0
 10
5.964254
 20
46.867054
 30
0.0
 10
5.241485
 20
46.141980
 30
0.0
 10
4.219784
 20
46.141768
 30
0.0
 10
3.496831
 20
46.863300
 30
0.0
 10
3.495843
 20
47.884462
 30
0.0
 10
4.218032
 20
48.608255
 30
0.0
  0
LWPOLYLINE
  5
106
100
AcDbEntity
  8
Layer
 62
7
100
AcDbPolyline
 90
41
 70
0
 10
10.626450
 20
3.669229
 30
0.0
 10
8.885686
 20
3.949024
 30
0.0
 10
5.924998
 20
7.730435
 30
0.0
 10
5.085670
 20
9.910799
 30
0.0
 10
5.085670
 20
45.274643
 30
0.0
 10
6.060180
 20
45.721635
 30
0.0
 10
6.698890
 20
46.620818
 30
0.0
 10
6.802316
 20
47.029112
 30
0.0
 10
36.275597
 20
47.029112
 30
0.0
 10
37.673066
 20
47.409305
 30
0.0
 10
38.528001
 20
47.087509
 30
0.0
 10
39.460509
 20
47.473702
 30
0.0
 10
39.846385
 20
48.405786
 30
0.0
 10
39.460509
 20
49.337167
 30
0.0
 10
38.528001
 20
49.723360
 30
0.0
 10
37.594972
 20
49.337167
 30
0.0
 10
37.208579
 20
48.405786
 30
0.0
 10
37.266925
 20
48.039891
 30
0.0
 10
36.275597
 20
47.774698
 30
0.0
 10
6.774776
 20
47.774698
 30
0.0
 10
6.317867
 20
48.707278
 30
0.0
 10
5.438886
 20
49.319068
 30
0.0
 10
3.826239
 20
49.249069
 30
0.0
 10
2.737135
 20
48.059491
 30
0.0
 10
2.807409
 20
46.446721
 30
0.0
 10
3.997678
 20
45.356541
 30
0.0
 10
4.349005
 20
45.267545
 30
0.0
 10
4.349005
 20
9.780130
 30
0.0
 10
5.284152
 20
7.362558
 30
0.0
 10
8.519488
 20
3.283036
 30
0.0
 10
10.510787
 20
2.966750
 30
0.0
 10
45.256873
 20
2.956872
 30
0.0
 10
45.745789
 20
2.216180
 30
0.0
 10
46.599246
 20
1.921878
 30
0.0
 10
47.585252
 20
2.329689
 30
0.0
 10
47.992637
 20
3.314645
 30
0.0
 10
47.585252
 20
4.301830
 30
0.0
 10
46.599246
 20
4.711137
 30
0.0
 10
45.755312
 20
4.422536
 30
0.0
 10
45.264200
 20
3.700499
 30
0.0
 10
10.626450
 20
3.669229
 30
0.0
  0
ENDSEC
  0
SECTION
  2
OBJECTS
  0
DICTIONARY
  5
C
330
0
100
AcDbDictionary
  3
ACAD_GROUP
350
D
  3
ACAD_MLINESTYLE
350
17
  0
DICTIONARY
  5
D
330
C
100
AcDbDictionary
  0
DICTIONARY
  5
1A
330
C
100
AcDbDictionary
  0
DICTIONARY
  5
17
330
C
100
AcDbDictionary
  3
STANDARD
350
18
  0
DICTIONARY
  5
19
330
C
100
AcDbDictionary
  0
ENDSEC
  0
EOF
