  0
SECTION
  2
HEADER
  9
$ACADVER
  1
AC1014
  9
$HANDSEED
  5
FFFF
  9
$MEASUREMENT
 70
     1
  0
ENDSEC
  0
SECTION
  2
TABLES
  0
TABLE
  2
VPORT
  5
8
330
0
100
AcDbSymbolTable
 70
     4
  0
VPORT
  5
2E
330
8
100
AcDbSymbolTableRecord
100
AcDbViewportTableRecord
  2
*ACTIVE
 70
     0
 10
0.0
 20
0.0
 11
1.0
 21
1.0
 12
210.0
 22
148.5
 13
0.0
 23
0.0
 14
10.0
 24
10.0
 15
10.0
 25
10.0
 16
0.0
 26
0.0
 36
1.0
 17
0.0
 27
0.0
 37
0.0
 40
341.0
 41
1.24
 42
50.0
 43
0.0
 44
0.0
 50
0.0
 51
0.0
 71
     0
 72
   100
 73
     1
 74
     3
 75
     0
 76
     0
 77
     0
 78
     0
  0
ENDTAB
  0
TABLE
  2
LTYPE
  5
5
330
0
100
AcDbSymbolTable
 70
     1
  0
LTYPE
  5
14
330
5
100
AcDbSymbolTableRecord
100
AcDbLinetypeTableRecord
  2
BYBLOCK
 70
     0
  3

 72
    65
 73
     0
 40
0.0
  0
LTYPE
  5
15
330
5
100
AcDbSymbolTableRecord
100
AcDbLinetypeTableRecord
  2
BYLAYER
 70
     0
  3

 72
    65
 73
     0
 40
0.0
  0
LTYPE
  5
16
330
5
100
AcDbSymbolTableRecord
100
AcDbLinetypeTableRecord
  2
CONTINUOUS
 70
     0
  3
Solid line
 72
    65
 73
     0
 40
0.0
  0
ENDTAB
  0
TABLE
  2
LAYER
  5
2
100
AcDbSymbolTable
 70
1
  0
LAYER
  5
50
100
AcDbSymbolTableRecord
100
AcDbLayerTableRecord
  2
0
 70
0
  6
CONTINUOUS
  0
ENDTAB
  0
TABLE
  2
STYLE
  5
3
330
0
100
AcDbSymbolTable
 70
     1
  0
STYLE
  5
11
330
3
100
AcDbSymbolTableRecord
100
AcDbTextStyleTableRecord
  2
STANDARD
 70
     0
 40
0.0
 41
1.0
 50
0.0
 71
     0
 42
2.5
  3
txt
  4

  0
ENDTAB
  0
TABLE
  2
VIEW
  5
6
330
0
100
AcDbSymbolTable
 70
     0
  0
ENDTAB
  0
TABLE
  2
UCS
  5
7
330
0
100
AcDbSymbolTable
 70
     0
  0
ENDTAB
  0
TABLE
  2
APPID
  5
9
330
0
100
AcDbSymbolTable
 70
     2
  0
APPID
  5
12
330
9
100
AcDbSymbolTableRecord
100
AcDbRegAppTableRecord
  2
ACAD
 70
     0
  0
ENDTAB
  0
TABLE
  2
DIMSTYLE
  5
A
330
0
100
AcDbSymbolTable
 70
     1
  0
DIMSTYLE
105
27
330
A
100
AcDbSymbolTableRecord
100
AcDbDimStyleTableRecord
  2
ISO-25
 70
     0
  3

  4

  5

  6

  7

 40
1.0
 41
2.5
 42
0.625
 43
3.75
 44
1.25
 45
0.0
 46
0.0
 47
0.0
 48
0.0
140
2.5
141
2.5
142
0.0
143
0.03937007874016
144
1.0
145
0.0
146
1.0
147
0.625
 71
     0
 72
     0
 73
     0
 74
     0
 75
     0
 76
     0
 77
     1
 78
     8
170
     0
171
     3
172
     1
173
     0
174
     0
175
     0
176
     0
177
     0
178
     0
270
     2
271
     2
272
     2
273
     2
274
     3
340
11
275
     0
280
     0
281
     0
282
     0
283
     0
284
     8
285
     0
286
     0
287
     3
288
     0
  0
ENDTAB
  0
TABLE
  2
BLOCK_RECORD
  5
1
330
0
100
AcDbSymbolTable
 70
     1
  0
BLOCK_RECORD
  5
1F
330
1
100
AcDbSymbolTableRecord
100
AcDbBlockTableRecord
  2
*MODEL_SPACE
  0
BLOCK_RECORD
  5
1B
330
1
100
AcDbSymbolTableRecord
100
AcDbBlockTableRecord
  2
*PAPER_SPACE
  0
ENDTAB
  0
ENDSEC
  0
SECTION
  2
BLOCKS
  0
BLOCK
  5
20
330
1F
100
AcDbEntity
  8
0
100
AcDbBlockBegin
  2
*MODEL_SPACE
 70
     0
 10
0.0
 20
0.0
 30
0.0
  3
*MODEL_SPACE
  1

  0
ENDBLK
  5
21
330
1F
100
AcDbEntity
  8
0
100
AcDbBlockEnd
  0
BLOCK
  5
1C
330
1B
100
AcDbEntity
 67
     1
  8
0
100
AcDbBlockBegin
  2
*PAPER_SPACE
  1

  0
ENDBLK
  5
1D
330
1B
100
AcDbEntity
 67
     1
  8
0
100
AcDbBlockEnd
  0
ENDSEC
  0
SECTION
  2
ENTITIES
  0
LWPOLYLINE
  5
100
100
AcDbEntity
  8
0
 62
7
100
AcDbPolyline
 90
203
 70
0
 10
28.376598
 20
38.232276
 30
0.0
 10
27.603094
 20
38.295254
 30
0.0
 10
26.765545
 20
38.116940
 30
0.0
 10
26.465092
 20
37.957301
 30
0.0
 10
26.301770
 20
37.774870
 30
0.0
 10
26.528887
 20
37.504786
 30
0.0
 10
27.062508
 20
37.262134
 30
0.0
 10
27.925731
 20
36.809732
 30
0.0
 10
28.545226
 20
36.260291
 30
0.0
 10
28.954558
 20
35.688940
 30
0.0
 10
29.170274
 20
35.017790
 30
0.0
 10
29.086037
 20
34.405605
 30
0.0
 10
28.764653
 20
33.875471
 30
0.0
 10
28.307501
 20
33.545070
 30
0.0
 10
27.767521
 20
33.374249
 30
0.0
 10
27.005229
 20
33.364908
 30
0.0
 10
26.249075
 20
33.519791
 30
0.0
 10
25.088148
 20
33.890581
 30
0.0
 10
23.966883
 20
34.334068
 30
0.0
 10
22.171274
 20
35.068263
 30
0.0
 10
20.261164
 20
35.626832
 30
0.0
 10
19.065417
 20
35.757817
 30
0.0
 10
17.971970
 20
35.558161
 30
0.0
 10
17.137273
 20
34.948804
 30
0.0
 10
16.338063
 20
34.104759
 30
0.0
 10
15.778738
 20
33.498693
 30
0.0
 10
15.563361
 20
32.836038
 30
0.0
 10
15.666542
 20
32.541739
 30
0.0
 10
15.863062
 20
32.295864
 30
0.0
 10
16.567241
 20
32.092057
 30
0.0
 10
17.405216
 20
32.182123
 30
0.0
 10
18.789939
 20
32.125978
 30
0.0
 10
20.045134
 20
31.676753
 30
0.0
 10
20.977295
 20
31.049794
 30
0.0
 10
21.699541
 20
30.220035
 30
0.0
 10
22.127404
 20
29.127333
 30
0.0
 10
22.273549
 20
27.895870
 30
0.0
 10
22.165900
 20
26.220464
 30
0.0
 10
21.478499
 20
24.844791
 30
0.0
 10
20.484183
 20
24.249435
 30
0.0
 10
19.301485
 20
24.071728
 30
0.0
 10
17.586982
 20
24.596077
 30
0.0
 10
16.064660
 20
25.691012
 30
0.0
 10
14.077439
 20
27.265846
 30
0.0
 10
11.783367
 20
28.203484
 30
0.0
 10
10.417888
 20
28.198856
 30
0.0
 10
9.292373
 20
27.716205
 30
0.0
 10
8.654850
 20
26.197254
 30
0.0
 10
8.665148
 20
24.244629
 30
0.0
 10
8.685538
 20
23.170426
 30
0.0
 10
8.480919
 20
22.195441
 30
0.0
 10
8.057893
 20
21.509774
 30
0.0
 10
7.461586
 20
20.944322
 30
0.0
 10
6.515423
 20
20.449742
 30
0.0
 10
5.410774
 20
20.249418
 30
0.0
 10
4.641823
 20
20.201358
 30
0.0
 10
4.051140
 20
19.886477
 30
0.0
 10
3.939946
 20
19.665638
 30
0.0
 10
3.908833
 20
19.432573
 30
0.0
 10
4.266822
 20
18.996622
 30
0.0
 10
4.934524
 20
18.714837
 30
0.0
 10
5.692901
 20
18.376170
 30
0.0
 10
6.402756
 20
18.133126
 30
0.0
 10
7.045624
 20
18.096073
 30
0.0
 10
7.690582
 20
18.225517
 30
0.0
 10
8.344243
 20
18.561074
 30
0.0
 10
8.938552
 20
19.005879
 30
0.0
 10
10.042969
 20
19.846455
 30
0.0
 10
11.232849
 20
20.542827
 30
0.0
 10
12.288596
 20
20.901153
 30
0.0
 10
13.389055
 20
20.995387
 30
0.0
 10
14.396775
 20
20.791555
 30
0.0
 10
15.341468
 20
20.346434
 30
0.0
 10
16.631608
 20
19.227228
 30
0.0
 10
17.385944
 20
17.678523
 30
0.0
 10
17.446066
 20
16.243172
 30
0.0
 10
16.973996
 20
15.034910
 30
0.0
 10
15.870372
 20
14.327399
 30
0.0
 10
14.327232
 20
13.837687
 30
0.0
 10
13.825133
 20
13.632512
 30
0.0
 10
13.541817
 20
13.371710
 30
0.0
 10
13.785777
 20
12.904265
 30
0.0
 10
14.439171
 20
12.435353
 30
0.0
 10
15.422971
 20
11.937824
 30
0.0
 10
16.355705
 20
11.721020
 30
0.0
 10
16.803188
 20
11.693927
 30
0.0
 10
17.262933
 20
11.696749
 30
0.0
 10
17.947403
 20
11.738885
 30
0.0
 10
18.625325
 20
11.812009
 30
0.0
 10
19.412693
 20
11.919423
 30
0.0
 10
20.192163
 20
12.047467
 30
0.0
 10
22.674136
 20
12.475993
 30
0.0
 10
25.379223
 20
12.333358
 30
0.0
 10
26.711871
 20
11.868171
 30
0.0
 10
27.461860
 20
11.117065
 30
0.0
 10
26.961335
 20
9.930179
 30
0.0
 10
25.686676
 20
8.837189
 30
0.0
 10
25.251621
 20
8.563829
 30
0.0
 10
24.813685
 20
8.343103
 30
0.0
 10
24.251116
 20
8.126751
 30
0.0
 10
23.686870
 20
7.947935
 30
0.0
 10
22.881375
 20
7.722129
 30
0.0
 10
21.920774
 20
7.514272
 30
0.0
 10
21.455975
 20
7.408891
 30
0.0
 10
21.220397
 20
7.216161
 30
0.0
 10
21.304445
 20
7.017844
 30
0.0
 10
21.504554
 20
6.808632
 30
0.0
 10
22.153649
 20
6.420605
 30
0.0
 10
22.820357
 20
6.226634
 30
0.0
 10
24.344893
 20
5.787524
 30
0.0
 10
25.913143
 20
5.403674
 30
0.0
 10
27.341139
 20
5.268941
 30
0.0
 10
28.776108
 20
5.338875
 30
0.0
 10
30.133862
 20
5.581615
 30
0.0
 10
31.428128
 20
6.032606
 30
0.0
 10
31.963289
 20
6.305063
 30
0.0
 10
32.481785
 20
6.610089
 30
0.0
 10
33.199854
 20
7.073385
 30
0.0
 10
33.901258
 20
7.560218
 30
0.0
 10
34.647964
 20
8.107955
 30
0.0
 10
35.379239
 20
8.678439
 30
0.0
 10
36.933107
 20
9.951290
 30
0.0
 10
38.604878
 20
11.046171
 30
0.0
 10
39.873199
 20
11.540201
 30
0.0
 10
41.198839
 20
11.783674
 30
0.0
 10
43.072363
 20
11.710606
 30
0.0
 10
45.010072
 20
11.412467
 30
0.0
 10
45.632400
 20
11.351253
 30
0.0
 10
46.200398
 20
11.453784
 30
0.0
 10
46.619817
 20
11.779440
 30
0.0
 10
46.940783
 20
12.247591
 30
0.0
 10
47.311538
 20
13.177428
 30
0.0
 10
47.532433
 20
14.120050
 30
0.0
 10
47.697087
 20
14.973073
 30
0.0
 10
47.769904
 20
15.907321
 30
0.0
 10
47.714817
 20
16.502319
 30
0.0
 10
47.470675
 20
16.929017
 30
0.0
 10
47.307398
 20
17.001872
 30
0.0
 10
47.112267
 20
17.033538
 30
0.0
 10
47.000653
 20
17.368016
 30
0.0
 10
46.882436
 20
17.694293
 30
0.0
 10
46.529608
 20
17.372283
 30
0.0
 10
46.184105
 20
17.059954
 30
0.0
 10
45.947984
 20
17.083463
 30
0.0
 10
45.717807
 20
17.113920
 30
0.0
 10
45.492873
 20
17.149971
 30
0.0
 10
45.272491
 20
17.190256
 30
0.0
 10
45.055967
 20
17.233410
 30
0.0
 10
44.842604
 20
17.278069
 30
0.0
 10
43.714963
 20
17.571789
 30
0.0
 10
42.520339
 20
18.168681
 30
0.0
 10
42.001445
 20
18.566998
 30
0.0
 10
41.755697
 20
18.926656
 30
0.0
 10
42.293779
 20
19.190181
 30
0.0
 10
43.368803
 20
19.264177
 30
0.0
 10
44.670229
 20
19.386201
 30
0.0
 10
45.754385
 20
19.399155
 30
0.0
 10
45.926264
 20
19.376436
 30
0.0
 10
46.101987
 20
19.348355
 30
0.0
 10
46.281001
 20
19.317915
 30
0.0
 10
46.462755
 20
19.288112
 30
0.0
 10
46.646696
 20
19.261950
 30
0.0
 10
46.832271
 20
19.242449
 30
0.0
 10
46.896914
 20
18.853707
 30
0.0
 10
46.962096
 20
18.477612
 30
0.0
 10
47.339306
 20
18.884941
 30
0.0
 10
47.710126
 20
19.321468
 30
0.0
 10
47.946208
 20
19.408218
 30
0.0
 10
48.163211
 20
19.523957
 30
0.0
 10
48.919273
 20
20.454796
 30
0.0
 10
49.359114
 20
21.689487
 30
0.0
 10
50.012091
 20
23.700041
 30
0.0
 10
50.742711
 20
25.638273
 30
0.0
 10
51.114751
 20
26.642239
 30
0.0
 10
51.212583
 20
27.677800
 30
0.0
 10
51.050443
 20
28.232626
 30
0.0
 10
50.733883
 20
28.700542
 30
0.0
 10
49.945193
 20
29.146084
 30
0.0
 10
48.996461
 20
29.368898
 30
0.0
 10
46.871638
 20
29.949929
 30
0.0
 10
44.860726
 20
30.663454
 30
0.0
 10
42.910274
 20
31.366371
 30
0.0
 10
40.917892
 20
32.037349
 30
0.0
 10
39.882221
 20
32.388848
 30
0.0
 10
38.924656
 20
32.879037
 30
0.0
 10
38.750327
 20
33.004603
 30
0.0
 10
38.576058
 20
33.131019
 30
0.0
 10
38.326618
 20
33.292905
 30
0.0
 10
38.069105
 20
33.441777
 30
0.0
 10
37.791279
 20
33.592568
 30
0.0
 10
37.513544
 20
33.743343
 30
0.0
 10
37.174164
 20
33.939752
 30
0.0
 10
36.841960
 20
34.148247
 30
0.0
 10
36.430045
 20
34.430805
 30
0.0
 10
36.030834
 20
34.730895
 30
0.0
 10
35.641533
 20
35.046199
 30
0.0
 10
35.255767
 20
35.366117
 30
0.0
 10
34.204243
 20
36.181085
 30
0.0
 10
33.088337
 20
36.906642
 30
0.0
 10
31.948701
 20
37.475040
 30
0.0
 10
30.746984
 20
37.881987
 30
0.0
 10
29.571636
 20
38.102285
 30
0.0
 10
28.376600
 20
38.232440
 30
0.0
  0
LWPOLYLINE
  5
101
100
AcDbEntity
  8
0
 62
7
100
AcDbPolyline
 90
2
 70
0
 10
28.376598
 20
38.232275
 30
0.0
 10
28.376598
 20
38.232275
 30
0.0
  0
SPLINE
  5
102
100
AcDbEntity
  8
0
 62
7
100
AcDbSpline
 70
0
 71
3
 72
43
 73
39
 74
37
 40
0.000000
 40
0.000000
 40
0.000000
 40
0.000000
 40
0.096817
 40
0.189220
 40
0.276103
 40
0.380649
 40
0.492841
 40
0.608262
 40
0.777548
 40
0.942238
 40
1.112272
 40
1.323647
 40
1.528533
 40
1.717687
 40
1.863373
 40
2.017215
 40
2.170331
 40
2.395801
 40
2.627394
 40
2.869595
 40
3.001784
 40
3.128303
 40
3.249425
 40
3.332380
 40
3.417661
 40
3.502650
 40
3.639786
 40
3.779215
 40
3.920243
 40
3.999500
 40
4.077987
 40
4.156403
 40
4.222003
 40
4.287671
 40
4.353152
 40
4.406509
 40
4.459969
 40
4.513538
 40
4.513538
 40
4.513538
 40
4.513538
 10
38.448403
 20
30.621096
 30
0.0
 10
38.480503
 20
30.617692
 30
0.0
 10
38.543240
 20
30.611040
 30
0.0
 10
38.633670
 20
30.592709
 30
0.0
 10
38.721370
 20
30.552746
 30
0.0
 10
38.790222
 20
30.474951
 30
0.0
 10
38.838596
 20
30.374764
 30
0.0
 10
38.878422
 20
30.248359
 30
0.0
 10
38.909702
 20
30.101531
 30
0.0
 10
38.925444
 20
29.933938
 30
0.0
 10
38.926206
 20
29.751801
 30
0.0
 10
38.915462
 20
29.556411
 30
0.0
 10
38.872834
 20
29.357534
 30
0.0
 10
38.770486
 20
29.199928
 30
0.0
 10
38.621711
 20
29.123374
 30
0.0
 10
38.472040
 20
29.095989
 30
0.0
 10
38.292666
 20
29.106415
 30
0.0
 10
38.101987
 20
29.191965
 30
0.0
 10
37.928139
 20
29.349472
 30
0.0
 10
37.794440
 20
29.500759
 30
0.0
 10
37.681168
 20
29.623448
 30
0.0
 10
37.604849
 20
29.725133
 30
0.0
 10
37.563599
 20
29.830013
 30
0.0
 10
37.560731
 20
29.927506
 30
0.0
 10
37.576439
 20
30.010964
 30
0.0
 10
37.615125
 20
30.106701
 30
0.0
 10
37.691551
 20
30.202557
 30
0.0
 10
37.801643
 20
30.288470
 30
0.0
 10
37.902342
 20
30.353551
 30
0.0
 10
37.984664
 20
30.409608
 30
0.0
 10
38.049911
 20
30.453649
 30
0.0
 10
38.112535
 20
30.493424
 30
0.0
 10
38.173218
 20
30.528165
 30
0.0
 10
38.232001
 20
30.557353
 30
0.0
 10
38.289138
 20
30.580352
 30
0.0
 10
38.344153
 20
30.597006
 30
0.0
 10
38.396091
 20
30.609729
 30
0.0
 10
38.430954
 20
30.617304
 30
0.0
 10
38.448403
 20
30.621096
 30
0.0
 11
38.448403
 21
30.621096
 31
0.0
 11
38.544503
 21
30.609337
 31
0.0
 11
38.634595
 21
30.588799
 31
0.0
 11
38.712671
 21
30.550681
 31
0.0
 11
38.784397
 21
30.474621
 31
0.0
 11
38.835621
 21
30.374805
 31
0.0
 11
38.871579
 21
30.265129
 31
0.0
 11
38.906729
 21
30.099532
 31
0.0
 11
38.922859
 21
29.935633
 31
0.0
 11
38.924653
 21
29.765609
 31
0.0
 11
38.909752
 21
29.554761
 31
0.0
 11
38.859025
 21
29.356253
 31
0.0
 11
38.749975
 21
29.201698
 31
0.0
 11
38.622336
 21
29.131465
 31
0.0
 11
38.471319
 21
29.102120
 31
0.0
 11
38.318553
 21
29.112468
 31
0.0
 11
38.111006
 21
29.200565
 31
0.0
 11
37.933944
 21
29.349846
 31
0.0
 11
37.769306
 21
29.527484
 31
0.0
 11
37.681589
 21
29.626375
 31
0.0
 11
37.608687
 21
29.729780
 31
0.0
 11
37.567094
 21
29.843537
 31
0.0
 11
37.563697
 21
29.926422
 31
0.0
 11
37.579183
 21
30.010286
 31
0.0
 11
37.611344
 21
30.088954
 31
0.0
 11
37.694620
 21
30.197910
 31
0.0
 11
37.802352
 21
30.286421
 31
0.0
 11
37.919237
 21
30.365332
 31
0.0
 11
37.984906
 21
30.409707
 31
0.0
 11
38.050134
 21
30.453359
 31
0.0
 11
38.116482
 21
30.495157
 31
0.0
 11
38.173506
 21
30.527586
 31
0.0
 11
38.232416
 21
30.556601
 31
0.0
 11
38.293240
 21
30.580853
 31
0.0
 11
38.344241
 21
30.596534
 31
0.0
 11
38.396106
 21
30.609492
 31
0.0
 11
38.448403
 21
30.621096
 31
0.0
  0
LWPOLYLINE
  5
103
100
AcDbEntity
  8
0
 62
7
100
AcDbPolyline
 90
2
 70
0
 10
38.448403
 20
30.621094
 30
0.0
 10
38.448403
 20
30.621094
 30
0.0
  0
ENDSEC
  0
SECTION
  2
OBJECTS
  0
DICTIONARY
  5
C
330
0
100
AcDbDictionary
  3
ACAD_GROUP
350
D
  3
ACAD_MLINESTYLE
350
17
  0
DICTIONARY
  5
D
330
C
100
AcDbDictionary
  0
DICTIONARY
  5
1A
330
C
100
AcDbDictionary
  0
DICTIONARY
  5
17
330
C
100
AcDbDictionary
  3
STANDARD
350
18
  0
DICTIONARY
  5
19
330
C
100
AcDbDictionary
  0
ENDSEC
  0
EOF
