  0
SECTION
  2
HEADER
  9
$ACADVER
  1
AC1014
  9
$HANDSEED
  5
FFFF
  9
$MEASUREMENT
 70
     1
  0
ENDSEC
  0
SECTION
  2
TABLES
  0
TABLE
  2
VPORT
  5
8
330
0
100
AcDbSymbolTable
 70
     4
  0
VPORT
  5
2E
330
8
100
AcDbSymbolTableRecord
100
AcDbViewportTableRecord
  2
*ACTIVE
 70
     0
 10
0.0
 20
0.0
 11
1.0
 21
1.0
 12
210.0
 22
148.5
 13
0.0
 23
0.0
 14
10.0
 24
10.0
 15
10.0
 25
10.0
 16
0.0
 26
0.0
 36
1.0
 17
0.0
 27
0.0
 37
0.0
 40
341.0
 41
1.24
 42
50.0
 43
0.0
 44
0.0
 50
0.0
 51
0.0
 71
     0
 72
   100
 73
     1
 74
     3
 75
     0
 76
     0
 77
     0
 78
     0
  0
ENDTAB
  0
TABLE
  2
LTYPE
  5
5
330
0
100
AcDbSymbolTable
 70
     1
  0
LTYPE
  5
14
330
5
100
AcDbSymbolTableRecord
100
AcDbLinetypeTableRecord
  2
BYBLOCK
 70
     0
  3

 72
    65
 73
     0
 40
0.0
  0
LTYPE
  5
15
330
5
100
AcDbSymbolTableRecord
100
AcDbLinetypeTableRecord
  2
BYLAYER
 70
     0
  3

 72
    65
 73
     0
 40
0.0
  0
LTYPE
  5
16
330
5
100
AcDbSymbolTableRecord
100
AcDbLinetypeTableRecord
  2
CONTINUOUS
 70
     0
  3
Solid line
 72
    65
 73
     0
 40
0.0
  0
ENDTAB
  0
TABLE
  2
LAYER
  5
2
100
AcDbSymbolTable
 70
1
  0
LAYER
  5
50
100
AcDbSymbolTableRecord
100
AcDbLayerTableRecord
  2
0
 70
0
  6
CONTINUOUS
  0
ENDTAB
  0
TABLE
  2
STYLE
  5
3
330
0
100
AcDbSymbolTable
 70
     1
  0
STYLE
  5
11
330
3
100
AcDbSymbolTableRecord
100
AcDbTextStyleTableRecord
  2
STANDARD
 70
     0
 40
0.0
 41
1.0
 50
0.0
 71
     0
 42
2.5
  3
txt
  4

  0
ENDTAB
  0
TABLE
  2
VIEW
  5
6
330
0
100
AcDbSymbolTable
 70
     0
  0
ENDTAB
  0
TABLE
  2
UCS
  5
7
330
0
100
AcDbSymbolTable
 70
     0
  0
ENDTAB
  0
TABLE
  2
APPID
  5
9
330
0
100
AcDbSymbolTable
 70
     2
  0
APPID
  5
12
330
9
100
AcDbSymbolTableRecord
100
AcDbRegAppTableRecord
  2
ACAD
 70
     0
  0
ENDTAB
  0
TABLE
  2
DIMSTYLE
  5
A
330
0
100
AcDbSymbolTable
 70
     1
  0
DIMSTYLE
105
27
330
A
100
AcDbSymbolTableRecord
100
AcDbDimStyleTableRecord
  2
ISO-25
 70
     0
  3

  4

  5

  6

  7

 40
1.0
 41
2.5
 42
0.625
 43
3.75
 44
1.25
 45
0.0
 46
0.0
 47
0.0
 48
0.0
140
2.5
141
2.5
142
0.0
143
0.03937007874016
144
1.0
145
0.0
146
1.0
147
0.625
 71
     0
 72
     0
 73
     0
 74
     0
 75
     0
 76
     0
 77
     1
 78
     8
170
     0
171
     3
172
     1
173
     0
174
     0
175
     0
176
     0
177
     0
178
     0
270
     2
271
     2
272
     2
273
     2
274
     3
340
11
275
     0
280
     0
281
     0
282
     0
283
     0
284
     8
285
     0
286
     0
287
     3
288
     0
  0
ENDTAB
  0
TABLE
  2
BLOCK_RECORD
  5
1
330
0
100
AcDbSymbolTable
 70
     1
  0
BLOCK_RECORD
  5
1F
330
1
100
AcDbSymbolTableRecord
100
AcDbBlockTableRecord
  2
*MODEL_SPACE
  0
BLOCK_RECORD
  5
1B
330
1
100
AcDbSymbolTableRecord
100
AcDbBlockTableRecord
  2
*PAPER_SPACE
  0
ENDTAB
  0
ENDSEC
  0
SECTION
  2
BLOCKS
  0
BLOCK
  5
20
330
1F
100
AcDbEntity
  8
0
100
AcDbBlockBegin
  2
*MODEL_SPACE
 70
     0
 10
0.0
 20
0.0
 30
0.0
  3
*MODEL_SPACE
  1

  0
ENDBLK
  5
21
330
1F
100
AcDbEntity
  8
0
100
AcDbBlockEnd
  0
BLOCK
  5
1C
330
1B
100
AcDbEntity
 67
     1
  8
0
100
AcDbBlockBegin
  2
*PAPER_SPACE
  1

  0
ENDBLK
  5
1D
330
1B
100
AcDbEntity
 67
     1
  8
0
100
AcDbBlockEnd
  0
ENDSEC
  0
SECTION
  2
ENTITIES
  0
LWPOLYLINE
  5
100
100
AcDbEntity
  8
0
 62
7
100
AcDbPolyline
 90
22
 70
0
 10
15.920267
 20
17.578269
 30
0.0
 10
16.717093
 20
15.899289
 30
0.0
 10
16.119475
 20
14.960119
 30
0.0
 10
15.408028
 20
14.305648
 30
0.0
 10
14.753494
 20
14.021084
 30
0.0
 10
14.184333
 20
14.021084
 30
0.0
 10
13.615172
 20
14.390992
 30
0.0
 10
12.818344
 20
15.102458
 30
0.0
 10
11.907687
 20
15.614711
 30
0.0
 10
10.370954
 20
15.870839
 30
0.0
 10
9.118800
 20
15.813945
 30
0.0
 10
7.212113
 20
15.216247
 30
0.0
 10
9.103904
 20
16.386380
 30
0.0
 10
10.114829
 20
16.838429
 30
0.0
 10
11.224695
 20
17.208349
 30
0.0
 10
12.306105
 20
17.407581
 30
0.0
 10
13.216754
 20
17.891366
 30
0.0
 10
13.985123
 20
18.602755
 30
0.0
 10
14.525829
 20
19.257325
 30
0.0
 10
14.952695
 20
19.428109
 30
0.0
 10
15.436486
 20
19.456737
 30
0.0
 10
15.920267
 20
17.578269
 30
0.0
  0
LWPOLYLINE
  5
101
100
AcDbEntity
  8
0
 62
7
100
AcDbPolyline
 90
75
 70
0
 10
15.144787
 20
21.213768
 30
0.0
 10
14.668114
 20
21.605089
 30
0.0
 10
14.018583
 20
21.902390
 30
0.0
 10
13.287900
 20
22.074611
 30
0.0
 10
12.473282
 20
22.089935
 30
0.0
 10
11.651564
 20
21.960590
 30
0.0
 10
9.830248
 20
21.391461
 30
0.0
 10
8.350438
 20
20.537736
 30
0.0
 10
7.496696
 20
19.684033
 30
0.0
 10
6.642952
 20
18.773311
 30
0.0
 10
5.846126
 20
17.578133
 30
0.0
 10
4.650896
 20
16.667442
 30
0.0
 10
2.260420
 20
15.472169
 30
0.0
 10
-1.894456
 20
13.650864
 30
0.0
 10
-11.228684
 20
10.349768
 30
0.0
 10
-18.400107
 20
7.902336
 30
0.0
 10
-24.888536
 20
5.625763
 30
0.0
 10
-16.977207
 20
7.447084
 30
0.0
 10
-10.830274
 20
8.813039
 30
0.0
 10
-3.886513
 20
10.406692
 30
0.0
 10
1.235925
 20
11.601959
 30
0.0
 10
4.821639
 20
12.569474
 30
0.0
 10
6.415287
 20
12.911047
 30
0.0
 10
7.553609
 20
12.911047
 30
0.0
 10
8.167041
 20
12.788309
 30
0.0
 10
8.620785
 20
12.441401
 30
0.0
 10
9.033429
 20
11.829543
 30
0.0
 10
9.460295
 20
11.288834
 30
0.0
 10
10.154503
 20
10.948050
 30
0.0
 10
11.025488
 20
10.862029
 30
0.0
 10
11.850772
 20
10.876422
 30
0.0
 10
12.726323
 20
11.079651
 30
0.0
 10
13.686319
 20
11.644772
 30
0.0
 10
14.497371
 20
12.342002
 30
0.0
 10
15.749524
 20
13.537185
 30
0.0
 10
16.318675
 20
14.504784
 30
0.0
 10
15.066525
 20
13.594166
 30
0.0
 10
13.928210
 20
12.968056
 30
0.0
 10
13.131382
 20
12.854236
 30
0.0
 10
12.391477
 20
13.053485
 30
0.0
 10
11.879229
 20
13.451841
 30
0.0
 10
11.566191
 20
14.220220
 30
0.0
 10
11.139325
 20
14.846242
 30
0.0
 10
10.627077
 20
15.045474
 30
0.0
 10
9.830248
 20
15.045474
 30
0.0
 10
8.549638
 20
14.817794
 30
0.0
 10
5.248514
 20
13.878759
 30
0.0
 10
-0.215428
 20
12.427346
 30
0.0
 10
-6.476198
 20
10.662921
 30
0.0
 10
-13.903741
 20
8.699388
 30
0.0
 10
-3.971893
 20
11.915085
 30
0.0
 10
0.837514
 20
13.651062
 30
0.0
 10
4.110193
 20
14.960130
 30
0.0
 10
5.874581
 20
15.785384
 30
0.0
 10
6.756790
 20
16.553768
 30
0.0
 10
7.240571
 20
17.350575
 30
0.0
 10
7.525151
 20
18.118959
 30
0.0
 10
7.838189
 20
18.716536
 30
0.0
 10
8.094315
 20
18.858869
 30
0.0
 10
8.421637
 20
18.903040
 30
0.0
 10
8.720391
 20
18.830853
 30
0.0
 10
9.204179
 20
18.460840
 30
0.0
 10
9.687960
 20
18.204709
 30
0.0
 10
10.513249
 20
17.977125
 30
0.0
 10
11.295844
 20
17.948245
 30
0.0
 10
11.942589
 20
18.079292
 30
0.0
 10
12.704516
 20
18.389345
 30
0.0
 10
13.387505
 20
19.015395
 30
0.0
 10
13.956666
 20
19.684152
 30
0.0
 10
14.300225
 20
20.019655
 30
0.0
 10
14.710806
 20
20.239114
 30
0.0
 10
15.052299
 20
20.395614
 30
0.0
 10
15.271916
 20
20.653850
 30
0.0
 10
15.294172
 20
20.936313
 30
0.0
 10
15.144787
 20
21.213768
 30
0.0
  0
LWPOLYLINE
  5
102
100
AcDbEntity
  8
0
 62
7
100
AcDbPolyline
 90
14
 70
0
 10
59.675643
 20
41.242012
 30
0.0
 10
63.096529
 20
40.155358
 30
0.0
 10
65.531396
 20
39.109036
 30
0.0
 10
67.711842
 20
37.872234
 30
0.0
 10
68.891912
 20
36.996098
 30
0.0
 10
66.839383
 20
37.861377
 30
0.0
 10
64.657763
 20
38.637045
 30
0.0
 10
62.754439
 20
39.109036
 30
0.0
 10
60.681794
 20
39.330343
 30
0.0
 10
59.192693
 20
39.350692
 30
0.0
 10
58.568884
 20
40.316580
 30
0.0
 10
57.602995
 20
41.262363
 30
0.0
 10
56.616970
 20
41.886080
 30
0.0
 10
59.675643
 20
41.242012
 30
0.0
  0
LWPOLYLINE
  5
103
100
AcDbEntity
  8
0
 62
7
100
AcDbPolyline
 90
98
 70
0
 10
10.198653
 20
5.543269
 30
0.0
 10
12.688770
 20
6.751434
 30
0.0
 10
14.434275
 20
7.819476
 30
0.0
 10
16.210266
 20
9.246674
 30
0.0
 10
17.457881
 20
10.655273
 30
0.0
 10
18.785990
 20
13.029778
 30
0.0
 10
19.470170
 20
15.484767
 30
0.0
 10
17.900587
 20
17.416567
 30
0.0
 10
16.813948
 20
19.630050
 30
0.0
 10
16.250510
 20
21.924054
 30
0.0
 10
15.002892
 20
22.648510
 30
0.0
 10
13.318295
 20
23.062767
 30
0.0
 10
10.969618
 20
23.281432
 30
0.0
 10
8.120877
 20
23.211786
 30
0.0
 10
4.162988
 20
22.745498
 30
0.0
 10
1.118121
 20
22.004388
 30
0.0
 10
-0.692935
 20
21.440917
 30
0.0
 10
-1.739321
 20
21.843457
 30
0.0
 10
-3.469888
 20
22.688605
 30
0.0
 10
-4.757750
 20
23.694733
 30
0.0
 10
-5.804146
 20
25.063090
 30
0.0
 10
-5.954890
 20
25.745695
 30
0.0
 10
-5.763892
 20
26.350915
 30
0.0
 10
-4.154068
 20
27.155799
 30
0.0
 10
0.514439
 20
29.127866
 30
0.0
 10
3.049919
 20
30.174259
 30
0.0
 10
3.090173
 20
31.904891
 30
0.0
 10
6.114664
 20
33.033751
 30
0.0
 10
9.085434
 20
33.902840
 30
0.0
 10
12.225600
 20
34.513933
 30
0.0
 10
15.602201
 20
34.698476
 30
0.0
 10
18.906740
 20
34.561050
 30
0.0
 10
21.321486
 20
34.239111
 30
0.0
 10
23.897208
 20
33.474393
 30
0.0
 10
27.023752
 20
35.206967
 30
0.0
 10
31.745470
 20
37.531530
 30
0.0
 10
36.386711
 20
39.436490
 30
0.0
 10
40.818760
 20
40.939439
 30
0.0
 10
45.468918
 20
42.006473
 30
0.0
 10
48.868336
 20
42.310325
 30
0.0
 10
51.123441
 20
42.348541
 30
0.0
 10
49.680715
 20
41.773025
 30
0.0
 10
48.326359
 20
40.939944
 30
0.0
 10
47.320214
 20
39.792988
 30
0.0
 10
46.636045
 20
38.384394
 30
0.0
 10
46.515302
 20
36.915427
 30
0.0
 10
46.676287
 20
35.567133
 30
0.0
 10
47.239724
 20
34.279280
 30
0.0
 10
48.084884
 20
33.313388
 30
0.0
 10
49.332504
 20
32.387742
 30
0.0
 10
50.902085
 20
31.703621
 30
0.0
 10
52.914378
 20
31.421850
 30
0.0
 10
54.846166
 20
31.582855
 30
0.0
 10
56.375500
 20
32.065800
 30
0.0
 10
57.824353
 20
33.031714
 30
0.0
 10
58.991483
 20
34.239040
 30
0.0
 10
59.595162
 20
35.486700
 30
0.0
 10
59.756147
 20
36.452617
 30
0.0
 10
70.018806
 20
36.794661
 30
0.0
 10
71.447527
 20
36.875332
 30
0.0
 10
72.743876
 20
36.982605
 30
0.0
 10
74.888536
 20
37.418672
 30
0.0
 10
72.312812
 20
36.493022
 30
0.0
 10
70.582245
 20
35.688065
 30
0.0
 10
69.817575
 20
35.003925
 30
0.0
 10
69.334628
 20
34.118537
 30
0.0
 10
68.127256
 20
31.864722
 30
0.0
 10
66.557675
 20
29.449975
 30
0.0
 10
63.941698
 20
26.149838
 30
0.0
 10
60.440327
 20
22.849680
 30
0.0
 10
56.750334
 20
20.139405
 30
0.0
 10
52.189956
 20
17.738506
 30
0.0
 10
47.320214
 20
16.088404
 30
0.0
 10
41.766307
 20
14.720063
 30
0.0
 10
37.593030
 20
14.178168
 30
0.0
 10
33.845297
 20
13.834676
 30
0.0
 10
30.532832
 20
13.726500
 30
0.0
 10
27.093643
 20
13.796971
 30
0.0
 10
24.943596
 20
14.076286
 30
0.0
 10
21.562961
 20
14.760365
 30
0.0
 10
23.095083
 20
14.093332
 30
0.0
 10
25.018718
 20
13.458728
 30
0.0
 10
27.700596
 20
13.052553
 30
0.0
 10
31.550458
 20
12.894932
 30
0.0
 10
34.039127
 20
12.989618
 30
0.0
 10
34.964782
 20
13.070305
 30
0.0
 10
33.837908
 20
11.581188
 30
0.0
 10
31.543893
 20
9.287201
 30
0.0
 10
28.887680
 20
7.073619
 30
0.0
 10
25.829006
 20
5.182081
 30
0.0
 10
21.844680
 20
3.089375
 30
0.0
 10
17.860352
 20
1.600258
 30
0.0
 10
14.776075
 20
0.703045
 30
0.0
 10
11.903984
 20
0.151414
 30
0.0
 10
9.931942
 20
0.111479
 30
0.0
 10
8.040398
 20
4.297060
 30
0.0
 10
8.241614
 20
5.021186
 30
0.0
 10
10.198653
 20
5.543269
 30
0.0
  0
SPLINE
  5
104
100
AcDbEntity
  8
0
 62
7
100
AcDbSpline
 70
8
 71
3
 72
8
 73
4
 74
0
 40
0
 40
0
 40
0
 40
0
 40
1
 40
1
 40
1
 40
1
 10
0.997384
 20
28.041367
 30
0.0
 10
0.997384
 20
28.041367
 30
0.0
 10
-1.940551
 20
26.954795
 30
0.0
 10
-2.141782
 20
26.954795
 30
0.0
  0
SPLINE
  5
105
100
AcDbEntity
  8
0
 62
7
100
AcDbSpline
 70
8
 71
3
 72
8
 73
4
 74
0
 40
0
 40
0
 40
0
 40
0
 40
1
 40
1
 40
1
 40
1
 10
-2.141782
 20
26.954795
 30
0.0
 10
-2.343012
 20
26.954795
 30
0.0
 10
-5.321196
 20
25.707132
 30
0.0
 10
-5.321196
 20
25.707132
 30
0.0
  0
LWPOLYLINE
  5
106
100
AcDbEntity
  8
0
 62
7
100
AcDbPolyline
 90
41
 70
0
 10
-0.411216
 20
28.323152
 30
0.0
 10
4.539012
 20
30.415957
 30
0.0
 10
9.811200
 20
32.025727
 30
0.0
 10
14.036993
 20
32.951379
 30
0.0
 10
17.900587
 20
33.353893
 30
0.0
 10
20.878772
 20
33.353893
 30
0.0
 10
24.098432
 20
33.152623
 30
0.0
 10
26.794889
 20
32.790445
 30
0.0
 10
28.847429
 20
32.186735
 30
0.0
 10
30.215778
 20
31.381848
 30
0.0
 10
30.854831
 20
30.617130
 30
0.0
 10
31.070285
 20
29.918729
 30
0.0
 10
31.020690
 20
29.289040
 30
0.0
 10
30.658483
 20
28.484157
 30
0.0
 10
29.974306
 20
27.558505
 30
0.0
 10
28.807176
 20
26.471850
 30
0.0
 10
27.197350
 20
25.344931
 30
0.0
 10
25.265552
 20
24.218108
 30
0.0
 10
23.072162
 20
23.211955
 30
0.0
 10
20.727851
 20
22.457355
 30
0.0
 10
19.158388
 20
22.127767
 30
0.0
 10
17.756084
 20
22.044557
 30
0.0
 10
16.914571
 20
22.125230
 30
0.0
 10
19.389682
 20
22.608174
 30
0.0
 10
21.683685
 20
23.372816
 30
0.0
 10
24.058188
 20
24.539974
 30
0.0
 10
26.191207
 20
25.666797
 30
0.0
 10
27.801032
 20
26.793694
 30
0.0
 10
28.948036
 20
27.840109
 30
0.0
 10
29.451111
 20
28.483987
 30
0.0
 10
29.491361
 20
29.007196
 30
0.0
 10
29.209644
 20
29.490141
 30
0.0
 10
28.042516
 20
30.134090
 30
0.0
 10
25.748508
 20
30.657296
 30
0.0
 10
23.052052
 20
31.019478
 30
0.0
 10
18.383548
 20
31.301178
 30
0.0
 10
13.755284
 20
31.100004
 30
0.0
 10
11.058827
 20
30.778068
 30
0.0
 10
7.919656
 20
30.174355
 30
0.0
 10
4.659754
 20
29.248702
 30
0.0
 10
0.997384
 20
28.041367
 30
0.0
  0
LWPOLYLINE
  5
107
100
AcDbEntity
  8
0
 62
7
100
AcDbPolyline
 90
2
 70
0
 10
-5.321196
 20
25.707132
 30
0.0
 10
-0.411216
 20
28.323152
 30
0.0
  0
LWPOLYLINE
  5
108
100
AcDbEntity
  8
0
 62
7
100
AcDbPolyline
 90
15
 70
0
 10
33.274452
 20
32.951379
 30
0.0
 10
35.930673
 20
34.480716
 30
0.0
 10
39.432049
 20
36.050340
 30
0.0
 10
42.571213
 20
37.217402
 30
0.0
 10
46.003887
 20
38.117073
 30
0.0
 10
45.834571
 20
37.048918
 30
0.0
 10
45.905990
 20
35.836921
 30
0.0
 10
46.122573
 20
35.027530
 30
0.0
 10
44.807511
 20
34.917980
 30
0.0
 10
42.933403
 20
34.641743
 30
0.0
 10
39.794231
 20
33.917268
 30
0.0
 10
36.413595
 20
32.991618
 30
0.0
 10
33.797621
 20
32.186735
 30
0.0
 10
31.141416
 20
31.261082
 30
0.0
 10
33.274452
 20
32.951379
 30
0.0
  0
ENDSEC
  0
SECTION
  2
OBJECTS
  0
DICTIONARY
  5
C
330
0
100
AcDbDictionary
  3
ACAD_GROUP
350
D
  3
ACAD_MLINESTYLE
350
17
  0
DICTIONARY
  5
D
330
C
100
AcDbDictionary
  0
DICTIONARY
  5
1A
330
C
100
AcDbDictionary
  0
DICTIONARY
  5
17
330
C
100
AcDbDictionary
  3
STANDARD
350
18
  0
DICTIONARY
  5
19
330
C
100
AcDbDictionary
  0
ENDSEC
  0
EOF
