  0
SECTION
  2
HEADER
  9
$ACADVER
  1
AC1014
  9
$HANDSEED
  5
FFFF
  9
$MEASUREMENT
 70
     1
  0
ENDSEC
  0
SECTION
  2
TABLES
  0
TABLE
  2
VPORT
  5
8
330
0
100
AcDbSymbolTable
 70
     4
  0
VPORT
  5
2E
330
8
100
AcDbSymbolTableRecord
100
AcDbViewportTableRecord
  2
*ACTIVE
 70
     0
 10
0.0
 20
0.0
 11
1.0
 21
1.0
 12
210.0
 22
148.5
 13
0.0
 23
0.0
 14
10.0
 24
10.0
 15
10.0
 25
10.0
 16
0.0
 26
0.0
 36
1.0
 17
0.0
 27
0.0
 37
0.0
 40
341.0
 41
1.24
 42
50.0
 43
0.0
 44
0.0
 50
0.0
 51
0.0
 71
     0
 72
   100
 73
     1
 74
     3
 75
     0
 76
     0
 77
     0
 78
     0
  0
ENDTAB
  0
TABLE
  2
LTYPE
  5
5
330
0
100
AcDbSymbolTable
 70
     1
  0
LTYPE
  5
14
330
5
100
AcDbSymbolTableRecord
100
AcDbLinetypeTableRecord
  2
BYBLOCK
 70
     0
  3

 72
    65
 73
     0
 40
0.0
  0
LTYPE
  5
15
330
5
100
AcDbSymbolTableRecord
100
AcDbLinetypeTableRecord
  2
BYLAYER
 70
     0
  3

 72
    65
 73
     0
 40
0.0
  0
LTYPE
  5
16
330
5
100
AcDbSymbolTableRecord
100
AcDbLinetypeTableRecord
  2
CONTINUOUS
 70
     0
  3
Solid line
 72
    65
 73
     0
 40
0.0
  0
ENDTAB
  0
TABLE
  2
LAYER
  5
2
100
AcDbSymbolTable
 70
1
  0
LAYER
  5
50
100
AcDbSymbolTableRecord
100
AcDbLayerTableRecord
  2
0
 70
0
  6
CONTINUOUS
  0
ENDTAB
  0
TABLE
  2
STYLE
  5
3
330
0
100
AcDbSymbolTable
 70
     1
  0
STYLE
  5
11
330
3
100
AcDbSymbolTableRecord
100
AcDbTextStyleTableRecord
  2
STANDARD
 70
     0
 40
0.0
 41
1.0
 50
0.0
 71
     0
 42
2.5
  3
txt
  4

  0
ENDTAB
  0
TABLE
  2
VIEW
  5
6
330
0
100
AcDbSymbolTable
 70
     0
  0
ENDTAB
  0
TABLE
  2
UCS
  5
7
330
0
100
AcDbSymbolTable
 70
     0
  0
ENDTAB
  0
TABLE
  2
APPID
  5
9
330
0
100
AcDbSymbolTable
 70
     2
  0
APPID
  5
12
330
9
100
AcDbSymbolTableRecord
100
AcDbRegAppTableRecord
  2
ACAD
 70
     0
  0
ENDTAB
  0
TABLE
  2
DIMSTYLE
  5
A
330
0
100
AcDbSymbolTable
 70
     1
  0
DIMSTYLE
105
27
330
A
100
AcDbSymbolTableRecord
100
AcDbDimStyleTableRecord
  2
ISO-25
 70
     0
  3

  4

  5

  6

  7

 40
1.0
 41
2.5
 42
0.625
 43
3.75
 44
1.25
 45
0.0
 46
0.0
 47
0.0
 48
0.0
140
2.5
141
2.5
142
0.0
143
0.03937007874016
144
1.0
145
0.0
146
1.0
147
0.625
 71
     0
 72
     0
 73
     0
 74
     0
 75
     0
 76
     0
 77
     1
 78
     8
170
     0
171
     3
172
     1
173
     0
174
     0
175
     0
176
     0
177
     0
178
     0
270
     2
271
     2
272
     2
273
     2
274
     3
340
11
275
     0
280
     0
281
     0
282
     0
283
     0
284
     8
285
     0
286
     0
287
     3
288
     0
  0
ENDTAB
  0
TABLE
  2
BLOCK_RECORD
  5
1
330
0
100
AcDbSymbolTable
 70
     1
  0
BLOCK_RECORD
  5
1F
330
1
100
AcDbSymbolTableRecord
100
AcDbBlockTableRecord
  2
*MODEL_SPACE
  0
BLOCK_RECORD
  5
1B
330
1
100
AcDbSymbolTableRecord
100
AcDbBlockTableRecord
  2
*PAPER_SPACE
  0
ENDTAB
  0
ENDSEC
  0
SECTION
  2
BLOCKS
  0
BLOCK
  5
20
330
1F
100
AcDbEntity
  8
0
100
AcDbBlockBegin
  2
*MODEL_SPACE
 70
     0
 10
0.0
 20
0.0
 30
0.0
  3
*MODEL_SPACE
  1

  0
ENDBLK
  5
21
330
1F
100
AcDbEntity
  8
0
100
AcDbBlockEnd
  0
BLOCK
  5
1C
330
1B
100
AcDbEntity
 67
     1
  8
0
100
AcDbBlockBegin
  2
*PAPER_SPACE
  1

  0
ENDBLK
  5
1D
330
1B
100
AcDbEntity
 67
     1
  8
0
100
AcDbBlockEnd
  0
ENDSEC
  0
SECTION
  2
ENTITIES
  0
LWPOLYLINE
  5
100
100
AcDbEntity
  8
0
 62
7
100
AcDbPolyline
 90
30
 70
0
 10
48.383994
 20
18.393146
 30
0.0
 10
48.258219
 20
14.416082
 30
0.0
 10
47.541880
 20
10.414396
 30
0.0
 10
46.858338
 20
6.531752
 30
0.0
 10
47.075691
 20
5.122137
 30
0.0
 10
47.416096
 20
3.757677
 30
0.0
 10
48.002582
 20
2.499954
 30
0.0
 10
48.958159
 20
1.410463
 30
0.0
 10
48.712078
 20
0.167077
 30
0.0
 10
48.345702
 20
0.141112
 30
0.0
 10
46.940363
 20
1.232014
 30
0.0
 10
46.027165
 20
2.663445
 30
0.0
 10
45.540495
 20
4.332903
 30
0.0
 10
45.414720
 20
6.137770
 30
0.0
 10
45.717525
 20
9.251726
 30
0.0
 10
46.426343
 20
12.205604
 30
0.0
 10
47.044929
 20
15.167741
 30
0.0
 10
47.077029
 20
18.306292
 30
0.0
 10
46.683371
 20
19.137815
 30
0.0
 10
45.334058
 20
17.601061
 30
0.0
 10
44.124214
 20
15.871403
 30
0.0
 10
43.275287
 20
13.936614
 30
0.0
 10
43.008705
 20
11.784331
 30
0.0
 10
41.827529
 20
11.565496
 30
0.0
 10
41.796081
 20
14.429995
 30
0.0
 10
43.052433
 20
16.917177
 30
0.0
 10
44.669693
 20
19.322289
 30
0.0
 10
45.720985
 20
21.940558
 30
0.0
 10
47.295824
 20
22.202009
 30
0.0
 10
48.383980
 20
18.393180
 30
0.0
  0
LWPOLYLINE
  5
101
100
AcDbEntity
  8
0
 62
7
100
AcDbPolyline
 90
30
 70
0
 10
55.938392
 20
19.821281
 30
0.0
 10
57.288074
 20
20.106452
 30
0.0
 10
58.333457
 20
19.973097
 30
0.0
 10
58.932281
 20
18.744118
 30
0.0
 10
57.522807
 20
18.261952
 30
0.0
 10
55.990329
 20
18.136773
 30
0.0
 10
54.441463
 20
18.282456
 30
0.0
 10
52.982839
 20
18.612805
 30
0.0
 10
52.841325
 20
18.005500
 30
0.0
 10
52.982839
 20
15.986465
 30
0.0
 10
52.645189
 20
14.085825
 30
0.0
 10
51.987619
 20
12.304185
 30
0.0
 10
50.952736
 20
10.711322
 30
0.0
 10
49.483143
 20
9.376976
 30
0.0
 10
48.298334
 20
8.764187
 30
0.0
 10
48.557454
 20
10.205637
 30
0.0
 10
49.129134
 20
10.606674
 30
0.0
 10
49.952461
 20
11.321854
 30
0.0
 10
50.703418
 20
12.300346
 30
0.0
 10
51.057979
 20
13.491550
 30
0.0
 10
51.431173
 20
16.161623
 30
0.0
 10
51.090774
 20
18.733193
 30
0.0
 10
50.110579
 20
21.124236
 30
0.0
 10
48.564399
 20
23.252651
 30
0.0
 10
50.139236
 20
24.697113
 30
0.0
 10
50.869198
 20
23.225214
 30
0.0
 10
51.754097
 20
21.742283
 30
0.0
 10
52.903399
 20
20.511213
 30
0.0
 10
54.426618
 20
19.794837
 30
0.0
 10
55.938392
 20
19.821281
 30
0.0
  0
LWPOLYLINE
  5
102
100
AcDbEntity
  8
0
 62
7
100
AcDbPolyline
 90
15
 70
0
 10
51.031789
 20
28.175056
 30
0.0
 10
50.118574
 20
26.242948
 30
0.0
 10
48.778837
 20
24.565256
 30
0.0
 10
46.946958
 20
23.293822
 30
0.0
 10
45.920285
 20
22.877979
 30
0.0
 10
44.770593
 20
22.593459
 30
0.0
 10
43.637307
 20
22.604410
 30
0.0
 10
42.659839
 20
23.074987
 30
0.0
 10
42.659839
 20
23.512739
 30
0.0
 10
45.532726
 20
24.170692
 30
0.0
 10
47.761728
 20
26.018663
 30
0.0
 10
49.506804
 20
28.473957
 30
0.0
 10
50.927900
 20
30.953869
 30
0.0
 10
51.584101
 20
30.209757
 30
0.0
 10
51.031789
 20
28.175047
 30
0.0
  0
LWPOLYLINE
  5
103
100
AcDbEntity
  8
0
 62
7
100
AcDbPolyline
 90
19
 70
0
 10
49.826209
 20
30.634820
 30
0.0
 10
48.487855
 20
28.548837
 30
0.0
 10
46.739356
 20
26.758314
 30
0.0
 10
44.670938
 20
25.353483
 30
0.0
 10
43.216356
 20
24.962946
 30
0.0
 10
41.696177
 20
24.625773
 30
0.0
 10
40.241624
 20
24.707163
 30
0.0
 10
38.983934
 20
25.572306
 30
0.0
 10
39.871190
 20
26.019584
 30
0.0
 10
40.930666
 20
26.163206
 30
0.0
 10
42.022948
 20
26.274024
 30
0.0
 10
43.008621
 20
26.622882
 30
0.0
 10
45.196912
 20
27.593455
 30
0.0
 10
47.141638
 20
29.079778
 30
0.0
 10
48.802510
 20
30.913435
 30
0.0
 10
50.139236
 20
32.926010
 30
0.0
 10
50.403283
 20
33.087176
 30
0.0
 10
50.664217
 20
32.926010
 30
0.0
 10
49.826209
 20
30.634820
 30
0.0
  0
LWPOLYLINE
  5
104
100
AcDbEntity
  8
0
 62
7
100
AcDbPolyline
 90
140
 70
0
 10
45.716616
 20
32.026652
 30
0.0
 10
42.866293
 20
30.808567
 30
0.0
 10
39.868334
 20
30.320918
 30
0.0
 10
36.796531
 20
30.912501
 30
0.0
 10
36.184070
 20
32.181897
 30
0.0
 10
30.916005
 20
32.138031
 30
0.0
 10
25.602761
 20
32.258162
 30
0.0
 10
20.330545
 20
32.230561
 30
0.0
 10
15.185557
 20
31.743519
 30
0.0
 10
14.507766
 20
31.401700
 30
0.0
 10
14.223282
 20
30.386792
 30
0.0
 10
14.256501
 20
28.075121
 30
0.0
 10
14.277851
 20
27.018015
 30
0.0
 10
14.003676
 20
26.327968
 30
0.0
 10
12.867553
 20
26.272754
 30
0.0
 10
12.766509
 20
27.147420
 30
0.0
 10
12.702156
 20
28.635832
 30
0.0
 10
12.796892
 20
30.343454
 30
0.0
 10
13.173111
 20
31.875743
 30
0.0
 10
15.064695
 20
33.040268
 30
0.0
 10
18.490639
 20
33.446366
 30
0.0
 10
22.194550
 20
33.446357
 30
0.0
 10
24.920037
 20
33.392591
 30
0.0
 10
28.353351
 20
33.462086
 30
0.0
 10
31.900961
 20
33.504724
 30
0.0
 10
35.397533
 20
33.473143
 30
0.0
 10
38.677751
 20
33.319910
 30
0.0
 10
37.679780
 20
34.009334
 30
0.0
 10
36.501375
 20
34.370457
 30
0.0
 10
29.133035
 20
34.550851
 30
0.0
 10
19.249115
 20
34.646440
 30
0.0
 10
15.688147
 20
34.757522
 30
0.0
 10
13.840005
 20
34.616832
 30
0.0
 10
12.255501
 20
34.033989
 30
0.0
 10
10.877418
 20
33.097093
 30
0.0
 10
9.648535
 20
31.894234
 30
0.0
 10
7.409493
 20
29.043027
 30
0.0
 10
5.080630
 20
26.185141
 30
0.0
 10
3.505790
 20
26.185141
 30
0.0
 10
5.118708
 20
28.443133
 30
0.0
 10
6.837191
 20
30.743840
 30
0.0
 10
8.705434
 20
32.975650
 30
0.0
 10
10.767630
 20
35.026960
 30
0.0
 10
12.342469
 20
35.727207
 30
0.0
 10
16.905065
 20
35.973982
 30
0.0
 10
24.818037
 20
35.914955
 30
0.0
 10
32.322403
 20
35.740169
 30
0.0
 10
35.659187
 20
35.639673
 30
0.0
 10
38.590169
 20
34.895664
 30
0.0
 10
37.998905
 20
35.737581
 30
0.0
 10
35.002986
 20
36.777677
 30
0.0
 10
29.315294
 20
36.884355
 30
0.0
 10
23.623523
 20
36.941804
 30
0.0
 10
17.956352
 20
37.048518
 30
0.0
 10
12.342469
 20
37.302958
 30
0.0
 10
10.990436
 20
38.071020
 30
0.0
 10
4.336848
 20
46.232432
 30
0.0
 10
6.042907
 20
46.144904
 30
0.0
 10
10.655927
 20
40.171589
 30
0.0
 10
12.561067
 20
38.484938
 30
0.0
 10
15.114296
 20
38.249359
 30
0.0
 10
20.651500
 20
38.163013
 30
0.0
 10
27.392883
 20
38.161038
 30
0.0
 10
33.558641
 20
38.178592
 30
0.0
 10
34.608725
 20
38.049859
 30
0.0
 10
38.589963
 20
36.602736
 30
0.0
 10
38.669239
 20
36.857137
 30
0.0
 10
38.152462
 20
37.521909
 30
0.0
 10
35.239796
 20
39.144051
 30
0.0
 10
31.767089
 20
39.724760
 30
0.0
 10
28.446840
 20
39.729445
 30
0.0
 10
19.421355
 20
39.445222
 30
0.0
 10
16.230846
 20
39.783892
 30
0.0
 10
14.753977
 20
40.219188
 30
0.0
 10
13.392123
 20
40.892362
 30
0.0
 10
12.932946
 20
41.722928
 30
0.0
 10
13.086048
 20
46.363846
 30
0.0
 10
14.223541
 20
46.363897
 30
0.0
 10
14.488244
 20
42.258309
 30
0.0
 10
15.492357
 20
41.330224
 30
0.0
 10
21.381648
 20
40.953370
 30
0.0
 10
27.402207
 20
41.105885
 30
0.0
 10
33.209512
 20
40.757781
 30
0.0
 10
35.925537
 20
40.074120
 30
0.0
 10
38.459052
 20
38.879059
 30
0.0
 10
39.688708
 20
37.551562
 30
0.0
 10
40.750222
 20
36.137874
 30
0.0
 10
41.639496
 20
34.650317
 30
0.0
 10
42.352414
 20
33.101205
 30
0.0
 10
42.352414
 20
34.064145
 30
0.0
 10
41.459051
 20
35.999687
 30
0.0
 10
40.290888
 20
37.828515
 30
0.0
 10
38.950468
 20
39.591684
 30
0.0
 10
37.540311
 20
41.330224
 30
0.0
 10
37.947716
 20
41.601744
 30
0.0
 10
39.202631
 20
40.980096
 30
0.0
 10
40.634638
 20
39.160169
 30
0.0
 10
41.964105
 20
37.286874
 30
0.0
 10
43.072118
 20
35.323287
 30
0.0
 10
43.839771
 20
33.232501
 30
0.0
 10
44.282625
 20
32.893961
 30
0.0
 10
44.758412
 20
33.320035
 30
0.0
 10
44.045480
 20
35.555108
 30
0.0
 10
42.992142
 20
37.642477
 30
0.0
 10
41.750166
 20
39.647784
 30
0.0
 10
40.471288
 20
41.636680
 30
0.0
 10
41.380012
 20
41.689273
 30
0.0
 10
42.571114
 20
40.805039
 30
0.0
 10
43.530805
 20
39.223785
 30
0.0
 10
44.441274
 20
37.609705
 30
0.0
 10
45.204081
 20
35.929978
 30
0.0
 10
45.720787
 20
34.151780
 30
0.0
 10
46.683168
 20
34.677066
 30
0.0
 10
46.416595
 20
36.082553
 30
0.0
 10
46.026953
 20
37.418263
 30
0.0
 10
45.538881
 20
38.696518
 30
0.0
 10
44.977005
 20
39.929628
 30
0.0
 10
45.414509
 20
40.454914
 30
0.0
 10
46.505450
 20
39.504260
 30
0.0
 10
47.120632
 20
38.266326
 30
0.0
 10
47.506122
 20
36.897074
 30
0.0
 10
47.907987
 20
35.552474
 30
0.0
 10
49.101409
 20
36.740464
 30
0.0
 10
49.614046
 20
36.384118
 30
0.0
 10
49.226315
 20
34.859317
 30
0.0
 10
49.920327
 20
34.501902
 30
0.0
 10
48.953807
 20
32.285978
 30
0.0
 10
47.240867
 20
30.431149
 30
0.0
 10
45.085003
 20
29.035918
 30
0.0
 10
42.789706
 20
28.198774
 30
0.0
 10
40.214166
 20
27.804887
 30
0.0
 10
38.969439
 20
27.964905
 30
0.0
 10
37.933870
 20
28.592660
 30
0.0
 10
38.192225
 20
28.936689
 30
0.0
 10
39.508704
 20
29.336773
 30
0.0
 10
42.084272
 20
29.654795
 30
0.0
 10
44.495791
 20
30.436528
 30
0.0
 10
46.644837
 20
31.718909
 30
0.0
 10
48.389230
 20
33.582625
 30
0.0
 10
45.716611
 20
32.026684
 30
0.0
  0
LWPOLYLINE
  5
105
100
AcDbEntity
  8
0
 62
7
100
AcDbPolyline
 90
47
 70
0
 10
22.132173
 20
47.601913
 30
0.0
 10
23.247493
 20
44.675045
 30
0.0
 10
23.372878
 20
42.223432
 30
0.0
 10
21.836647
 20
42.144599
 30
0.0
 10
21.456476
 20
43.897105
 30
0.0
 10
20.522535
 20
46.231998
 30
0.0
 10
16.826613
 20
47.031378
 30
0.0
 10
10.210324
 20
47.274936
 30
0.0
 10
2.560235
 20
47.106621
 30
0.0
 10
-4.237100
 20
46.670376
 30
0.0
 10
-6.092003
 20
45.420499
 30
0.0
 10
-6.944908
 20
42.705292
 30
0.0
 10
-7.188207
 20
39.397814
 30
0.0
 10
-7.211922
 20
34.164491
 30
0.0
 10
-6.703069
 20
29.532426
 30
0.0
 10
-6.030741
 20
27.148272
 30
0.0
 10
-4.848942
 20
25.703805
 30
0.0
 10
-2.957447
 20
25.198935
 30
0.0
 10
12.563544
 20
25.189593
 30
0.0
 10
19.829748
 20
25.546404
 30
0.0
 10
20.614151
 20
26.111884
 30
0.0
 10
21.164975
 20
27.460856
 30
0.0
 10
21.631204
 20
30.108981
 30
0.0
 10
21.912754
 20
30.646877
 30
0.0
 10
22.976495
 20
30.705977
 30
0.0
 10
23.204084
 20
30.374086
 30
0.0
 10
23.262908
 20
29.085685
 30
0.0
 10
22.316800
 20
24.521966
 30
0.0
 10
21.704460
 20
23.802700
 30
0.0
 10
20.581628
 20
23.503282
 30
0.0
 10
17.898463
 20
23.471509
 30
0.0
 10
-6.468182
 20
23.646569
 30
0.0
 10
-7.227861
 20
24.137466
 30
0.0
 10
-7.803987
 20
25.409013
 30
0.0
 10
-8.514561
 20
29.372302
 30
0.0
 10
-8.817871
 20
33.692943
 30
0.0
 10
-8.931888
 20
36.527437
 30
0.0
 10
-8.926089
 20
39.318778
 30
0.0
 10
-8.626261
 20
43.210978
 30
0.0
 10
-7.933125
 20
46.688678
 30
0.0
 10
-6.747400
 20
48.236512
 30
0.0
 10
-4.565667
 20
48.366094
 30
0.0
 10
-0.821093
 20
48.576130
 30
0.0
 10
7.618060
 20
48.858871
 30
0.0
 10
14.727147
 20
48.713933
 30
0.0
 10
21.553426
 20
48.035525
 30
0.0
 10
22.132173
 20
47.601941
 30
0.0
  0
ENDSEC
  0
SECTION
  2
OBJECTS
  0
DICTIONARY
  5
C
330
0
100
AcDbDictionary
  3
ACAD_GROUP
350
D
  3
ACAD_MLINESTYLE
350
17
  0
DICTIONARY
  5
D
330
C
100
AcDbDictionary
  0
DICTIONARY
  5
1A
330
C
100
AcDbDictionary
  0
DICTIONARY
  5
17
330
C
100
AcDbDictionary
  3
STANDARD
350
18
  0
DICTIONARY
  5
19
330
C
100
AcDbDictionary
  0
ENDSEC
  0
EOF
