  0
SECTION
  2
HEADER
  9
$ACADVER
  1
AC1014
  9
$HANDSEED
  5
FFFF
  9
$MEASUREMENT
 70
     1
  0
ENDSEC
  0
SECTION
  2
TABLES
  0
TABLE
  2
VPORT
  5
8
330
0
100
AcDbSymbolTable
 70
     4
  0
VPORT
  5
2E
330
8
100
AcDbSymbolTableRecord
100
AcDbViewportTableRecord
  2
*ACTIVE
 70
     0
 10
0.0
 20
0.0
 11
1.0
 21
1.0
 12
210.0
 22
148.5
 13
0.0
 23
0.0
 14
10.0
 24
10.0
 15
10.0
 25
10.0
 16
0.0
 26
0.0
 36
1.0
 17
0.0
 27
0.0
 37
0.0
 40
341.0
 41
1.24
 42
50.0
 43
0.0
 44
0.0
 50
0.0
 51
0.0
 71
     0
 72
   100
 73
     1
 74
     3
 75
     0
 76
     0
 77
     0
 78
     0
  0
ENDTAB
  0
TABLE
  2
LTYPE
  5
5
330
0
100
AcDbSymbolTable
 70
     1
  0
LTYPE
  5
14
330
5
100
AcDbSymbolTableRecord
100
AcDbLinetypeTableRecord
  2
BYBLOCK
 70
     0
  3

 72
    65
 73
     0
 40
0.0
  0
LTYPE
  5
15
330
5
100
AcDbSymbolTableRecord
100
AcDbLinetypeTableRecord
  2
BYLAYER
 70
     0
  3

 72
    65
 73
     0
 40
0.0
  0
LTYPE
  5
16
330
5
100
AcDbSymbolTableRecord
100
AcDbLinetypeTableRecord
  2
CONTINUOUS
 70
     0
  3
Solid line
 72
    65
 73
     0
 40
0.0
  0
ENDTAB
  0
TABLE
  2
LAYER
  5
2
100
AcDbSymbolTable
 70
1
  0
LAYER
  5
50
100
AcDbSymbolTableRecord
100
AcDbLayerTableRecord
  2
0
 70
0
  6
CONTINUOUS
  0
ENDTAB
  0
TABLE
  2
STYLE
  5
3
330
0
100
AcDbSymbolTable
 70
     1
  0
STYLE
  5
11
330
3
100
AcDbSymbolTableRecord
100
AcDbTextStyleTableRecord
  2
STANDARD
 70
     0
 40
0.0
 41
1.0
 50
0.0
 71
     0
 42
2.5
  3
txt
  4

  0
ENDTAB
  0
TABLE
  2
VIEW
  5
6
330
0
100
AcDbSymbolTable
 70
     0
  0
ENDTAB
  0
TABLE
  2
UCS
  5
7
330
0
100
AcDbSymbolTable
 70
     0
  0
ENDTAB
  0
TABLE
  2
APPID
  5
9
330
0
100
AcDbSymbolTable
 70
     2
  0
APPID
  5
12
330
9
100
AcDbSymbolTableRecord
100
AcDbRegAppTableRecord
  2
ACAD
 70
     0
  0
ENDTAB
  0
TABLE
  2
DIMSTYLE
  5
A
330
0
100
AcDbSymbolTable
 70
     1
  0
DIMSTYLE
105
27
330
A
100
AcDbSymbolTableRecord
100
AcDbDimStyleTableRecord
  2
ISO-25
 70
     0
  3

  4

  5

  6

  7

 40
1.0
 41
2.5
 42
0.625
 43
3.75
 44
1.25
 45
0.0
 46
0.0
 47
0.0
 48
0.0
140
2.5
141
2.5
142
0.0
143
0.03937007874016
144
1.0
145
0.0
146
1.0
147
0.625
 71
     0
 72
     0
 73
     0
 74
     0
 75
     0
 76
     0
 77
     1
 78
     8
170
     0
171
     3
172
     1
173
     0
174
     0
175
     0
176
     0
177
     0
178
     0
270
     2
271
     2
272
     2
273
     2
274
     3
340
11
275
     0
280
     0
281
     0
282
     0
283
     0
284
     8
285
     0
286
     0
287
     3
288
     0
  0
ENDTAB
  0
TABLE
  2
BLOCK_RECORD
  5
1
330
0
100
AcDbSymbolTable
 70
     1
  0
BLOCK_RECORD
  5
1F
330
1
100
AcDbSymbolTableRecord
100
AcDbBlockTableRecord
  2
*MODEL_SPACE
  0
BLOCK_RECORD
  5
1B
330
1
100
AcDbSymbolTableRecord
100
AcDbBlockTableRecord
  2
*PAPER_SPACE
  0
ENDTAB
  0
ENDSEC
  0
SECTION
  2
BLOCKS
  0
BLOCK
  5
20
330
1F
100
AcDbEntity
  8
0
100
AcDbBlockBegin
  2
*MODEL_SPACE
 70
     0
 10
0.0
 20
0.0
 30
0.0
  3
*MODEL_SPACE
  1

  0
ENDBLK
  5
21
330
1F
100
AcDbEntity
  8
0
100
AcDbBlockEnd
  0
BLOCK
  5
1C
330
1B
100
AcDbEntity
 67
     1
  8
0
100
AcDbBlockBegin
  2
*PAPER_SPACE
  1

  0
ENDBLK
  5
1D
330
1B
100
AcDbEntity
 67
     1
  8
0
100
AcDbBlockEnd
  0
ENDSEC
  0
SECTION
  2
ENTITIES
  0
LWPOLYLINE
  5
100
100
AcDbEntity
  8
0
 62
1
100
AcDbPolyline
 90
9
 70
0
 10
1.927604
 20
28.344072
 30
0.0
 10
0.312179
 20
26.492206
 30
0.0
 10
-1.666683
 20
26.311677
 30
0.0
 10
-2.849789
 20
27.908236
 30
0.0
 10
-2.544096
 20
30.346503
 30
0.0
 10
-0.928670
 20
32.198287
 30
0.0
 10
1.050190
 20
32.378833
 30
0.0
 10
2.233299
 20
30.782353
 30
0.0
 10
1.927604
 20
28.344072
 30
0.0
  0
LWPOLYLINE
  5
101
100
AcDbEntity
  8
0
 62
1
100
AcDbPolyline
 90
86
 70
0
 10
-11.690363
 20
19.319923
 30
0.0
 10
-11.319656
 20
23.968473
 30
0.0
 10
-10.255414
 20
27.790939
 30
0.0
 10
-8.569427
 20
30.892829
 30
0.0
 10
-6.333499
 20
33.379636
 30
0.0
 10
-3.619427
 20
35.356902
 30
0.0
 10
-0.499008
 20
36.929994
 30
0.0
 10
2.955951
 20
38.204476
 30
0.0
 10
6.673662
 20
39.285793
 30
0.0
 10
8.614226
 20
40.135370
 30
0.0
 10
11.415784
 20
42.629765
 30
0.0
 10
14.404055
 20
44.546187
 30
0.0
 10
17.965861
 20
44.926623
 30
0.0
 10
21.695820
 20
44.187147
 30
0.0
 10
25.188443
 20
42.743780
 30
0.0
 10
33.458915
 20
37.822528
 30
0.0
 10
35.899900
 20
35.365024
 30
0.0
 10
37.636329
 20
32.601354
 30
0.0
 10
39.613651
 20
29.860830
 30
0.0
 10
42.007302
 20
28.020653
 30
0.0
 10
61.200383
 20
14.641872
 30
0.0
 10
61.953338
 20
13.764822
 30
0.0
 10
62.142618
 20
12.159042
 30
0.0
 10
32.434160
 20
25.029843
 30
0.0
 10
30.376690
 20
25.690785
 30
0.0
 10
28.298194
 20
25.771150
 30
0.0
 10
26.509218
 20
24.986076
 30
0.0
 10
25.320358
 20
23.051112
 30
0.0
 10
25.043951
 20
20.821187
 30
0.0
 10
25.619823
 20
19.266541
 30
0.0
 10
26.799728
 20
18.275619
 30
0.0
 10
28.335492
 20
17.737020
 30
0.0
 10
62.142624
 20
10.500713
 30
0.0
 10
62.142624
 20
6.957774
 30
0.0
 10
61.549494
 20
5.646448
 30
0.0
 10
60.295858
 20
5.073376
 30
0.0
 10
-6.640014
 20
5.525725
 30
0.0
 10
-8.907565
 20
6.005384
 30
0.0
 10
-10.590846
 20
7.214653
 30
0.0
 10
-11.674362
 20
8.809002
 30
0.0
 10
-12.142623
 20
10.444164
 30
0.0
 10
-9.941898
 20
9.505685
 30
0.0
 10
-7.440908
 20
9.200399
 30
0.0
 10
25.725713
 20
8.798080
 30
0.0
 10
36.677843
 20
8.561601
 30
0.0
 10
48.292808
 20
8.041180
 30
0.0
 10
61.260087
 20
7.284105
 30
0.0
 10
61.260087
 20
7.710574
 30
0.0
 10
47.443585
 20
8.742513
 30
0.0
 10
35.704932
 20
9.452108
 30
0.0
 10
25.663370
 20
9.774462
 30
0.0
 10
-7.440908
 20
9.774462
 30
0.0
 10
-9.832256
 20
9.982059
 30
0.0
 10
-12.142623
 20
10.952853
 30
0.0
 10
-12.142623
 20
14.797281
 30
0.0
 10
-10.453109
 20
13.698847
 30
0.0
 10
-8.125084
 20
13.119602
 30
0.0
 10
-3.750317
 20
12.855180
 30
0.0
 10
6.956049
 20
12.855180
 30
0.0
 10
12.841890
 20
13.461280
 30
0.0
 10
16.524524
 20
15.324303
 30
0.0
 10
18.883373
 20
18.511077
 30
0.0
 10
20.797649
 20
23.088868
 30
0.0
 10
21.852944
 20
25.651745
 30
0.0
 10
22.792441
 20
27.370890
 30
0.0
 10
24.546133
 20
29.095878
 30
0.0
 10
27.252284
 20
29.909050
 30
0.0
 10
31.049110
 20
28.892971
 30
0.0
 10
61.233437
 20
13.360476
 30
0.0
 10
61.233437
 20
13.866769
 30
0.0
 10
36.502021
 20
28.444594
 30
0.0
 10
32.197779
 20
30.996371
 30
0.0
 10
28.089532
 20
32.964896
 30
0.0
 10
24.226260
 20
33.572250
 30
0.0
 10
20.656885
 20
32.040596
 30
0.0
 10
18.344625
 20
28.733615
 30
0.0
 10
16.419295
 20
24.278116
 30
0.0
 10
15.719036
 20
22.523487
 30
0.0
 10
14.160340
 20
19.930739
 30
0.0
 10
11.365306
 20
17.581787
 30
0.0
 10
6.956049
 20
16.558539
 30
0.0
 10
-3.750317
 20
16.558539
 30
0.0
 10
-8.561693
 20
16.869249
 30
0.0
 10
-10.765239
 20
17.684787
 30
0.0
 10
-11.690361
 20
19.319923
 30
0.0
 10
-11.690363
 20
19.319923
 30
0.0
  0
ENDSEC
  0
SECTION
  2
OBJECTS
  0
DICTIONARY
  5
C
330
0
100
AcDbDictionary
  3
ACAD_GROUP
350
D
  3
ACAD_MLINESTYLE
350
17
  0
DICTIONARY
  5
D
330
C
100
AcDbDictionary
  0
DICTIONARY
  5
1A
330
C
100
AcDbDictionary
  0
DICTIONARY
  5
17
330
C
100
AcDbDictionary
  3
STANDARD
350
18
  0
DICTIONARY
  5
19
330
C
100
AcDbDictionary
  0
ENDSEC
  0
EOF
