999
DXF created by Inkscape
  0
SECTION
  2
HEADER
  9
$ACADVER
  1
AC1014
  9
$HANDSEED
  5
FFFF
  9
$MEASUREMENT
 70
     1
  0
ENDSEC
  0
SECTION
  2
TABLES
  0
TABLE
  2
VPORT
  5
8
330
0
100
AcDbSymbolTable
 70
     4
  0
VPORT
  5
2E
330
8
100
AcDbSymbolTableRecord
100
AcDbViewportTableRecord
  2
*ACTIVE
 70
     0
 10
0.0
 20
0.0
 11
1.0
 21
1.0
 12
210.0
 22
148.5
 13
0.0
 23
0.0
 14
10.0
 24
10.0
 15
10.0
 25
10.0
 16
0.0
 26
0.0
 36
1.0
 17
0.0
 27
0.0
 37
0.0
 40
341.0
 41
1.24
 42
50.0
 43
0.0
 44
0.0
 50
0.0
 51
0.0
 71
     0
 72
   100
 73
     1
 74
     3
 75
     0
 76
     0
 77
     0
 78
     0
  0
ENDTAB
  0
TABLE
  2
LTYPE
  5
5
330
0
100
AcDbSymbolTable
 70
     1
  0
LTYPE
  5
14
330
5
100
AcDbSymbolTableRecord
100
AcDbLinetypeTableRecord
  2
BYBLOCK
 70
     0
  3

 72
    65
 73
     0
 40
0.0
  0
LTYPE
  5
15
330
5
100
AcDbSymbolTableRecord
100
AcDbLinetypeTableRecord
  2
BYLAYER
 70
     0
  3

 72
    65
 73
     0
 40
0.0
  0
LTYPE
  5
16
330
5
100
AcDbSymbolTableRecord
100
AcDbLinetypeTableRecord
  2
CONTINUOUS
 70
     0
  3
Solid line
 72
    65
 73
     0
 40
0.0
  0
ENDTAB
  0
TABLE
  2
LAYER
  5
2
100
AcDbSymbolTable
 70
1
  0
LAYER
  5
50
100
AcDbSymbolTableRecord
100
AcDbLayerTableRecord
  2
0
 70
0
  6
CONTINUOUS
  0
ENDTAB
  0
TABLE
  2
STYLE
  5
3
330
0
100
AcDbSymbolTable
 70
     1
  0
STYLE
  5
11
330
3
100
AcDbSymbolTableRecord
100
AcDbTextStyleTableRecord
  2
STANDARD
 70
     0
 40
0.0
 41
1.0
 50
0.0
 71
     0
 42
2.5
  3
txt
  4

  0
ENDTAB
  0
TABLE
  2
VIEW
  5
6
330
0
100
AcDbSymbolTable
 70
     0
  0
ENDTAB
  0
TABLE
  2
UCS
  5
7
330
0
100
AcDbSymbolTable
 70
     0
  0
ENDTAB
  0
TABLE
  2
APPID
  5
9
330
0
100
AcDbSymbolTable
 70
     2
  0
APPID
  5
12
330
9
100
AcDbSymbolTableRecord
100
AcDbRegAppTableRecord
  2
ACAD
 70
     0
  0
ENDTAB
  0
TABLE
  2
DIMSTYLE
  5
A
330
0
100
AcDbSymbolTable
 70
     1
  0
DIMSTYLE
105
27
330
A
100
AcDbSymbolTableRecord
100
AcDbDimStyleTableRecord
  2
ISO-25
 70
     0
  3

  4

  5

  6

  7

 40
1.0
 41
2.5
 42
0.625
 43
3.75
 44
1.25
 45
0.0
 46
0.0
 47
0.0
 48
0.0
140
2.5
141
2.5
142
0.0
143
0.03937007874016
144
1.0
145
0.0
146
1.0
147
0.625
 71
     0
 72
     0
 73
     0
 74
     0
 75
     0
 76
     0
 77
     1
 78
     8
170
     0
171
     3
172
     1
173
     0
174
     0
175
     0
176
     0
177
     0
178
     0
270
     2
271
     2
272
     2
273
     2
274
     3
340
11
275
     0
280
     0
281
     0
282
     0
283
     0
284
     8
285
     0
286
     0
287
     3
288
     0
  0
ENDTAB
  0
TABLE
  2
BLOCK_RECORD
  5
1
330
0
100
AcDbSymbolTable
 70
     1
  0
BLOCK_RECORD
  5
1F
330
1
100
AcDbSymbolTableRecord
100
AcDbBlockTableRecord
  2
*MODEL_SPACE
  0
BLOCK_RECORD
  5
1B
330
1
100
AcDbSymbolTableRecord
100
AcDbBlockTableRecord
  2
*PAPER_SPACE
  0
ENDTAB
  0
ENDSEC
  0
SECTION
  2
BLOCKS
  0
BLOCK
  5
20
330
1F
100
AcDbEntity
  8
0
100
AcDbBlockBegin
  2
*MODEL_SPACE
 70
     0
 10
0.0
 20
0.0
 30
0.0
  3
*MODEL_SPACE
  1

  0
ENDBLK
  5
21
330
1F
100
AcDbEntity
  8
0
100
AcDbBlockEnd
  0
BLOCK
  5
1C
330
1B
100
AcDbEntity
 67
     1
  8
0
100
AcDbBlockBegin
  2
*PAPER_SPACE
  1

  0
ENDBLK
  5
1D
330
1B
100
AcDbEntity
 67
     1
  8
0
100
AcDbBlockEnd
  0
ENDSEC
  0
SECTION
  2
ENTITIES
  0
LWPOLYLINE
  5
100
100
AcDbEntity
  8
0
 62
7
100
AcDbPolyline
 90
56
 70
0
 10
18.723250
 20
48.811226
 30
0.0
 10
17.880386
 20
48.574489
 30
0.0
 10
17.253819
 20
48.066405
 30
0.0
 10
16.847587
 20
47.368508
 30
0.0
 10
16.665730
 20
46.562334
 30
0.0
 10
16.712285
 20
45.729419
 30
0.0
 10
16.991291
 20
44.951296
 30
0.0
 10
17.506786
 20
44.309502
 30
0.0
 10
18.262809
 20
43.885571
 30
0.0
 10
18.254809
 20
41.271874
 30
0.0
 10
18.306647
 20
38.645307
 30
0.0
 10
18.230388
 20
37.354003
 30
0.0
 10
18.019547
 20
36.091649
 30
0.0
 10
17.624277
 20
34.868968
 30
0.0
 10
16.994731
 20
33.696683
 30
0.0
 10
10.372900
 20
19.231380
 30
0.0
 10
7.074779
 20
11.995519
 30
0.0
 10
3.871327
 20
4.715878
 30
0.0
 10
6.463717
 20
3.270262
 30
0.0
 10
9.185025
 20
2.188229
 30
0.0
 10
12.008115
 20
1.413352
 30
0.0
 10
14.905854
 20
0.889202
 30
0.0
 10
17.851108
 20
0.559354
 30
0.0
 10
20.816741
 20
0.367378
 30
0.0
 10
26.700612
 20
0.171338
 30
0.0
 10
31.452013
 20
0.339478
 30
0.0
 10
36.217488
 20
0.742154
 30
0.0
 10
38.569676
 20
1.111269
 30
0.0
 10
40.882391
 20
1.634807
 30
0.0
 10
43.141303
 20
2.344700
 30
0.0
 10
45.332080
 20
3.272876
 30
0.0
 10
46.042208
 20
3.813387
 30
0.0
 10
46.392184
 20
4.463026
 30
0.0
 10
46.454469
 20
5.192639
 30
0.0
 10
46.301522
 20
5.973072
 30
0.0
 10
45.639779
 20
7.569786
 30
0.0
 10
44.986637
 20
9.019936
 30
0.0
 10
39.277013
 20
22.198393
 30
0.0
 10
33.587303
 20
35.374420
 30
0.0
 10
33.337641
 20
36.369541
 30
0.0
 10
33.208212
 20
37.379928
 30
0.0
 10
33.173143
 20
39.427732
 30
0.0
 10
33.208273
 20
41.480297
 30
0.0
 10
33.039778
 20
43.500084
 30
0.0
 10
33.932525
 20
43.894426
 30
0.0
 10
34.553339
 20
44.552221
 30
0.0
 10
34.905106
 20
45.379103
 30
0.0
 10
34.990712
 20
46.280704
 30
0.0
 10
34.813043
 20
47.162659
 30
0.0
 10
34.374985
 20
47.930601
 30
0.0
 10
33.679424
 20
48.490163
 30
0.0
 10
32.729246
 20
48.746979
 30
0.0
 10
29.227091
 20
48.664035
 30
0.0
 10
25.725236
 20
48.723082
 30
0.0
 10
18.723250
 20
48.811226
 30
0.0
 10
18.723250
 20
48.811226
 30
0.0
  0
LWPOLYLINE
  5
101
100
AcDbEntity
  8
0
 62
7
100
AcDbPolyline
 90
33
 70
0
 10
29.119150
 20
43.614183
 30
0.0
 10
24.775634
 20
43.614183
 30
0.0
 10
20.190815
 20
43.845831
 30
0.0
 10
20.190815
 20
37.813185
 30
0.0
 10
20.043620
 20
35.882728
 30
0.0
 10
15.910042
 20
26.713088
 30
0.0
 10
9.257229
 20
12.234730
 30
0.0
 10
6.195054
 20
5.478160
 30
0.0
 10
7.430597
 20
4.841608
 30
0.0
 10
8.737865
 20
4.289807
 30
0.0
 10
10.107979
 20
3.816775
 30
0.0
 10
11.532068
 20
3.416471
 30
0.0
 10
13.001262
 20
3.082940
 30
0.0
 10
14.506687
 20
2.810116
 30
0.0
 10
17.590741
 20
2.422597
 30
0.0
 10
20.713254
 20
2.205907
 30
0.0
 10
23.803245
 20
2.111927
 30
0.0
 10
29.601758
 20
2.099791
 30
0.0
 10
32.497435
 20
2.319388
 30
0.0
 10
35.585589
 20
2.589221
 30
0.0
 10
37.136807
 20
2.787962
 30
0.0
 10
38.679402
 20
3.048425
 30
0.0
 10
40.203326
 20
3.385059
 30
0.0
 10
41.698553
 20
3.812118
 30
0.0
 10
43.155040
 20
4.344163
 30
0.0
 10
44.562748
 20
4.995476
 30
0.0
 10
41.527120
 20
12.234673
 30
0.0
 10
34.944281
 20
27.436946
 30
0.0
 10
31.322272
 20
35.882669
 30
0.0
 10
31.322272
 20
37.571820
 30
0.0
 10
31.322272
 20
43.845772
 30
0.0
 10
29.119150
 20
43.614124
 30
0.0
 10
29.119150
 20
43.614124
 30
0.0
  0
LWPOLYLINE
  5
102
100
AcDbEntity
  8
0
 62
7
100
AcDbPolyline
 90
16
 70
0
 10
13.916853
 20
18.508665
 30
0.0
 10
15.941413
 20
22.364755
 30
0.0
 10
17.777753
 20
22.610887
 30
0.0
 10
35.393111
 20
22.610887
 30
0.0
 10
42.390994
 20
5.960760
 30
0.0
 10
35.151802
 20
4.341567
 30
0.0
 10
29.601758
 20
4.030304
 30
0.0
 10
26.706084
 20
3.796229
 30
0.0
 10
23.569103
 20
4.030304
 30
0.0
 10
20.775266
 20
4.144124
 30
0.0
 10
17.884833
 20
4.423327
 30
0.0
 10
15.001185
 20
4.812483
 30
0.0
 10
12.227709
 20
5.256136
 30
0.0
 10
8.366811
 20
5.960760
 30
0.0
 10
13.916853
 20
18.508665
 30
0.0
 10
13.916853
 20
18.508665
 30
0.0
  0
LWPOLYLINE
  5
103
100
AcDbEntity
  8
0
 62
7
100
AcDbPolyline
 90
32
 70
0
 10
29.155345
 20
17.784737
 30
0.0
 10
28.989407
 20
17.077488
 30
0.0
 10
29.016444
 20
16.379524
 30
0.0
 10
29.214730
 20
15.720169
 30
0.0
 10
29.562549
 20
15.128603
 30
0.0
 10
30.038187
 20
14.634070
 30
0.0
 10
30.619923
 20
14.265827
 30
0.0
 10
31.286041
 20
14.053144
 30
0.0
 10
32.014823
 20
14.024922
 30
0.0
 10
32.609925
 20
14.141451
 30
0.0
 10
33.129110
 20
14.357295
 30
0.0
 10
33.570788
 20
14.657833
 30
0.0
 10
33.933361
 20
15.028442
 30
0.0
 10
34.215225
 20
15.454456
 30
0.0
 10
34.414785
 20
15.921280
 30
0.0
 10
34.530442
 20
16.414266
 30
0.0
 10
34.560597
 20
16.918766
 30
0.0
 10
34.503662
 20
17.420162
 30
0.0
 10
34.358030
 20
17.903807
 30
0.0
 10
34.122106
 20
18.355052
 30
0.0
 10
33.794296
 20
18.759335
 30
0.0
 10
33.372998
 20
19.101925
 30
0.0
 10
32.856619
 20
19.368258
 30
0.0
 10
32.243550
 20
19.543687
 30
0.0
 10
31.532203
 20
19.613537
 30
0.0
 10
30.735290
 20
19.388154
 30
0.0
 10
30.077729
 20
19.044662
 30
0.0
 10
29.799226
 20
18.811518
 30
0.0
 10
29.553191
 20
18.528336
 30
0.0
 10
29.338823
 20
18.188258
 30
0.0
 10
29.155334
 20
17.784427
 30
0.0
 10
29.155334
 20
17.784427
 30
0.0
  0
LWPOLYLINE
  5
104
100
AcDbEntity
  8
0
 62
7
100
AcDbPolyline
 90
18
 70
0
 10
18.190386
 20
17.010178
 30
0.0
 10
18.405426
 20
17.154986
 30
0.0
 10
18.571914
 20
17.379635
 30
0.0
 10
18.672287
 20
17.651726
 30
0.0
 10
18.688989
 20
17.938915
 30
0.0
 10
18.604452
 20
18.208748
 30
0.0
 10
18.401118
 20
18.428937
 30
0.0
 10
18.061427
 20
18.567057
 30
0.0
 10
17.567819
 20
18.590764
 30
0.0
 10
17.178190
 20
18.248597
 30
0.0
 10
16.989476
 20
17.915208
 30
0.0
 10
16.967999
 20
17.606909
 30
0.0
 10
17.080079
 20
17.339870
 30
0.0
 10
17.292037
 20
17.130433
 30
0.0
 10
17.570194
 20
16.994853
 30
0.0
 10
17.880871
 20
16.949359
 30
0.0
 10
18.190388
 20
17.010206
 30
0.0
 10
18.190388
 20
17.010206
 30
0.0
  0
LWPOLYLINE
  5
105
100
AcDbEntity
  8
0
 62
7
100
AcDbPolyline
 90
21
 70
0
 10
23.557038
 20
12.741460
 30
0.0
 10
24.006500
 20
12.953832
 30
0.0
 10
24.334421
 20
13.304408
 30
0.0
 10
24.524912
 20
13.737986
 30
0.0
 10
24.562079
 20
14.199250
 30
0.0
 10
24.430029
 20
14.633054
 30
0.0
 10
24.295583
 20
14.822391
 30
0.0
 10
24.112873
 20
14.984133
 30
0.0
 10
23.879911
 20
15.111387
 30
0.0
 10
23.594713
 20
15.197295
 30
0.0
 10
23.255293
 20
15.234887
 30
0.0
 10
22.859662
 20
15.217390
 30
0.0
 10
22.321423
 20
14.792109
 30
0.0
 10
22.033076
 20
14.337144
 30
0.0
 10
21.959020
 20
13.883895
 30
0.0
 10
22.063655
 20
13.463695
 30
0.0
 10
22.311376
 20
13.107982
 30
0.0
 10
22.666582
 20
12.848140
 30
0.0
 10
23.093668
 20
12.715524
 30
0.0
 10
23.557038
 20
12.741488
 30
0.0
 10
23.557038
 20
12.741488
 30
0.0
  0
LWPOLYLINE
  5
106
100
AcDbEntity
  8
0
 62
7
100
AcDbPolyline
 90
31
 70
0
 10
16.571222
 20
7.999788
 30
0.0
 10
16.922668
 20
8.067436
 30
0.0
 10
17.238523
 20
8.195086
 30
0.0
 10
17.515942
 20
8.374522
 30
0.0
 10
17.752077
 20
8.597280
 30
0.0
 10
18.089118
 20
9.139542
 30
0.0
 10
18.226885
 20
9.755295
 30
0.0
 10
18.213925
 20
10.069888
 30
0.0
 10
18.142611
 20
10.377849
 30
0.0
 10
18.010096
 20
10.670852
 30
0.0
 10
17.813534
 20
10.940487
 30
0.0
 10
17.550082
 20
11.178513
 30
0.0
 10
17.216891
 20
11.376577
 30
0.0
 10
16.811116
 20
11.526324
 30
0.0
 10
16.329916
 20
11.619372
 30
0.0
 10
15.866779
 20
11.479644
 30
0.0
 10
15.485552
 20
11.287084
 30
0.0
 10
15.182342
 20
11.050610
 30
0.0
 10
14.953264
 20
10.778943
 30
0.0
 10
14.794429
 20
10.481086
 30
0.0
 10
14.701948
 20
10.165759
 30
0.0
 10
14.671931
 20
9.841852
 30
0.0
 10
14.700495
 20
9.518228
 30
0.0
 10
14.917802
 20
8.907104
 30
0.0
 10
15.098771
 20
8.637328
 30
0.0
 10
15.322763
 20
8.403168
 30
0.0
 10
15.585893
 20
8.213486
 30
0.0
 10
15.884271
 20
8.077145
 30
0.0
 10
16.214010
 20
8.002977
 30
0.0
 10
16.571221
 20
7.999590
 30
0.0
 10
16.571221
 20
7.999590
 30
0.0
  0
LWPOLYLINE
  5
107
100
AcDbEntity
  8
0
 62
7
100
AcDbPolyline
 90
31
 70
0
 10
29.601758
 20
6.843947
 30
0.0
 10
30.003792
 20
6.801557
 30
0.0
 10
30.377282
 20
6.835480
 30
0.0
 10
30.719361
 20
6.937278
 30
0.0
 10
31.027164
 20
7.098737
 30
0.0
 10
31.297821
 20
7.311561
 30
0.0
 10
31.528472
 20
7.567536
 30
0.0
 10
31.858275
 20
8.175725
 30
0.0
 10
31.993640
 20
8.857151
 30
0.0
 10
31.981222
 20
9.204566
 30
0.0
 10
31.911615
 20
9.545491
 30
0.0
 10
31.781928
 20
9.871598
 30
0.0
 10
31.589297
 20
10.174649
 30
0.0
 10
31.330855
 20
10.446344
 30
0.0
 10
31.003734
 20
10.678387
 30
0.0
 10
30.585862
 20
10.870580
 30
0.0
 10
30.201695
 20
10.950760
 30
0.0
 10
29.808929
 20
10.950760
 30
0.0
 10
29.365267
 20
10.902669
 30
0.0
 10
28.946904
 20
10.685358
 30
0.0
 10
28.601755
 20
10.437172
 30
0.0
 10
28.326498
 20
10.163670
 30
0.0
 10
28.117827
 20
9.870470
 30
0.0
 10
27.972426
 20
9.563073
 30
0.0
 10
27.886989
 20
9.247125
 30
0.0
 10
27.882728
 20
8.611787
 30
0.0
 10
28.078576
 20
8.009129
 30
0.0
 10
28.448025
 20
7.483857
 30
0.0
 10
28.964574
 20
7.080590
 30
0.0
 10
29.601733
 20
6.843918
 30
0.0
 10
29.601733
 20
6.843918
 30
0.0
  0
ENDSEC
  0
SECTION
  2
OBJECTS
  0
DICTIONARY
  5
C
330
0
100
AcDbDictionary
  3
ACAD_GROUP
350
D
  3
ACAD_MLINESTYLE
350
17
  0
DICTIONARY
  5
D
330
C
100
AcDbDictionary
  0
DICTIONARY
  5
1A
330
C
100
AcDbDictionary
  0
DICTIONARY
  5
17
330
C
100
AcDbDictionary
  3
STANDARD
350
18
  0
DICTIONARY
  5
19
330
C
100
AcDbDictionary
  0
ENDSEC
  0
EOF
