  0
SECTION
  2
HEADER
  9
$ACADVER
  1
AC1014
  9
$HANDSEED
  5
FFFF
  9
$MEASUREMENT
 70
     1
  0
ENDSEC
  0
SECTION
  2
TABLES
  0
TABLE
  2
VPORT
  5
8
330
0
100
AcDbSymbolTable
 70
     4
  0
VPORT
  5
2E
330
8
100
AcDbSymbolTableRecord
100
AcDbViewportTableRecord
  2
*ACTIVE
 70
     0
 10
0.0
 20
0.0
 11
1.0
 21
1.0
 12
210.0
 22
148.5
 13
0.0
 23
0.0
 14
10.0
 24
10.0
 15
10.0
 25
10.0
 16
0.0
 26
0.0
 36
1.0
 17
0.0
 27
0.0
 37
0.0
 40
341.0
 41
1.24
 42
50.0
 43
0.0
 44
0.0
 50
0.0
 51
0.0
 71
     0
 72
   100
 73
     1
 74
     3
 75
     0
 76
     0
 77
     0
 78
     0
  0
ENDTAB
  0
TABLE
  2
LTYPE
  5
5
330
0
100
AcDbSymbolTable
 70
     1
  0
LTYPE
  5
14
330
5
100
AcDbSymbolTableRecord
100
AcDbLinetypeTableRecord
  2
BYBLOCK
 70
     0
  3

 72
    65
 73
     0
 40
0.0
  0
LTYPE
  5
15
330
5
100
AcDbSymbolTableRecord
100
AcDbLinetypeTableRecord
  2
BYLAYER
 70
     0
  3

 72
    65
 73
     0
 40
0.0
  0
LTYPE
  5
16
330
5
100
AcDbSymbolTableRecord
100
AcDbLinetypeTableRecord
  2
CONTINUOUS
 70
     0
  3
Solid line
 72
    65
 73
     0
 40
0.0
  0
ENDTAB
  0
TABLE
  2
LAYER
  5
2
100
AcDbSymbolTable
 70
1
  0
LAYER
  5
50
100
AcDbSymbolTableRecord
100
AcDbLayerTableRecord
  2
0
 70
0
  6
CONTINUOUS
  0
ENDTAB
  0
TABLE
  2
STYLE
  5
3
330
0
100
AcDbSymbolTable
 70
     1
  0
STYLE
  5
11
330
3
100
AcDbSymbolTableRecord
100
AcDbTextStyleTableRecord
  2
STANDARD
 70
     0
 40
0.0
 41
1.0
 50
0.0
 71
     0
 42
2.5
  3
txt
  4

  0
ENDTAB
  0
TABLE
  2
VIEW
  5
6
330
0
100
AcDbSymbolTable
 70
     0
  0
ENDTAB
  0
TABLE
  2
UCS
  5
7
330
0
100
AcDbSymbolTable
 70
     0
  0
ENDTAB
  0
TABLE
  2
APPID
  5
9
330
0
100
AcDbSymbolTable
 70
     2
  0
APPID
  5
12
330
9
100
AcDbSymbolTableRecord
100
AcDbRegAppTableRecord
  2
ACAD
 70
     0
  0
ENDTAB
  0
TABLE
  2
DIMSTYLE
  5
A
330
0
100
AcDbSymbolTable
 70
     1
  0
DIMSTYLE
105
27
330
A
100
AcDbSymbolTableRecord
100
AcDbDimStyleTableRecord
  2
ISO-25
 70
     0
  3

  4

  5

  6

  7

 40
1.0
 41
2.5
 42
0.625
 43
3.75
 44
1.25
 45
0.0
 46
0.0
 47
0.0
 48
0.0
140
2.5
141
2.5
142
0.0
143
0.03937007874016
144
1.0
145
0.0
146
1.0
147
0.625
 71
     0
 72
     0
 73
     0
 74
     0
 75
     0
 76
     0
 77
     1
 78
     8
170
     0
171
     3
172
     1
173
     0
174
     0
175
     0
176
     0
177
     0
178
     0
270
     2
271
     2
272
     2
273
     2
274
     3
340
11
275
     0
280
     0
281
     0
282
     0
283
     0
284
     8
285
     0
286
     0
287
     3
288
     0
  0
ENDTAB
  0
TABLE
  2
BLOCK_RECORD
  5
1
330
0
100
AcDbSymbolTable
 70
     1
  0
BLOCK_RECORD
  5
1F
330
1
100
AcDbSymbolTableRecord
100
AcDbBlockTableRecord
  2
*MODEL_SPACE
  0
BLOCK_RECORD
  5
1B
330
1
100
AcDbSymbolTableRecord
100
AcDbBlockTableRecord
  2
*PAPER_SPACE
  0
ENDTAB
  0
ENDSEC
  0
SECTION
  2
BLOCKS
  0
BLOCK
  5
20
330
1F
100
AcDbEntity
  8
0
100
AcDbBlockBegin
  2
*MODEL_SPACE
 70
     0
 10
0.0
 20
0.0
 30
0.0
  3
*MODEL_SPACE
  1

  0
ENDBLK
  5
21
330
1F
100
AcDbEntity
  8
0
100
AcDbBlockEnd
  0
BLOCK
  5
1C
330
1B
100
AcDbEntity
 67
     1
  8
0
100
AcDbBlockBegin
  2
*PAPER_SPACE
  1

  0
ENDBLK
  5
1D
330
1B
100
AcDbEntity
 67
     1
  8
0
100
AcDbBlockEnd
  0
ENDSEC
  0
SECTION
  2
ENTITIES
  0
LWPOLYLINE
  5
100
100
AcDbEntity
  8
0
 62
7
100
AcDbPolyline
 90
5
 70
0
 10
2.500000
 20
47.499999
 30
0.0
 10
2.500000
 20
2.500000
 30
0.0
 10
47.499999
 20
2.500000
 30
0.0
 10
47.499999
 20
47.499999
 30
0.0
 10
2.500000
 20
47.499999
 30
0.0
  0
LWPOLYLINE
  5
101
100
AcDbEntity
  8
0
 62
7
100
AcDbPolyline
 90
5
 70
0
 10
3.237705
 20
46.762294
 30
0.0
 10
17.254098
 20
46.762294
 30
0.0
 10
17.254098
 20
32.745901
 30
0.0
 10
3.237705
 20
32.745901
 30
0.0
 10
3.237705
 20
46.762294
 30
0.0
  0
LWPOLYLINE
  5
102
100
AcDbEntity
  8
0
 62
7
100
AcDbPolyline
 90
5
 70
0
 10
17.991803
 20
46.762294
 30
0.0
 10
32.008196
 20
46.762294
 30
0.0
 10
32.008196
 20
32.745901
 30
0.0
 10
17.991803
 20
32.745901
 30
0.0
 10
17.991803
 20
46.762294
 30
0.0
  0
LWPOLYLINE
  5
103
100
AcDbEntity
  8
0
 62
7
100
AcDbPolyline
 90
5
 70
0
 10
32.745901
 20
46.762294
 30
0.0
 10
46.762294
 20
46.762294
 30
0.0
 10
46.762294
 20
32.745901
 30
0.0
 10
32.745901
 20
32.745901
 30
0.0
 10
32.745901
 20
46.762294
 30
0.0
  0
LWPOLYLINE
  5
104
100
AcDbEntity
  8
0
 62
7
100
AcDbPolyline
 90
5
 70
0
 10
3.237705
 20
32.008196
 30
0.0
 10
17.254098
 20
32.008196
 30
0.0
 10
17.254098
 20
17.991803
 30
0.0
 10
3.237705
 20
17.991803
 30
0.0
 10
3.237705
 20
32.008196
 30
0.0
  0
LWPOLYLINE
  5
105
100
AcDbEntity
  8
0
 62
7
100
AcDbPolyline
 90
5
 70
0
 10
17.991803
 20
32.008196
 30
0.0
 10
32.008196
 20
32.008196
 30
0.0
 10
32.008196
 20
17.991803
 30
0.0
 10
17.991803
 20
17.991803
 30
0.0
 10
17.991803
 20
32.008196
 30
0.0
  0
LWPOLYLINE
  5
106
100
AcDbEntity
  8
0
 62
7
100
AcDbPolyline
 90
5
 70
0
 10
32.745901
 20
32.008196
 30
0.0
 10
46.762294
 20
32.008196
 30
0.0
 10
46.762294
 20
17.991803
 30
0.0
 10
32.745901
 20
17.991803
 30
0.0
 10
32.745901
 20
32.008196
 30
0.0
  0
LWPOLYLINE
  5
107
100
AcDbEntity
  8
0
 62
7
100
AcDbPolyline
 90
5
 70
0
 10
3.237705
 20
17.254098
 30
0.0
 10
17.254098
 20
17.254098
 30
0.0
 10
17.254098
 20
3.237705
 30
0.0
 10
3.237705
 20
3.237705
 30
0.0
 10
3.237705
 20
17.254098
 30
0.0
  0
LWPOLYLINE
  5
108
100
AcDbEntity
  8
0
 62
7
100
AcDbPolyline
 90
5
 70
0
 10
17.991803
 20
17.254098
 30
0.0
 10
32.008196
 20
17.254098
 30
0.0
 10
32.008196
 20
3.237705
 30
0.0
 10
17.991803
 20
3.237705
 30
0.0
 10
17.991803
 20
17.254098
 30
0.0
  0
LWPOLYLINE
  5
109
100
AcDbEntity
  8
0
 62
7
100
AcDbPolyline
 90
5
 70
0
 10
32.745901
 20
17.254098
 30
0.0
 10
46.762294
 20
17.254098
 30
0.0
 10
46.762294
 20
3.237705
 30
0.0
 10
32.745901
 20
3.237705
 30
0.0
 10
32.745901
 20
17.254098
 30
0.0
  0
LWPOLYLINE
  5
10a
100
AcDbEntity
  8
0
 62
7
100
AcDbPolyline
 90
33
 70
0
 10
30.901639
 20
39.754097
 30
0.0
 10
30.781739
 20
38.564711
 30
0.0
 10
30.437858
 20
37.456913
 30
0.0
 10
29.893735
 20
36.454435
 30
0.0
 10
29.173093
 20
35.581008
 30
0.0
 10
28.299666
 20
34.860367
 30
0.0
 10
27.297188
 20
34.316243
 30
0.0
 10
26.189390
 20
33.972362
 30
0.0
 10
24.999999
 20
33.852458
 30
0.0
 10
23.810613
 20
33.972359
 30
0.0
 10
22.702815
 20
34.316239
 30
0.0
 10
21.700337
 20
34.860365
 30
0.0
 10
20.826911
 20
35.581008
 30
0.0
 10
20.106267
 20
36.454435
 30
0.0
 10
19.562141
 20
37.456913
 30
0.0
 10
19.218261
 20
38.564711
 30
0.0
 10
19.098360
 20
39.754097
 30
0.0
 10
19.218259
 20
40.943484
 30
0.0
 10
19.562141
 20
42.051282
 30
0.0
 10
20.106264
 20
43.053760
 30
0.0
 10
20.826906
 20
43.927187
 30
0.0
 10
21.700332
 20
44.647829
 30
0.0
 10
22.702811
 20
45.191956
 30
0.0
 10
23.810609
 20
45.535836
 30
0.0
 10
24.999999
 20
45.655737
 30
0.0
 10
26.189386
 20
45.535836
 30
0.0
 10
27.297184
 20
45.191956
 30
0.0
 10
28.299662
 20
44.647829
 30
0.0
 10
29.173088
 20
43.927186
 30
0.0
 10
29.893730
 20
43.053760
 30
0.0
 10
30.437854
 20
42.051282
 30
0.0
 10
30.781735
 20
40.943483
 30
0.0
 10
30.901639
 20
39.754097
 30
0.0
  0
LWPOLYLINE
  5
10b
100
AcDbEntity
  8
0
 62
7
100
AcDbPolyline
 90
33
 70
0
 10
45.655737
 20
24.999999
 30
0.0
 10
45.535837
 20
23.810613
 30
0.0
 10
45.191956
 20
22.702815
 30
0.0
 10
44.647833
 20
21.700337
 30
0.0
 10
43.927191
 20
20.826910
 30
0.0
 10
43.053764
 20
20.106269
 30
0.0
 10
42.051286
 20
19.562145
 30
0.0
 10
40.943488
 20
19.218264
 30
0.0
 10
39.754097
 20
19.098360
 30
0.0
 10
38.564711
 20
19.218261
 30
0.0
 10
37.456913
 20
19.562141
 30
0.0
 10
36.454435
 20
20.106267
 30
0.0
 10
35.581009
 20
20.826910
 30
0.0
 10
34.860365
 20
21.700337
 30
0.0
 10
34.316239
 20
22.702815
 30
0.0
 10
33.972359
 20
23.810613
 30
0.0
 10
33.852458
 20
24.999999
 30
0.0
 10
33.972357
 20
26.189386
 30
0.0
 10
34.316239
 20
27.297184
 30
0.0
 10
34.860362
 20
28.299662
 30
0.0
 10
35.581004
 20
29.173088
 30
0.0
 10
36.454430
 20
29.893730
 30
0.0
 10
37.456909
 20
30.437854
 30
0.0
 10
38.564707
 20
30.781735
 30
0.0
 10
39.754097
 20
30.901639
 30
0.0
 10
40.943484
 20
30.781739
 30
0.0
 10
42.051282
 20
30.437858
 30
0.0
 10
43.053760
 20
29.893735
 30
0.0
 10
43.927186
 20
29.173093
 30
0.0
 10
44.647828
 20
28.299666
 30
0.0
 10
45.191952
 20
27.297188
 30
0.0
 10
45.535833
 20
26.189390
 30
0.0
 10
45.655737
 20
24.999999
 30
0.0
  0
LWPOLYLINE
  5
10c
100
AcDbEntity
  8
0
 62
7
100
AcDbPolyline
 90
33
 70
0
 10
16.147541
 20
10.245901
 30
0.0
 10
16.027640
 20
9.056515
 30
0.0
 10
15.683760
 20
7.948717
 30
0.0
 10
15.139634
 20
6.946239
 30
0.0
 10
14.418990
 20
6.072812
 30
0.0
 10
13.545564
 20
5.352169
 30
0.0
 10
12.543086
 20
4.808043
 30
0.0
 10
11.435288
 20
4.464163
 30
0.0
 10
10.245901
 20
4.344262
 30
0.0
 10
9.056515
 20
4.464163
 30
0.0
 10
7.948717
 20
4.808043
 30
0.0
 10
6.946239
 20
5.352169
 30
0.0
 10
6.072812
 20
6.072812
 30
0.0
 10
5.352169
 20
6.946239
 30
0.0
 10
4.808042
 20
7.948717
 30
0.0
 10
4.464163
 20
9.056515
 30
0.0
 10
4.344262
 20
10.245901
 30
0.0
 10
4.464163
 20
11.435288
 30
0.0
 10
4.808042
 20
12.543086
 30
0.0
 10
5.352169
 20
13.545564
 30
0.0
 10
6.072812
 20
14.418990
 30
0.0
 10
6.946239
 20
15.139634
 30
0.0
 10
7.948717
 20
15.683760
 30
0.0
 10
9.056515
 20
16.027640
 30
0.0
 10
10.245901
 20
16.147541
 30
0.0
 10
11.435288
 20
16.027641
 30
0.0
 10
12.543086
 20
15.683760
 30
0.0
 10
13.545564
 20
15.139637
 30
0.0
 10
14.418990
 20
14.418995
 30
0.0
 10
15.139632
 20
13.545568
 30
0.0
 10
15.683756
 20
12.543090
 30
0.0
 10
16.027637
 20
11.435292
 30
0.0
 10
16.147541
 20
10.245901
 30
0.0
  0
LWPOLYLINE
  5
10d
100
AcDbEntity
  8
0
 62
7
100
AcDbPolyline
 90
33
 70
0
 10
30.901639
 20
10.245901
 30
0.0
 10
30.781739
 20
9.056515
 30
0.0
 10
30.437858
 20
7.948717
 30
0.0
 10
29.893735
 20
6.946239
 30
0.0
 10
29.173093
 20
6.072812
 30
0.0
 10
28.299666
 20
5.352171
 30
0.0
 10
27.297188
 20
4.808047
 30
0.0
 10
26.189390
 20
4.464166
 30
0.0
 10
24.999999
 20
4.344262
 30
0.0
 10
23.810613
 20
4.464163
 30
0.0
 10
22.702815
 20
4.808043
 30
0.0
 10
21.700337
 20
5.352169
 30
0.0
 10
20.826911
 20
6.072812
 30
0.0
 10
20.106267
 20
6.946239
 30
0.0
 10
19.562141
 20
7.948717
 30
0.0
 10
19.218261
 20
9.056515
 30
0.0
 10
19.098360
 20
10.245901
 30
0.0
 10
19.218259
 20
11.435288
 30
0.0
 10
19.562141
 20
12.543086
 30
0.0
 10
20.106264
 20
13.545564
 30
0.0
 10
20.826906
 20
14.418990
 30
0.0
 10
21.700332
 20
15.139632
 30
0.0
 10
22.702811
 20
15.683756
 30
0.0
 10
23.810609
 20
16.027637
 30
0.0
 10
24.999999
 20
16.147541
 30
0.0
 10
26.189386
 20
16.027641
 30
0.0
 10
27.297184
 20
15.683760
 30
0.0
 10
28.299662
 20
15.139637
 30
0.0
 10
29.173088
 20
14.418995
 30
0.0
 10
29.893730
 20
13.545568
 30
0.0
 10
30.437854
 20
12.543090
 30
0.0
 10
30.781735
 20
11.435292
 30
0.0
 10
30.901639
 20
10.245901
 30
0.0
  0
LWPOLYLINE
  5
10e
100
AcDbEntity
  8
0
 62
7
100
AcDbPolyline
 90
33
 70
0
 10
45.655737
 20
10.245901
 30
0.0
 10
45.535837
 20
9.056515
 30
0.0
 10
45.191956
 20
7.948717
 30
0.0
 10
44.647833
 20
6.946239
 30
0.0
 10
43.927191
 20
6.072812
 30
0.0
 10
43.053764
 20
5.352171
 30
0.0
 10
42.051286
 20
4.808047
 30
0.0
 10
40.943488
 20
4.464166
 30
0.0
 10
39.754097
 20
4.344262
 30
0.0
 10
38.564711
 20
4.464163
 30
0.0
 10
37.456913
 20
4.808043
 30
0.0
 10
36.454435
 20
5.352169
 30
0.0
 10
35.581009
 20
6.072812
 30
0.0
 10
34.860365
 20
6.946239
 30
0.0
 10
34.316239
 20
7.948717
 30
0.0
 10
33.972359
 20
9.056515
 30
0.0
 10
33.852458
 20
10.245901
 30
0.0
 10
33.972357
 20
11.435288
 30
0.0
 10
34.316239
 20
12.543086
 30
0.0
 10
34.860362
 20
13.545564
 30
0.0
 10
35.581004
 20
14.418990
 30
0.0
 10
36.454430
 20
15.139632
 30
0.0
 10
37.456909
 20
15.683756
 30
0.0
 10
38.564707
 20
16.027637
 30
0.0
 10
39.754097
 20
16.147541
 30
0.0
 10
40.943484
 20
16.027641
 30
0.0
 10
42.051282
 20
15.683760
 30
0.0
 10
43.053760
 20
15.139637
 30
0.0
 10
43.927186
 20
14.418995
 30
0.0
 10
44.647828
 20
13.545568
 30
0.0
 10
45.191952
 20
12.543090
 30
0.0
 10
45.535833
 20
11.435292
 30
0.0
 10
45.655737
 20
10.245901
 30
0.0
  0
ENDSEC
  0
SECTION
  2
OBJECTS
  0
DICTIONARY
  5
C
330
0
100
AcDbDictionary
  3
ACAD_GROUP
350
D
  3
ACAD_MLINESTYLE
350
17
  0
DICTIONARY
  5
D
330
C
100
AcDbDictionary
  0
DICTIONARY
  5
1A
330
C
100
AcDbDictionary
  0
DICTIONARY
  5
17
330
C
100
AcDbDictionary
  3
STANDARD
350
18
  0
DICTIONARY
  5
19
330
C
100
AcDbDictionary
  0
ENDSEC
  0
EOF
