999
DXF created by Inkscape
  0
SECTION
  2
HEADER
  9
$ACADVER
  1
AC1014
  9
$HANDSEED
  5
FFFF
  9
$MEASUREMENT
 70
     1
  0
ENDSEC
  0
SECTION
  2
TABLES
  0
TABLE
  2
VPORT
  5
8
330
0
100
AcDbSymbolTable
 70
     4
  0
VPORT
  5
2E
330
8
100
AcDbSymbolTableRecord
100
AcDbViewportTableRecord
  2
*ACTIVE
 70
     0
 10
0.0
 20
0.0
 11
1.0
 21
1.0
 12
210.0
 22
148.5
 13
0.0
 23
0.0
 14
10.0
 24
10.0
 15
10.0
 25
10.0
 16
0.0
 26
0.0
 36
1.0
 17
0.0
 27
0.0
 37
0.0
 40
341.0
 41
1.24
 42
50.0
 43
0.0
 44
0.0
 50
0.0
 51
0.0
 71
     0
 72
   100
 73
     1
 74
     3
 75
     0
 76
     0
 77
     0
 78
     0
  0
ENDTAB
  0
TABLE
  2
LTYPE
  5
5
330
0
100
AcDbSymbolTable
 70
     1
  0
LTYPE
  5
14
330
5
100
AcDbSymbolTableRecord
100
AcDbLinetypeTableRecord
  2
BYBLOCK
 70
     0
  3

 72
    65
 73
     0
 40
0.0
  0
LTYPE
  5
15
330
5
100
AcDbSymbolTableRecord
100
AcDbLinetypeTableRecord
  2
BYLAYER
 70
     0
  3

 72
    65
 73
     0
 40
0.0
  0
LTYPE
  5
16
330
5
100
AcDbSymbolTableRecord
100
AcDbLinetypeTableRecord
  2
CONTINUOUS
 70
     0
  3
Solid line
 72
    65
 73
     0
 40
0.0
  0
ENDTAB
  0
TABLE
  2
LAYER
  5
2
100
AcDbSymbolTable
 70
1
  0
LAYER
  5
50
100
AcDbSymbolTableRecord
100
AcDbLayerTableRecord
  2
0
 70
0
  6
CONTINUOUS
  0
ENDTAB
  0
TABLE
  2
STYLE
  5
3
330
0
100
AcDbSymbolTable
 70
     1
  0
STYLE
  5
11
330
3
100
AcDbSymbolTableRecord
100
AcDbTextStyleTableRecord
  2
STANDARD
 70
     0
 40
0.0
 41
1.0
 50
0.0
 71
     0
 42
2.5
  3
txt
  4

  0
ENDTAB
  0
TABLE
  2
VIEW
  5
6
330
0
100
AcDbSymbolTable
 70
     0
  0
ENDTAB
  0
TABLE
  2
UCS
  5
7
330
0
100
AcDbSymbolTable
 70
     0
  0
ENDTAB
  0
TABLE
  2
APPID
  5
9
330
0
100
AcDbSymbolTable
 70
     2
  0
APPID
  5
12
330
9
100
AcDbSymbolTableRecord
100
AcDbRegAppTableRecord
  2
ACAD
 70
     0
  0
ENDTAB
  0
TABLE
  2
DIMSTYLE
  5
A
330
0
100
AcDbSymbolTable
 70
     1
  0
DIMSTYLE
105
27
330
A
100
AcDbSymbolTableRecord
100
AcDbDimStyleTableRecord
  2
ISO-25
 70
     0
  3

  4

  5

  6

  7

 40
1.0
 41
2.5
 42
0.625
 43
3.75
 44
1.25
 45
0.0
 46
0.0
 47
0.0
 48
0.0
140
2.5
141
2.5
142
0.0
143
0.03937007874016
144
1.0
145
0.0
146
1.0
147
0.625
 71
     0
 72
     0
 73
     0
 74
     0
 75
     0
 76
     0
 77
     1
 78
     8
170
     0
171
     3
172
     1
173
     0
174
     0
175
     0
176
     0
177
     0
178
     0
270
     2
271
     2
272
     2
273
     2
274
     3
340
11
275
     0
280
     0
281
     0
282
     0
283
     0
284
     8
285
     0
286
     0
287
     3
288
     0
  0
ENDTAB
  0
TABLE
  2
BLOCK_RECORD
  5
1
330
0
100
AcDbSymbolTable
 70
     1
  0
BLOCK_RECORD
  5
1F
330
1
100
AcDbSymbolTableRecord
100
AcDbBlockTableRecord
  2
*MODEL_SPACE
  0
BLOCK_RECORD
  5
1B
330
1
100
AcDbSymbolTableRecord
100
AcDbBlockTableRecord
  2
*PAPER_SPACE
  0
ENDTAB
  0
ENDSEC
  0
SECTION
  2
BLOCKS
  0
BLOCK
  5
20
330
1F
100
AcDbEntity
  8
0
100
AcDbBlockBegin
  2
*MODEL_SPACE
 70
     0
 10
0.0
 20
0.0
 30
0.0
  3
*MODEL_SPACE
  1

  0
ENDBLK
  5
21
330
1F
100
AcDbEntity
  8
0
100
AcDbBlockEnd
  0
BLOCK
  5
1C
330
1B
100
AcDbEntity
 67
     1
  8
0
100
AcDbBlockBegin
  2
*PAPER_SPACE
  1

  0
ENDBLK
  5
1D
330
1B
100
AcDbEntity
 67
     1
  8
0
100
AcDbBlockEnd
  0
ENDSEC
  0
SECTION
  2
ENTITIES
  0
LWPOLYLINE
  5
100
100
AcDbEntity
  8
0
 62
7
100
AcDbPolyline
 90
12
 70
0
 10
31.634311
 20
35.504618
 30
0.0
 10
31.634311
 20
33.990561
 30
0.0
 10
33.148369
 20
34.495247
 30
0.0
 10
32.138050
 20
33.488318
 30
0.0
 10
31.668613
 20
33.303369
 30
0.0
 10
31.254533
 20
33.328798
 30
0.0
 10
30.919471
 20
33.563113
 30
0.0
 10
30.687078
 20
34.004841
 30
0.0
 10
30.581013
 20
34.652504
 30
0.0
 10
30.624938
 20
35.504627
 30
0.0
 10
31.634311
 20
35.504627
 30
0.0
 10
31.634311
 20
35.504627
 30
0.0
  0
LWPOLYLINE
  5
101
100
AcDbEntity
  8
0
 62
7
100
AcDbPolyline
 90
14
 70
0
 10
3.876571
 20
43.579597
 30
0.0
 10
6.153651
 20
41.179974
 30
0.0
 10
7.419823
 20
40.154336
 30
0.0
 10
8.769504
 20
39.303645
 30
0.0
 10
10.201512
 20
38.672018
 30
0.0
 10
11.714663
 20
38.303577
 30
0.0
 10
13.307775
 20
38.242445
 30
0.0
 10
14.375838
 20
38.791519
 30
0.0
 10
12.423668
 20
40.464659
 30
0.0
 10
9.857734
 20
41.992992
 30
0.0
 10
7.076991
 20
43.052911
 30
0.0
 10
5.542045
 20
43.386961
 30
0.0
 10
3.876571
 20
43.579597
 30
0.0
 10
3.876571
 20
43.579597
 30
0.0
  0
LWPOLYLINE
  5
102
100
AcDbEntity
  8
0
 62
7
100
AcDbPolyline
 90
134
 70
0
 10
26.587449
 20
42.045352
 30
0.0
 10
24.260215
 20
43.558780
 30
0.0
 10
21.985972
 20
44.799677
 30
0.0
 10
19.615210
 20
45.826712
 30
0.0
 10
16.998411
 20
46.698559
 30
0.0
 10
15.270571
 20
47.498958
 30
0.0
 10
13.611337
 20
48.438465
 30
0.0
 10
12.869694
 20
48.743620
 30
0.0
 10
12.219901
 20
48.823444
 30
0.0
 10
11.686856
 20
48.591229
 30
0.0
 10
11.295458
 20
47.960273
 30
0.0
 10
11.208675
 20
46.995711
 30
0.0
 10
11.502064
 20
45.859044
 30
0.0
 10
12.781758
 20
43.255338
 30
0.0
 10
14.239355
 20
40.521042
 30
0.0
 10
14.755122
 20
39.221140
 30
0.0
 10
14.979667
 20
38.028049
 30
0.0
 10
17.154391
 20
36.008910
 30
0.0
 10
18.682802
 20
34.002547
 30
0.0
 10
19.747532
 20
31.737846
 30
0.0
 10
20.531215
 20
28.943699
 30
0.0
 10
22.549959
 20
28.439013
 30
0.0
 10
18.710480
 20
27.744833
 30
0.0
 10
14.291401
 20
27.147646
 30
0.0
 10
9.971682
 20
26.422713
 30
0.0
 10
8.061258
 20
25.942105
 30
0.0
 10
6.430284
 20
25.345284
 30
0.0
 10
5.207207
 20
24.527300
 30
0.0
 10
4.855249
 20
24.067179
 30
0.0
 10
4.685331
 20
23.600964
 30
0.0
 10
4.704201
 20
23.149654
 30
0.0
 10
4.918594
 20
22.734246
 30
0.0
 10
5.335256
 20
22.375731
 30
0.0
 10
5.960928
 20
22.095106
 30
0.0
 10
7.323502
 20
21.898752
 30
0.0
 10
8.924067
 20
21.970197
 30
0.0
 10
11.951553
 20
22.382780
 30
0.0
 10
8.923436
 20
20.364036
 30
0.0
 10
10.932087
 20
14.555104
 30
0.0
 10
15.484356
 20
10.270322
 30
0.0
 10
18.007788
 20
11.279690
 30
0.0
 10
16.493729
 20
9.260954
 30
0.0
 10
17.450198
 20
9.357418
 30
0.0
 10
18.249169
 20
9.613591
 30
0.0
 10
18.924768
 20
10.007912
 30
0.0
 10
19.511121
 20
10.518875
 30
0.0
 10
20.552588
 20
11.804567
 30
0.0
 10
21.646574
 20
13.298425
 30
0.0
 10
25.705513
 20
18.703616
 30
0.0
 10
27.740186
 20
21.268528
 30
0.0
 10
30.120256
 20
23.896838
 30
0.0
 10
23.549241
 20
14.307793
 30
0.0
 10
24.583848
 20
9.765624
 30
0.0
 10
23.559335
 20
4.718785
 30
0.0
 10
18.512474
 20
5.728153
 30
0.0
 10
16.998415
 20
0.176588
 30
0.0
 10
19.521846
 20
3.204719
 30
0.0
 10
21.770222
 20
2.684245
 30
0.0
 10
22.932735
 20
2.626305
 30
0.0
 10
24.018599
 20
2.871612
 30
0.0
 10
25.203114
 20
3.691412
 30
0.0
 10
26.242372
 20
4.865146
 30
0.0
 10
27.328001
 20
6.178890
 30
0.0
 10
28.651616
 20
7.418833
 30
0.0
 10
30.496246
 20
8.406047
 30
0.0
 10
33.207674
 20
9.366308
 30
0.0
 10
34.622885
 20
9.696564
 30
0.0
 10
35.936136
 20
9.852436
 30
0.0
 10
37.041200
 20
9.778014
 30
0.0
 10
37.831862
 20
9.417390
 30
0.0
 10
38.520445
 20
8.384372
 30
0.0
 10
38.923246
 20
6.978510
 30
0.0
 10
39.204611
 20
4.214087
 30
0.0
 10
42.399276
 20
4.799529
 30
0.0
 10
43.867438
 20
5.355309
 30
0.0
 10
45.260846
 20
6.247978
 30
0.0
 10
43.242102
 20
6.247978
 30
0.0
 10
41.733003
 20
6.604594
 30
0.0
 10
40.824332
 20
7.282097
 30
0.0
 10
40.368461
 20
8.197372
 30
0.0
 10
40.217763
 20
9.267248
 30
0.0
 10
40.241413
 20
11.538177
 30
0.0
 10
40.120526
 20
12.572917
 30
0.0
 10
39.714332
 20
13.429659
 30
0.0
 10
38.724675
 20
13.942456
 30
0.0
 10
36.986502
 20
14.439647
 30
0.0
 10
33.653051
 20
15.317172
 30
0.0
 10
34.612584
 20
18.056986
 30
0.0
 10
35.301720
 20
19.334868
 30
0.0
 10
36.287514
 20
20.278235
 30
0.0
 10
37.371639
 20
20.695865
 30
0.0
 10
38.518224
 20
20.837179
 30
0.0
 10
39.657236
 20
20.885752
 30
0.0
 10
40.718657
 20
21.025173
 30
0.0
 10
42.134379
 20
21.673141
 30
0.0
 10
43.921521
 20
22.862860
 30
0.0
 10
45.512783
 20
24.246568
 30
0.0
 10
46.057675
 20
24.902492
 30
0.0
 10
46.340859
 20
25.476503
 30
0.0
 10
46.488481
 20
26.477678
 30
0.0
 10
46.340859
 20
27.429639
 30
0.0
 10
43.746771
 20
27.934326
 30
0.0
 10
43.366900
 20
26.977787
 30
0.0
 10
42.855844
 20
26.130074
 30
0.0
 10
42.225323
 20
25.403484
 30
0.0
 10
41.487043
 20
24.810318
 30
0.0
 10
40.652713
 20
24.362883
 30
0.0
 10
39.734043
 20
24.073478
 30
0.0
 10
38.742751
 20
23.954403
 30
0.0
 10
37.690542
 20
24.017959
 30
0.0
 10
36.395309
 20
24.401838
 30
0.0
 10
35.285077
 20
25.037428
 30
0.0
 10
33.102941
 20
26.511110
 30
0.0
 10
30.516425
 20
27.718573
 30
0.0
 10
29.340032
 20
28.310949
 30
0.0
 10
27.596815
 20
29.448386
 30
0.0
 10
35.167109
 20
26.420266
 30
0.0
 10
35.307238
 20
28.450920
 30
0.0
 10
35.189729
 20
29.140693
 30
0.0
 10
34.944415
 20
29.701359
 30
0.0
 10
34.062084
 20
30.699138
 30
0.0
 10
32.643678
 20
31.971817
 30
0.0
 10
34.662422
 20
31.467130
 30
0.0
 10
35.671801
 20
32.981187
 30
0.0
 10
34.558646
 20
34.788990
 30
0.0
 10
33.742634
 20
35.804276
 30
0.0
 10
33.496915
 20
36.254993
 30
0.0
 10
33.386512
 20
36.795906
 30
0.0
 10
33.653051
 20
38.532735
 30
0.0
 10
32.499093
 20
38.578721
 30
0.0
 10
31.510025
 20
38.781373
 30
0.0
 10
29.851501
 20
39.567975
 30
0.0
 10
26.587443
 20
42.045352
 30
0.0
 10
26.587443
 20
42.045352
 30
0.0
  0
ENDSEC
  0
SECTION
  2
OBJECTS
  0
DICTIONARY
  5
C
330
0
100
AcDbDictionary
  3
ACAD_GROUP
350
D
  3
ACAD_MLINESTYLE
350
17
  0
DICTIONARY
  5
D
330
C
100
AcDbDictionary
  0
DICTIONARY
  5
1A
330
C
100
AcDbDictionary
  0
DICTIONARY
  5
17
330
C
100
AcDbDictionary
  3
STANDARD
350
18
  0
DICTIONARY
  5
19
330
C
100
AcDbDictionary
  0
ENDSEC
  0
EOF
