  0
SECTION
  2
HEADER
  9
$ACADVER
  1
AC1014
  9
$HANDSEED
  5
FFFF
  9
$MEASUREMENT
 70
     1
  0
ENDSEC
  0
SECTION
  2
TABLES
  0
TABLE
  2
VPORT
  5
8
330
0
100
AcDbSymbolTable
 70
     4
  0
VPORT
  5
2E
330
8
100
AcDbSymbolTableRecord
100
AcDbViewportTableRecord
  2
*ACTIVE
 70
     0
 10
0.0
 20
0.0
 11
1.0
 21
1.0
 12
210.0
 22
148.5
 13
0.0
 23
0.0
 14
10.0
 24
10.0
 15
10.0
 25
10.0
 16
0.0
 26
0.0
 36
1.0
 17
0.0
 27
0.0
 37
0.0
 40
341.0
 41
1.24
 42
50.0
 43
0.0
 44
0.0
 50
0.0
 51
0.0
 71
     0
 72
   100
 73
     1
 74
     3
 75
     0
 76
     0
 77
     0
 78
     0
  0
ENDTAB
  0
TABLE
  2
LTYPE
  5
5
330
0
100
AcDbSymbolTable
 70
     1
  0
LTYPE
  5
14
330
5
100
AcDbSymbolTableRecord
100
AcDbLinetypeTableRecord
  2
BYBLOCK
 70
     0
  3

 72
    65
 73
     0
 40
0.0
  0
LTYPE
  5
15
330
5
100
AcDbSymbolTableRecord
100
AcDbLinetypeTableRecord
  2
BYLAYER
 70
     0
  3

 72
    65
 73
     0
 40
0.0
  0
LTYPE
  5
16
330
5
100
AcDbSymbolTableRecord
100
AcDbLinetypeTableRecord
  2
CONTINUOUS
 70
     0
  3
Solid line
 72
    65
 73
     0
 40
0.0
  0
ENDTAB
  0
TABLE
  2
LAYER
  5
2
100
AcDbSymbolTable
 70
2
  0
LAYER
  5
50
100
AcDbSymbolTableRecord
100
AcDbLayerTableRecord
  2
0
 70
0
  6
CONTINUOUS
  0
LAYER
  5
51
100
AcDbSymbolTableRecord
100
AcDbLayerTableRecord
  2
Layer_1
 70
0
  6
CONTINUOUS
  0
ENDTAB
  0
TABLE
  2
STYLE
  5
3
330
0
100
AcDbSymbolTable
 70
     1
  0
STYLE
  5
11
330
3
100
AcDbSymbolTableRecord
100
AcDbTextStyleTableRecord
  2
STANDARD
 70
     0
 40
0.0
 41
1.0
 50
0.0
 71
     0
 42
2.5
  3
txt
  4

  0
ENDTAB
  0
TABLE
  2
VIEW
  5
6
330
0
100
AcDbSymbolTable
 70
     0
  0
ENDTAB
  0
TABLE
  2
UCS
  5
7
330
0
100
AcDbSymbolTable
 70
     0
  0
ENDTAB
  0
TABLE
  2
APPID
  5
9
330
0
100
AcDbSymbolTable
 70
     2
  0
APPID
  5
12
330
9
100
AcDbSymbolTableRecord
100
AcDbRegAppTableRecord
  2
ACAD
 70
     0
  0
ENDTAB
  0
TABLE
  2
DIMSTYLE
  5
A
330
0
100
AcDbSymbolTable
 70
     1
  0
DIMSTYLE
105
27
330
A
100
AcDbSymbolTableRecord
100
AcDbDimStyleTableRecord
  2
ISO-25
 70
     0
  3

  4

  5

  6

  7

 40
1.0
 41
2.5
 42
0.625
 43
3.75
 44
1.25
 45
0.0
 46
0.0
 47
0.0
 48
0.0
140
2.5
141
2.5
142
0.0
143
0.03937007874016
144
1.0
145
0.0
146
1.0
147
0.625
 71
     0
 72
     0
 73
     0
 74
     0
 75
     0
 76
     0
 77
     1
 78
     8
170
     0
171
     3
172
     1
173
     0
174
     0
175
     0
176
     0
177
     0
178
     0
270
     2
271
     2
272
     2
273
     2
274
     3
340
11
275
     0
280
     0
281
     0
282
     0
283
     0
284
     8
285
     0
286
     0
287
     3
288
     0
  0
ENDTAB
  0
TABLE
  2
BLOCK_RECORD
  5
1
330
0
100
AcDbSymbolTable
 70
     1
  0
BLOCK_RECORD
  5
1F
330
1
100
AcDbSymbolTableRecord
100
AcDbBlockTableRecord
  2
*MODEL_SPACE
  0
BLOCK_RECORD
  5
1B
330
1
100
AcDbSymbolTableRecord
100
AcDbBlockTableRecord
  2
*PAPER_SPACE
  0
ENDTAB
  0
ENDSEC
  0
SECTION
  2
BLOCKS
  0
BLOCK
  5
20
330
1F
100
AcDbEntity
  8
0
100
AcDbBlockBegin
  2
*MODEL_SPACE
 70
     0
 10
0.0
 20
0.0
 30
0.0
  3
*MODEL_SPACE
  1

  0
ENDBLK
  5
21
330
1F
100
AcDbEntity
  8
0
100
AcDbBlockEnd
  0
BLOCK
  5
1C
330
1B
100
AcDbEntity
 67
     1
  8
0
100
AcDbBlockBegin
  2
*PAPER_SPACE
  1

  0
ENDBLK
  5
1D
330
1B
100
AcDbEntity
 67
     1
  8
0
100
AcDbBlockEnd
  0
ENDSEC
  0
SECTION
  2
ENTITIES
  0
LWPOLYLINE
  5
100
100
AcDbEntity
  8
Layer_1
 62
7
100
AcDbPolyline
 90
29
 70
0
 10
-5.069982
 20
34.121230
 30
0.0
 10
0.138472
 20
34.121230
 30
0.0
 10
2.550268
 20
43.717124
 30
0.0
 10
8.297527
 20
43.717124
 30
0.0
 10
5.808758
 20
34.121230
 30
0.0
 10
10.760638
 20
34.121230
 30
0.0
 10
10.760638
 20
28.604872
 30
0.0
 10
4.448916
 20
28.604872
 30
0.0
 10
2.550268
 20
21.087234
 30
0.0
 10
7.810036
 20
21.087234
 30
0.0
 10
7.810036
 20
15.570876
 30
0.0
 10
1.190425
 20
15.570876
 30
0.0
 10
-1.221371
 20
6.000638
 30
0.0
 10
-6.891658
 20
6.000638
 30
0.0
 10
-4.479861
 20
15.570876
 30
0.0
 10
-9.739630
 20
15.570876
 30
0.0
 10
-12.151426
 20
6.000638
 30
0.0
 10
-17.821713
 20
6.000638
 30
0.0
 10
-15.409916
 20
15.570876
 30
0.0
 10
-20.721000
 20
15.570876
 30
0.0
 10
-20.721000
 20
21.087234
 30
0.0
 10
-14.050074
 20
21.087234
 30
0.0
 10
-12.151426
 20
28.604872
 30
0.0
 10
-17.770398
 20
28.604872
 30
0.0
 10
-17.770398
 20
34.121230
 30
0.0
 10
-10.740269
 20
34.121230
 30
0.0
 10
-8.328472
 20
43.717124
 30
0.0
 10
-2.632528
 20
43.717124
 30
0.0
 10
-5.069982
 20
34.121230
 30
0.0
  0
LWPOLYLINE
  5
101
100
AcDbEntity
  8
Layer_1
 62
7
100
AcDbPolyline
 90
5
 70
0
 10
-6.481139
 20
28.604872
 30
0.0
 10
-8.379787
 20
21.087234
 30
0.0
 10
-3.120019
 20
21.087234
 30
0.0
 10
-1.221371
 20
28.604872
 30
0.0
 10
-6.481139
 20
28.604872
 30
0.0
  0
LWPOLYLINE
  5
102
100
AcDbEntity
  8
Layer_1
 62
7
100
AcDbPolyline
 90
66
 70
0
 10
25.128786
 20
5.256588
 30
0.0
 10
22.248734
 20
5.378451
 30
0.0
 10
19.407184
 20
5.744070
 30
0.0
 10
16.668252
 20
6.340603
 30
0.0
 10
14.044786
 20
7.155238
 30
0.0
 10
14.044786
 20
14.185365
 30
0.0
 10
16.552794
 20
13.120569
 30
0.0
 10
19.253240
 20
12.338051
 30
0.0
 10
22.120447
 20
11.876195
 30
0.0
 10
25.128786
 20
11.722271
 30
0.0
 10
27.886944
 20
12.075048
 30
0.0
 10
30.003691
 20
13.133410
 30
0.0
 10
31.350692
 20
14.813978
 30
0.0
 10
31.799713
 20
16.982038
 30
0.0
 10
31.350692
 20
19.592675
 30
0.0
 10
30.003691
 20
21.523411
 30
0.0
 10
27.835629
 20
22.735713
 30
0.0
 10
24.923526
 20
23.139833
 30
0.0
 10
22.896591
 20
23.139833
 30
0.0
 10
20.869656
 20
23.139833
 30
0.0
 10
20.869656
 20
29.810773
 30
0.0
 10
22.896591
 20
29.810773
 30
0.0
 10
24.923526
 20
29.810773
 30
0.0
 10
27.425111
 20
30.086575
 30
0.0
 10
29.285286
 20
30.914045
 30
0.0
 10
30.459099
 20
32.267459
 30
0.0
 10
30.850388
 20
34.069916
 30
0.0
 10
30.459099
 20
35.962131
 30
0.0
 10
29.285286
 20
37.379728
 30
0.0
 10
27.425111
 20
38.284132
 30
0.0
 10
24.923526
 20
38.585630
 30
0.0
 10
22.691323
 20
38.450905
 30
0.0
 10
20.305193
 20
38.046822
 30
0.0
 10
17.797177
 20
37.386120
 30
0.0
 10
15.199370
 20
36.481717
 30
0.0
 10
15.199370
 20
43.357920
 30
0.0
 10
17.822834
 20
44.057055
 30
0.0
 10
20.407823
 20
44.563822
 30
0.0
 10
22.922240
 20
44.890926
 30
0.0
 10
25.334045
 20
44.999999
 30
0.0
 10
28.194834
 20
44.834806
 30
0.0
 10
30.722085
 20
44.339288
 30
0.0
 10
32.915795
 20
43.513447
 30
0.0
 10
34.775970
 20
42.357278
 30
0.0
 10
36.257670
 20
40.910819
 30
0.0
 10
37.316032
 20
39.214212
 30
0.0
 10
37.951057
 20
37.267460
 30
0.0
 10
38.162746
 20
35.070557
 30
0.0
 10
37.675236
 20
31.965983
 30
0.0
 10
36.212783
 20
29.477226
 30
0.0
 10
33.845873
 20
27.694016
 30
0.0
 10
30.645128
 20
26.654905
 30
0.0
 10
34.262805
 20
25.474646
 30
0.0
 10
36.905534
 20
23.370747
 30
0.0
 10
37.848427
 20
21.999667
 30
0.0
 10
38.521931
 20
20.426540
 30
0.0
 10
38.926039
 20
18.651368
 30
0.0
 10
39.060758
 20
16.674147
 30
0.0
 10
38.837845
 20
14.055486
 30
0.0
 10
38.169142
 20
11.767144
 30
0.0
 10
37.054655
 20
9.809171
 30
0.0
 10
35.494378
 20
8.181539
 30
0.0
 10
33.509122
 20
6.901887
 30
0.0
 10
31.119775
 20
5.987826
 30
0.0
 10
28.326328
 20
5.439411
 30
0.0
 10
25.128786
 20
5.256588
 30
0.0
  0
LWPOLYLINE
  5
103
100
AcDbEntity
  8
Layer_1
 62
7
100
AcDbPolyline
 90
33
 70
0
 10
61.305728
 20
26.783195
 30
0.0
 10
61.878199
 20
27.780616
 30
0.0
 10
62.287110
 20
28.976891
 30
0.0
 10
62.532463
 20
30.372020
 30
0.0
 10
62.614257
 20
31.966003
 30
0.0
 10
62.532463
 20
33.547128
 30
0.0
 10
62.287110
 20
34.929418
 30
0.0
 10
61.878199
 20
36.112875
 30
0.0
 10
61.305728
 20
37.097494
 30
0.0
 10
60.592121
 20
37.883238
 30
0.0
 10
59.734199
 20
38.444490
 30
0.0
 10
58.731963
 20
38.781252
 30
0.0
 10
57.585407
 20
38.893520
 30
0.0
 10
56.424398
 20
38.781249
 30
0.0
 10
55.404515
 20
38.444490
 30
0.0
 10
54.525754
 20
37.883241
 30
0.0
 10
53.788110
 20
37.097494
 30
0.0
 10
53.215622
 20
36.112875
 30
0.0
 10
52.806704
 20
34.929418
 30
0.0
 10
52.561357
 20
33.547128
 30
0.0
 10
52.479581
 20
31.966003
 30
0.0
 10
52.561357
 20
30.383244
 30
0.0
 10
52.806704
 20
28.996133
 30
0.0
 10
53.215622
 20
27.804670
 30
0.0
 10
53.788110
 20
26.808852
 30
0.0
 10
54.525751
 20
26.023080
 30
0.0
 10
55.404515
 20
25.461819
 30
0.0
 10
56.424401
 20
25.125069
 30
0.0
 10
57.585407
 20
25.012823
 30
0.0
 10
58.731960
 20
25.123463
 30
0.0
 10
59.734199
 20
25.455404
 30
0.0
 10
60.592123
 20
26.008647
 30
0.0
 10
61.305728
 20
26.783195
 30
0.0
  0
LWPOLYLINE
  5
104
100
AcDbEntity
  8
Layer_1
 62
7
100
AcDbPolyline
 90
58
 70
0
 10
55.224923
 20
5.000020
 30
0.0
 10
53.396825
 20
5.096229
 30
0.0
 10
51.504602
 20
5.384886
 30
0.0
 10
49.593116
 20
5.859556
 30
0.0
 10
47.655988
 20
6.513803
 30
0.0
 10
47.655988
 20
13.415660
 30
0.0
 10
49.638018
 20
12.389359
 30
0.0
 10
51.530256
 20
11.670934
 30
0.0
 10
53.364754
 20
11.247601
 30
0.0
 10
55.122295
 20
11.106490
 30
0.0
 10
57.040176
 20
11.276472
 30
0.0
 10
58.714318
 20
11.786420
 30
0.0
 10
60.144716
 20
12.636332
 30
0.0
 10
61.331385
 20
13.826181
 30
0.0
 10
62.282301
 20
15.367221
 30
0.0
 10
62.979859
 20
17.245021
 30
0.0
 10
63.424057
 20
19.459582
 30
0.0
 10
63.614895
 20
22.010902
 30
0.0
 10
62.970243
 20
21.228342
 30
0.0
 10
62.242212
 20
20.548415
 30
0.0
 10
61.430800
 20
19.971124
 30
0.0
 10
60.536009
 20
19.496468
 30
0.0
 10
59.556207
 20
19.137259
 30
0.0
 10
58.489816
 20
18.880682
 30
0.0
 10
57.336842
 20
18.726741
 30
0.0
 10
56.097277
 20
18.675430
 30
0.0
 10
53.664629
 20
18.879079
 30
0.0
 10
51.523838
 20
19.490045
 30
0.0
 10
49.674901
 20
20.508328
 30
0.0
 10
48.117822
 20
21.933929
 30
0.0
 10
46.883058
 20
23.745979
 30
0.0
 10
46.001082
 20
25.897997
 30
0.0
 10
45.471901
 20
28.389982
 30
0.0
 10
45.295507
 20
31.221935
 30
0.0
 10
45.492746
 20
34.247897
 30
0.0
 10
46.084470
 20
36.911456
 30
0.0
 10
47.070679
 20
39.212617
 30
0.0
 10
48.451369
 20
41.151377
 30
0.0
 10
50.192861
 20
42.689200
 30
0.0
 10
52.261488
 20
43.787654
 30
0.0
 10
54.657250
 20
44.446739
 30
0.0
 10
57.380147
 20
44.666452
 30
0.0
 10
60.641834
 20
44.372972
 30
0.0
 10
63.422448
 20
43.492593
 30
0.0
 10
65.721998
 20
42.025315
 30
0.0
 10
67.540477
 20
39.971135
 30
0.0
 10
68.932377
 20
37.275481
 30
0.0
 10
69.926595
 20
33.858221
 30
0.0
 10
70.523134
 20
29.719356
 30
0.0
 10
70.721996
 20
24.858883
 30
0.0
 10
70.479838
 20
20.203650
 30
0.0
 10
69.753409
 20
16.167409
 30
0.0
 10
68.542707
 20
12.750152
 30
0.0
 10
66.847728
 20
9.951891
 30
0.0
 10
64.668442
 20
7.785468
 30
0.0
 10
62.004877
 20
6.237987
 30
0.0
 10
58.857041
 20
5.309504
 30
0.0
 10
55.224923
 20
5.000020
 30
0.0
  0
ENDSEC
  0
SECTION
  2
OBJECTS
  0
DICTIONARY
  5
C
330
0
100
AcDbDictionary
  3
ACAD_GROUP
350
D
  3
ACAD_MLINESTYLE
350
17
  0
DICTIONARY
  5
D
330
C
100
AcDbDictionary
  0
DICTIONARY
  5
1A
330
C
100
AcDbDictionary
  0
DICTIONARY
  5
17
330
C
100
AcDbDictionary
  3
STANDARD
350
18
  0
DICTIONARY
  5
19
330
C
100
AcDbDictionary
  0
ENDSEC
  0
EOF
