  0
SECTION
  2
HEADER
  9
$ACADVER
  1
AC1014
  9
$HANDSEED
  5
FFFF
  9
$MEASUREMENT
 70
     1
  0
ENDSEC
  0
SECTION
  2
TABLES
  0
TABLE
  2
VPORT
  5
8
330
0
100
AcDbSymbolTable
 70
     4
  0
VPORT
  5
2E
330
8
100
AcDbSymbolTableRecord
100
AcDbViewportTableRecord
  2
*ACTIVE
 70
     0
 10
0.0
 20
0.0
 11
1.0
 21
1.0
 12
210.0
 22
148.5
 13
0.0
 23
0.0
 14
10.0
 24
10.0
 15
10.0
 25
10.0
 16
0.0
 26
0.0
 36
1.0
 17
0.0
 27
0.0
 37
0.0
 40
341.0
 41
1.24
 42
50.0
 43
0.0
 44
0.0
 50
0.0
 51
0.0
 71
     0
 72
   100
 73
     1
 74
     3
 75
     0
 76
     0
 77
     0
 78
     0
  0
ENDTAB
  0
TABLE
  2
LTYPE
  5
5
330
0
100
AcDbSymbolTable
 70
     1
  0
LTYPE
  5
14
330
5
100
AcDbSymbolTableRecord
100
AcDbLinetypeTableRecord
  2
BYBLOCK
 70
     0
  3

 72
    65
 73
     0
 40
0.0
  0
LTYPE
  5
15
330
5
100
AcDbSymbolTableRecord
100
AcDbLinetypeTableRecord
  2
BYLAYER
 70
     0
  3

 72
    65
 73
     0
 40
0.0
  0
LTYPE
  5
16
330
5
100
AcDbSymbolTableRecord
100
AcDbLinetypeTableRecord
  2
CONTINUOUS
 70
     0
  3
Solid line
 72
    65
 73
     0
 40
0.0
  0
ENDTAB
  0
TABLE
  2
LAYER
  5
2
100
AcDbSymbolTable
 70
1
  0
LAYER
  5
50
100
AcDbSymbolTableRecord
100
AcDbLayerTableRecord
  2
0
 70
0
  6
CONTINUOUS
  0
ENDTAB
  0
TABLE
  2
STYLE
  5
3
330
0
100
AcDbSymbolTable
 70
     1
  0
STYLE
  5
11
330
3
100
AcDbSymbolTableRecord
100
AcDbTextStyleTableRecord
  2
STANDARD
 70
     0
 40
0.0
 41
1.0
 50
0.0
 71
     0
 42
2.5
  3
txt
  4

  0
ENDTAB
  0
TABLE
  2
VIEW
  5
6
330
0
100
AcDbSymbolTable
 70
     0
  0
ENDTAB
  0
TABLE
  2
UCS
  5
7
330
0
100
AcDbSymbolTable
 70
     0
  0
ENDTAB
  0
TABLE
  2
APPID
  5
9
330
0
100
AcDbSymbolTable
 70
     2
  0
APPID
  5
12
330
9
100
AcDbSymbolTableRecord
100
AcDbRegAppTableRecord
  2
ACAD
 70
     0
  0
ENDTAB
  0
TABLE
  2
DIMSTYLE
  5
A
330
0
100
AcDbSymbolTable
 70
     1
  0
DIMSTYLE
105
27
330
A
100
AcDbSymbolTableRecord
100
AcDbDimStyleTableRecord
  2
ISO-25
 70
     0
  3

  4

  5

  6

  7

 40
1.0
 41
2.5
 42
0.625
 43
3.75
 44
1.25
 45
0.0
 46
0.0
 47
0.0
 48
0.0
140
2.5
141
2.5
142
0.0
143
0.03937007874016
144
1.0
145
0.0
146
1.0
147
0.625
 71
     0
 72
     0
 73
     0
 74
     0
 75
     0
 76
     0
 77
     1
 78
     8
170
     0
171
     3
172
     1
173
     0
174
     0
175
     0
176
     0
177
     0
178
     0
270
     2
271
     2
272
     2
273
     2
274
     3
340
11
275
     0
280
     0
281
     0
282
     0
283
     0
284
     8
285
     0
286
     0
287
     3
288
     0
  0
ENDTAB
  0
TABLE
  2
BLOCK_RECORD
  5
1
330
0
100
AcDbSymbolTable
 70
     1
  0
BLOCK_RECORD
  5
1F
330
1
100
AcDbSymbolTableRecord
100
AcDbBlockTableRecord
  2
*MODEL_SPACE
  0
BLOCK_RECORD
  5
1B
330
1
100
AcDbSymbolTableRecord
100
AcDbBlockTableRecord
  2
*PAPER_SPACE
  0
ENDTAB
  0
ENDSEC
  0
SECTION
  2
BLOCKS
  0
BLOCK
  5
20
330
1F
100
AcDbEntity
  8
0
100
AcDbBlockBegin
  2
*MODEL_SPACE
 70
     0
 10
0.0
 20
0.0
 30
0.0
  3
*MODEL_SPACE
  1

  0
ENDBLK
  5
21
330
1F
100
AcDbEntity
  8
0
100
AcDbBlockEnd
  0
BLOCK
  5
1C
330
1B
100
AcDbEntity
 67
     1
  8
0
100
AcDbBlockBegin
  2
*PAPER_SPACE
  1

  0
ENDBLK
  5
1D
330
1B
100
AcDbEntity
 67
     1
  8
0
100
AcDbBlockEnd
  0
ENDSEC
  0
SECTION
  2
ENTITIES
  0
LWPOLYLINE
  5
100
100
AcDbEntity
  8
0
 62
7
100
AcDbPolyline
 90
35
 70
0
 10
15.281660
 20
0.591991
 30
0.0
 10
14.916846
 20
1.018174
 30
0.0
 10
14.674131
 20
1.458187
 30
0.0
 10
14.538901
 20
1.947984
 30
0.0
 10
14.496537
 20
2.523548
 30
0.0
 10
14.595074
 20
3.311484
 30
0.0
 10
14.893165
 20
3.998582
 30
0.0
 10
15.391326
 20
4.585689
 30
0.0
 10
16.090079
 20
5.073623
 30
0.0
 10
16.741402
 20
5.346786
 30
0.0
 10
17.570620
 20
5.399957
 30
0.0
 10
18.379305
 20
5.488433
 30
0.0
 10
17.618457
 20
6.000526
 30
0.0
 10
20.204090
 20
10.492995
 30
0.0
 10
25.161301
 20
10.492995
 30
0.0
 10
22.044015
 20
4.844572
 30
0.0
 10
22.562381
 20
4.734590
 30
0.0
 10
23.054495
 20
4.357287
 30
0.0
 10
23.176299
 20
3.350120
 30
0.0
 10
23.120315
 20
2.628450
 30
0.0
 10
22.866287
 20
2.111560
 30
0.0
 10
22.259893
 20
1.431432
 30
0.0
 10
21.406119
 20
0.935286
 30
0.0
 10
20.408363
 20
0.617306
 30
0.0
 10
19.661769
 20
0.643835
 30
0.0
 10
19.243421
 20
0.957694
 30
0.0
 10
19.117935
 20
1.561622
 30
0.0
 10
18.824043
 20
2.311006
 30
0.0
 10
18.667006
 20
1.941521
 30
0.0
 10
18.455472
 20
1.278383
 30
0.0
 10
17.909366
 20
0.671295
 30
0.0
 10
17.161422
 20
0.228065
 30
0.0
 10
16.344378
 20
0.056361
 30
0.0
 10
15.585241
 20
0.302967
 30
0.0
 10
15.281660
 20
0.591850
 30
0.0
  0
LWPOLYLINE
  5
101
100
AcDbEntity
  8
0
 62
7
100
AcDbPolyline
 90
29
 70
0
 10
33.598180
 20
0.976829
 30
0.0
 10
33.768625
 20
1.540032
 30
0.0
 10
33.976872
 20
2.119010
 30
0.0
 10
33.857051
 20
2.230262
 30
0.0
 10
33.397306
 20
1.784408
 30
0.0
 10
32.407047
 20
1.039821
 30
0.0
 10
31.054286
 20
0.762622
 30
0.0
 10
30.234879
 20
0.762622
 30
0.0
 10
29.568400
 20
0.990771
 30
0.0
 10
28.659238
 20
1.678744
 30
0.0
 10
28.184739
 20
2.597716
 30
0.0
 10
28.331524
 20
3.699032
 30
0.0
 10
29.054007
 20
4.844205
 30
0.0
 10
29.564175
 20
5.544031
 30
0.0
 10
28.677021
 20
5.474858
 30
0.0
 10
25.774101
 20
10.493898
 30
0.0
 10
31.186058
 20
10.493898
 30
0.0
 10
33.953515
 20
6.494668
 30
0.0
 10
34.280435
 20
6.196952
 30
0.0
 10
35.199368
 20
5.827156
 30
0.0
 10
35.998624
 20
5.298836
 30
0.0
 10
36.660816
 20
4.626273
 30
0.0
 10
37.168557
 20
3.823746
 30
0.0
 10
37.465087
 20
2.365080
 30
0.0
 10
37.135892
 20
1.228515
 30
0.0
 10
36.320696
 20
0.452545
 30
0.0
 10
34.761130
 20
0.164593
 30
0.0
 10
34.019228
 20
0.538284
 30
0.0
 10
33.598180
 20
0.977732
 30
0.0
  0
LWPOLYLINE
  5
102
100
AcDbEntity
  8
0
 62
7
100
AcDbPolyline
 90
41
 70
0
 10
3.415643
 20
2.079443
 30
0.0
 10
2.592646
 20
3.152282
 30
0.0
 10
2.146044
 20
4.327936
 30
0.0
 10
2.062430
 20
5.367388
 30
0.0
 10
2.359430
 20
6.348336
 30
0.0
 10
3.037313
 20
7.271372
 30
0.0
 10
4.096348
 20
8.136948
 30
0.0
 10
4.688193
 20
8.638682
 30
0.0
 10
4.466644
 20
8.805476
 30
0.0
 10
3.578201
 20
8.391032
 30
0.0
 10
3.291192
 20
8.767319
 30
0.0
 10
2.806101
 20
9.658238
 30
0.0
 10
2.659010
 20
10.691793
 30
0.0
 10
2.833708
 20
11.750719
 30
0.0
 10
3.342503
 20
12.680641
 30
0.0
 10
4.162452
 20
13.452095
 30
0.0
 10
5.270608
 20
14.035787
 30
0.0
 10
6.421274
 20
14.360202
 30
0.0
 10
7.456940
 20
14.402620
 30
0.0
 10
8.374706
 20
14.163324
 30
0.0
 10
9.171671
 20
13.642567
 30
0.0
 10
9.732412
 20
12.989674
 30
0.0
 10
10.090065
 20
12.236226
 30
0.0
 10
10.234982
 20
11.412532
 30
0.0
 10
10.157518
 20
10.548847
 30
0.0
 10
9.849110
 20
10.492995
 30
0.0
 10
17.443090
 20
10.492995
 30
0.0
 10
14.326809
 20
5.144800
 30
0.0
 10
9.883816
 20
5.144800
 30
0.0
 10
8.803303
 20
5.811634
 30
0.0
 10
9.080321
 20
4.968806
 30
0.0
 10
9.383124
 20
4.119345
 30
0.0
 10
9.398455
 20
3.268135
 30
0.0
 10
9.126193
 20
2.414384
 30
0.0
 10
8.566225
 20
1.557332
 30
0.0
 10
7.902828
 20
0.933846
 30
0.0
 10
7.154629
 20
0.559479
 30
0.0
 10
6.354094
 20
0.444530
 30
0.0
 10
5.533686
 20
0.599216
 30
0.0
 10
4.442604
 20
1.152117
 30
0.0
 10
3.415644
 20
2.079443
 30
0.0
  0
LWPOLYLINE
  5
103
100
AcDbEntity
  8
0
 62
7
100
AcDbPolyline
 90
39
 70
0
 10
44.257251
 20
1.733354
 30
0.0
 10
42.856122
 20
2.395927
 30
0.0
 10
41.894162
 20
3.485982
 30
0.0
 10
41.669267
 20
4.517561
 30
0.0
 10
41.690434
 20
5.907166
 30
0.0
 10
41.595297
 20
6.221449
 30
0.0
 10
41.183966
 20
5.144800
 30
0.0
 10
37.639746
 20
5.144800
 30
0.0
 10
33.947958
 20
10.492995
 30
0.0
 10
41.505138
 20
10.492995
 30
0.0
 10
41.581465
 20
11.788903
 30
0.0
 10
41.999577
 20
13.014736
 30
0.0
 10
42.331541
 20
13.534166
 30
0.0
 10
42.786052
 20
14.067029
 30
0.0
 10
43.287535
 20
14.534333
 30
0.0
 10
43.760418
 20
14.856947
 30
0.0
 10
44.832586
 20
15.214511
 30
0.0
 10
45.976834
 20
15.251180
 30
0.0
 10
47.109400
 20
14.975740
 30
0.0
 10
48.146521
 20
14.396975
 30
0.0
 10
48.620497
 20
13.929841
 30
0.0
 10
49.032115
 20
13.323063
 30
0.0
 10
49.337028
 20
12.655551
 30
0.0
 10
49.490887
 20
12.006158
 30
0.0
 10
49.464358
 20
11.202248
 30
0.0
 10
49.240067
 20
10.314208
 30
0.0
 10
48.833041
 20
9.385301
 30
0.0
 10
47.768042
 20
7.597565
 30
0.0
 10
48.818529
 20
8.134182
 30
0.0
 10
49.413956
 20
7.404355
 30
0.0
 10
49.896488
 20
6.313143
 30
0.0
 10
49.943642
 20
5.295083
 30
0.0
 10
49.671605
 20
4.275527
 30
0.0
 10
49.119288
 20
3.346480
 30
0.0
 10
48.325608
 20
2.599889
 30
0.0
 10
46.331276
 20
1.812517
 30
0.0
 10
44.257265
 20
1.733354
 30
0.0
 10
44.257262
 20
1.733354
 30
0.0
 10
44.257259
 20
1.733354
 30
0.0
  0
LWPOLYLINE
  5
104
100
AcDbEntity
  8
0
 62
7
100
AcDbPolyline
 90
100
 70
0
 10
22.664918
 20
11.398675
 30
0.0
 10
22.252718
 20
11.321459
 30
0.0
 10
20.866208
 20
11.291092
 30
0.0
 10
19.456666
 20
11.594424
 30
0.0
 10
19.087006
 20
11.719956
 30
0.0
 10
18.722280
 20
11.554546
 30
0.0
 10
18.033672
 20
11.330857
 30
0.0
 10
16.502999
 20
12.016064
 30
0.0
 10
16.182931
 20
11.970965
 30
0.0
 10
15.614237
 20
11.794717
 30
0.0
 10
14.838651
 20
12.060204
 30
0.0
 10
13.749743
 20
12.898460
 30
0.0
 10
13.319155
 20
14.148055
 30
0.0
 10
13.241003
 20
14.768098
 30
0.0
 10
12.149287
 20
15.500515
 30
0.0
 10
10.461889
 20
16.750968
 30
0.0
 10
8.521093
 20
18.467543
 30
0.0
 10
7.420270
 20
19.554363
 30
0.0
 10
6.414661
 20
20.678215
 30
0.0
 10
5.495727
 20
21.852632
 30
0.0
 10
4.654925
 20
23.091153
 30
0.0
 10
3.883717
 20
24.407307
 30
0.0
 10
3.173561
 20
25.814631
 30
0.0
 10
2.515919
 20
27.326659
 30
0.0
 10
1.902248
 20
28.956927
 30
0.0
 10
1.268552
 20
31.450439
 30
0.0
 10
0.634856
 20
33.943955
 30
0.0
 10
0.199727
 20
37.639547
 30
0.0
 10
0.056366
 20
40.930989
 30
0.0
 10
6.222529
 20
40.978366
 30
0.0
 10
6.113625
 20
40.104691
 30
0.0
 10
6.132991
 20
37.964896
 30
0.0
 10
6.549515
 20
35.229017
 30
0.0
 10
7.409178
 20
32.117110
 30
0.0
 10
8.136730
 20
30.268792
 30
0.0
 10
8.400332
 20
31.508848
 30
0.0
 10
8.743311
 20
33.143468
 30
0.0
 10
9.350589
 20
34.944565
 30
0.0
 10
10.171920
 20
36.607881
 30
0.0
 10
11.194757
 20
38.121222
 30
0.0
 10
12.406556
 20
39.472389
 30
0.0
 10
13.794773
 20
40.649182
 30
0.0
 10
15.346860
 20
41.639407
 30
0.0
 10
17.050274
 20
42.430865
 30
0.0
 10
18.892469
 20
43.011359
 30
0.0
 10
21.631159
 20
43.321203
 30
0.0
 10
24.345913
 20
43.183828
 30
0.0
 10
26.602192
 20
42.518887
 30
0.0
 10
28.925650
 20
41.254131
 30
0.0
 10
30.822344
 20
39.887713
 30
0.0
 10
32.462493
 20
38.384778
 30
0.0
 10
33.858838
 20
36.732084
 30
0.0
 10
35.024116
 20
34.916394
 30
0.0
 10
35.998985
 20
32.842506
 30
0.0
 10
36.712237
 20
30.545643
 30
0.0
 10
37.159305
 20
31.684170
 30
0.0
 10
37.649602
 20
34.343731
 30
0.0
 10
37.769749
 20
37.032733
 30
0.0
 10
37.564274
 20
40.170496
 30
0.0
 10
37.399412
 20
41.147301
 30
0.0
 10
49.442940
 20
41.179266
 30
0.0
 10
49.306068
 20
38.910002
 30
0.0
 10
49.094003
 20
36.525438
 30
0.0
 10
48.835378
 20
34.826449
 30
0.0
 10
48.531616
 20
33.330926
 30
0.0
 10
48.139531
 20
31.854404
 30
0.0
 10
47.615929
 20
30.212426
 30
0.0
 10
46.927558
 20
28.387326
 30
0.0
 10
46.098895
 20
26.549461
 30
0.0
 10
45.152429
 20
24.734490
 30
0.0
 10
44.110650
 20
22.978069
 30
0.0
 10
42.996050
 20
21.315848
 30
0.0
 10
41.831119
 20
19.783486
 30
0.0
 10
40.638349
 20
18.416638
 30
0.0
 10
39.440223
 20
17.250956
 30
0.0
 10
38.025392
 20
16.126681
 30
0.0
 10
36.436142
 20
15.076414
 30
0.0
 10
34.785529
 20
14.168488
 30
0.0
 10
33.186596
 20
13.471230
 30
0.0
 10
32.205490
 20
13.107530
 30
0.0
 10
32.082080
 20
12.513086
 30
0.0
 10
31.935965
 20
12.027381
 30
0.0
 10
31.708062
 20
11.714199
 30
0.0
 10
31.349185
 20
11.532053
 30
0.0
 10
30.810138
 20
11.439428
 30
0.0
 10
30.159108
 20
11.431808
 30
0.0
 10
29.641382
 20
11.614462
 30
0.0
 10
29.164774
 20
11.855734
 30
0.0
 10
28.873261
 20
11.564508
 30
0.0
 10
28.486233
 20
11.319991
 30
0.0
 10
27.694519
 20
11.273283
 30
0.0
 10
26.940983
 20
11.315306
 30
0.0
 10
26.578621
 20
11.480293
 30
0.0
 10
26.332791
 20
11.623832
 30
0.0
 10
25.994076
 20
11.423934
 30
0.0
 10
25.508239
 20
11.202050
 30
0.0
 10
24.548164
 20
11.131551
 30
0.0
 10
23.614314
 20
11.149049
 30
0.0
 10
23.063568
 20
11.280198
 30
0.0
 10
22.664918
 20
11.398703
 30
0.0
  0
LWPOLYLINE
  5
105
100
AcDbEntity
  8
0
 62
7
100
AcDbPolyline
 90
11
 70
0
 10
25.877860
 20
13.325152
 30
0.0
 10
25.368593
 20
15.394735
 30
0.0
 10
24.339170
 20
15.806901
 30
0.0
 10
23.298490
 20
15.565779
 30
0.0
 10
23.094308
 20
13.702342
 30
0.0
 10
23.096001
 20
12.749588
 30
0.0
 10
23.122389
 20
12.241814
 30
0.0
 10
23.193653
 20
12.031530
 30
0.0
 10
25.387124
 20
11.979686
 30
0.0
 10
25.877950
 20
13.325152
 30
0.0
 10
25.877953
 20
13.325152
 30
0.0
  0
LWPOLYLINE
  5
106
100
AcDbEntity
  8
0
 62
7
100
AcDbPolyline
 90
10
 70
0
 10
22.176089
 20
12.192425
 30
0.0
 10
22.287166
 20
15.103869
 30
0.0
 10
22.174461
 20
15.586621
 30
0.0
 10
21.899261
 20
15.776938
 30
0.0
 10
20.852863
 20
15.511530
 30
0.0
 10
19.995648
 20
14.894827
 30
0.0
 10
19.574795
 20
12.771065
 30
0.0
 10
19.794166
 20
12.355747
 30
0.0
 10
20.668219
 20
12.128558
 30
0.0
 10
22.176089
 20
12.192425
 30
0.0
  0
LWPOLYLINE
  5
107
100
AcDbEntity
  8
0
 62
7
100
AcDbPolyline
 90
12
 70
0
 10
28.361987
 20
12.231625
 30
0.0
 10
28.546654
 20
12.598542
 30
0.0
 10
28.587452
 20
13.464344
 30
0.0
 10
28.482770
 20
14.746931
 30
0.0
 10
27.678737
 20
15.239471
 30
0.0
 10
26.735423
 20
15.098235
 30
0.0
 10
26.595912
 20
14.734428
 30
0.0
 10
26.558270
 20
13.865523
 30
0.0
 10
26.659062
 20
12.601675
 30
0.0
 10
27.035744
 20
12.122998
 30
0.0
 10
27.780433
 20
12.017249
 30
0.0
 10
28.361987
 20
12.231625
 30
0.0
  0
LWPOLYLINE
  5
108
100
AcDbEntity
  8
0
 62
7
100
AcDbPolyline
 90
12
 70
0
 10
18.708621
 20
12.488871
 30
0.0
 10
18.986653
 20
13.594956
 30
0.0
 10
18.981175
 20
14.300173
 30
0.0
 10
18.776274
 20
14.659047
 30
0.0
 10
17.771185
 20
15.120963
 30
0.0
 10
17.271091
 20
15.051770
 30
0.0
 10
16.913040
 20
14.773827
 30
0.0
 10
16.736127
 20
12.768835
 30
0.0
 10
17.219777
 20
12.308136
 30
0.0
 10
18.035706
 20
12.153534
 30
0.0
 10
18.708619
 20
12.488871
 30
0.0
 10
18.708621
 20
12.488871
 30
0.0
  0
LWPOLYLINE
  5
109
100
AcDbEntity
  8
0
 62
7
100
AcDbPolyline
 90
12
 70
0
 10
31.084718
 20
12.230073
 30
0.0
 10
31.348547
 20
12.474026
 30
0.0
 10
31.491747
 20
13.078433
 30
0.0
 10
31.338799
 20
14.635284
 30
0.0
 10
31.058584
 20
15.162656
 30
0.0
 10
29.631296
 20
14.642960
 30
0.0
 10
29.366893
 20
14.304322
 30
0.0
 10
29.320213
 20
13.543056
 30
0.0
 10
29.505024
 20
12.506086
 30
0.0
 10
30.047791
 20
12.238878
 30
0.0
 10
30.673000
 20
12.182773
 30
0.0
 10
31.084718
 20
12.230073
 30
0.0
  0
LWPOLYLINE
  5
10a
100
AcDbEntity
  8
0
 62
7
100
AcDbPolyline
 90
9
 70
0
 10
14.991407
 20
15.020565
 30
0.0
 10
14.089990
 20
14.922826
 30
0.0
 10
13.891555
 20
14.257670
 30
0.0
 10
14.152868
 20
13.334522
 30
0.0
 10
14.834058
 20
12.707508
 30
0.0
 10
15.588456
 20
12.496576
 30
0.0
 10
15.924149
 20
13.020747
 30
0.0
 10
15.924713
 20
14.760195
 30
0.0
 10
14.991408
 20
15.020565
 30
0.0
  0
LWPOLYLINE
  5
10b
100
AcDbEntity
  8
0
 62
7
100
AcDbPolyline
 90
19
 70
0
 10
23.232667
 20
19.728317
 30
0.0
 10
23.713927
 20
18.659084
 30
0.0
 10
24.191992
 20
19.350365
 30
0.0
 10
24.950354
 20
22.938024
 30
0.0
 10
24.291322
 20
27.426346
 30
0.0
 10
23.963442
 20
29.613540
 30
0.0
 10
23.637716
 20
30.789768
 30
0.0
 10
23.474075
 20
30.724392
 30
0.0
 10
23.200328
 20
26.661357
 30
0.0
 10
23.066896
 20
25.477666
 30
0.0
 10
22.600298
 20
27.112286
 30
0.0
 10
22.309852
 20
29.787815
 30
0.0
 10
21.936872
 20
28.117130
 30
0.0
 10
21.598962
 20
25.637017
 30
0.0
 10
21.301704
 20
23.738477
 30
0.0
 10
21.303793
 20
22.102624
 30
0.0
 10
22.306318
 20
18.624012
 30
0.0
 10
22.727769
 20
18.102821
 30
0.0
 10
23.232670
 20
19.728317
 30
0.0
  0
LWPOLYLINE
  5
10c
100
AcDbEntity
  8
0
 62
7
100
AcDbPolyline
 90
15
 70
0
 10
10.663008
 20
18.947295
 30
0.0
 10
10.119308
 20
20.380651
 30
0.0
 10
9.852969
 20
21.773666
 30
0.0
 10
9.817369
 20
24.293972
 30
0.0
 10
9.838793
 20
25.917286
 30
0.0
 10
9.099418
 20
28.232341
 30
0.0
 10
8.622690
 20
28.690535
 30
0.0
 10
8.431532
 20
28.498578
 30
0.0
 10
8.774740
 20
27.407493
 30
0.0
 10
9.141120
 20
26.379521
 30
0.0
 10
9.117992
 20
24.181239
 30
0.0
 10
9.263345
 20
21.095410
 30
0.0
 10
9.987294
 20
19.237315
 30
0.0
 10
10.471151
 20
18.680403
 30
0.0
 10
10.663006
 20
18.947295
 30
0.0
  0
LWPOLYLINE
  5
10d
100
AcDbEntity
  8
0
 62
7
100
AcDbPolyline
 90
16
 70
0
 10
35.361084
 20
19.199986
 30
0.0
 10
36.353084
 20
22.344074
 30
0.0
 10
36.402061
 20
22.908352
 30
0.0
 10
36.374996
 20
23.104713
 30
0.0
 10
36.260035
 20
23.366150
 30
0.0
 10
36.075679
 20
25.252196
 30
0.0
 10
35.896838
 20
27.407646
 30
0.0
 10
36.172939
 20
28.746900
 30
0.0
 10
36.270421
 20
29.338745
 30
0.0
 10
35.706806
 20
29.239875
 30
0.0
 10
35.266895
 20
27.443259
 30
0.0
 10
35.334375
 20
25.308564
 30
0.0
 10
35.654395
 20
21.757495
 30
0.0
 10
34.784067
 20
19.429980
 30
0.0
 10
34.656505
 20
18.770085
 30
0.0
 10
35.361081
 20
19.199986
 30
0.0
  0
LWPOLYLINE
  5
10e
100
AcDbEntity
  8
0
 62
7
100
AcDbPolyline
 90
22
 70
0
 10
19.731796
 20
23.659543
 30
0.0
 10
20.182828
 20
24.099801
 30
0.0
 10
20.805050
 20
26.604991
 30
0.0
 10
21.082566
 20
28.803271
 30
0.0
 10
21.142436
 20
30.477566
 30
0.0
 10
20.602861
 20
31.847046
 30
0.0
 10
19.824510
 20
33.069616
 30
0.0
 10
19.132738
 20
33.310126
 30
0.0
 10
17.610286
 20
33.082762
 30
0.0
 10
16.139334
 20
32.651436
 30
0.0
 10
14.777739
 20
32.130643
 30
0.0
 10
13.066096
 20
31.438095
 30
0.0
 10
12.330774
 20
31.014956
 30
0.0
 10
11.938773
 20
30.408142
 30
0.0
 10
11.648842
 20
28.378276
 30
0.0
 10
11.838257
 20
26.667015
 30
0.0
 10
12.629680
 20
25.731906
 30
0.0
 10
13.770974
 20
25.104134
 30
0.0
 10
15.285034
 20
24.685000
 30
0.0
 10
16.555751
 20
24.112933
 30
0.0
 10
18.387348
 20
23.398727
 30
0.0
 10
19.731796
 20
23.659543
 30
0.0
  0
LWPOLYLINE
  5
10f
100
AcDbEntity
  8
0
 62
7
100
AcDbPolyline
 90
23
 70
0
 10
28.812916
 20
24.262519
 30
0.0
 10
29.940242
 20
24.810453
 30
0.0
 10
31.542186
 20
25.649441
 30
0.0
 10
33.478670
 20
26.600665
 30
0.0
 10
34.137848
 20
27.514323
 30
0.0
 10
34.408339
 20
29.141469
 30
0.0
 10
34.407210
 20
30.092643
 30
0.0
 10
34.003731
 20
31.001551
 30
0.0
 10
32.584901
 20
32.796230
 30
0.0
 10
30.515329
 20
33.547554
 30
0.0
 10
28.889435
 20
33.627725
 30
0.0
 10
27.524096
 20
33.368433
 30
0.0
 10
26.411528
 20
32.766972
 30
0.0
 10
25.543943
 20
31.820639
 30
0.0
 10
24.976267
 20
30.705821
 30
0.0
 10
24.952532
 20
29.474723
 30
0.0
 10
25.376044
 20
27.901413
 30
0.0
 10
26.162442
 20
25.815864
 30
0.0
 10
26.726708
 20
24.461974
 30
0.0
 10
27.115653
 20
24.024459
 30
0.0
 10
27.801856
 20
24.034308
 30
0.0
 10
28.812905
 20
24.262522
 30
0.0
 10
28.812913
 20
24.262527
 30
0.0
  0
ENDSEC
  0
SECTION
  2
OBJECTS
  0
DICTIONARY
  5
C
330
0
100
AcDbDictionary
  3
ACAD_GROUP
350
D
  3
ACAD_MLINESTYLE
350
17
  0
DICTIONARY
  5
D
330
C
100
AcDbDictionary
  0
DICTIONARY
  5
1A
330
C
100
AcDbDictionary
  0
DICTIONARY
  5
17
330
C
100
AcDbDictionary
  3
STANDARD
350
18
  0
DICTIONARY
  5
19
330
C
100
AcDbDictionary
  0
ENDSEC
  0
EOF
