  0
SECTION
  2
HEADER
  9
$ACADVER
  1
AC1014
  9
$HANDSEED
  5
FFFF
  9
$MEASUREMENT
 70
     1
  0
ENDSEC
  0
SECTION
  2
TABLES
  0
TABLE
  2
VPORT
  5
8
330
0
100
AcDbSymbolTable
 70
     4
  0
VPORT
  5
2E
330
8
100
AcDbSymbolTableRecord
100
AcDbViewportTableRecord
  2
*ACTIVE
 70
     0
 10
0.0
 20
0.0
 11
1.0
 21
1.0
 12
210.0
 22
148.5
 13
0.0
 23
0.0
 14
10.0
 24
10.0
 15
10.0
 25
10.0
 16
0.0
 26
0.0
 36
1.0
 17
0.0
 27
0.0
 37
0.0
 40
341.0
 41
1.24
 42
50.0
 43
0.0
 44
0.0
 50
0.0
 51
0.0
 71
     0
 72
   100
 73
     1
 74
     3
 75
     0
 76
     0
 77
     0
 78
     0
  0
ENDTAB
  0
TABLE
  2
LTYPE
  5
5
330
0
100
AcDbSymbolTable
 70
     1
  0
LTYPE
  5
14
330
5
100
AcDbSymbolTableRecord
100
AcDbLinetypeTableRecord
  2
BYBLOCK
 70
     0
  3

 72
    65
 73
     0
 40
0.0
  0
LTYPE
  5
15
330
5
100
AcDbSymbolTableRecord
100
AcDbLinetypeTableRecord
  2
BYLAYER
 70
     0
  3

 72
    65
 73
     0
 40
0.0
  0
LTYPE
  5
16
330
5
100
AcDbSymbolTableRecord
100
AcDbLinetypeTableRecord
  2
CONTINUOUS
 70
     0
  3
Solid line
 72
    65
 73
     0
 40
0.0
  0
ENDTAB
  0
TABLE
  2
LAYER
  5
2
100
AcDbSymbolTable
 70
1
  0
LAYER
  5
50
100
AcDbSymbolTableRecord
100
AcDbLayerTableRecord
  2
0
 70
0
  6
CONTINUOUS
  0
ENDTAB
  0
TABLE
  2
STYLE
  5
3
330
0
100
AcDbSymbolTable
 70
     1
  0
STYLE
  5
11
330
3
100
AcDbSymbolTableRecord
100
AcDbTextStyleTableRecord
  2
STANDARD
 70
     0
 40
0.0
 41
1.0
 50
0.0
 71
     0
 42
2.5
  3
txt
  4

  0
ENDTAB
  0
TABLE
  2
VIEW
  5
6
330
0
100
AcDbSymbolTable
 70
     0
  0
ENDTAB
  0
TABLE
  2
UCS
  5
7
330
0
100
AcDbSymbolTable
 70
     0
  0
ENDTAB
  0
TABLE
  2
APPID
  5
9
330
0
100
AcDbSymbolTable
 70
     2
  0
APPID
  5
12
330
9
100
AcDbSymbolTableRecord
100
AcDbRegAppTableRecord
  2
ACAD
 70
     0
  0
ENDTAB
  0
TABLE
  2
DIMSTYLE
  5
A
330
0
100
AcDbSymbolTable
 70
     1
  0
DIMSTYLE
105
27
330
A
100
AcDbSymbolTableRecord
100
AcDbDimStyleTableRecord
  2
ISO-25
 70
     0
  3

  4

  5

  6

  7

 40
1.0
 41
2.5
 42
0.625
 43
3.75
 44
1.25
 45
0.0
 46
0.0
 47
0.0
 48
0.0
140
2.5
141
2.5
142
0.0
143
0.03937007874016
144
1.0
145
0.0
146
1.0
147
0.625
 71
     0
 72
     0
 73
     0
 74
     0
 75
     0
 76
     0
 77
     1
 78
     8
170
     0
171
     3
172
     1
173
     0
174
     0
175
     0
176
     0
177
     0
178
     0
270
     2
271
     2
272
     2
273
     2
274
     3
340
11
275
     0
280
     0
281
     0
282
     0
283
     0
284
     8
285
     0
286
     0
287
     3
288
     0
  0
ENDTAB
  0
TABLE
  2
BLOCK_RECORD
  5
1
330
0
100
AcDbSymbolTable
 70
     1
  0
BLOCK_RECORD
  5
1F
330
1
100
AcDbSymbolTableRecord
100
AcDbBlockTableRecord
  2
*MODEL_SPACE
  0
BLOCK_RECORD
  5
1B
330
1
100
AcDbSymbolTableRecord
100
AcDbBlockTableRecord
  2
*PAPER_SPACE
  0
ENDTAB
  0
ENDSEC
  0
SECTION
  2
BLOCKS
  0
BLOCK
  5
20
330
1F
100
AcDbEntity
  8
0
100
AcDbBlockBegin
  2
*MODEL_SPACE
 70
     0
 10
0.0
 20
0.0
 30
0.0
  3
*MODEL_SPACE
  1

  0
ENDBLK
  5
21
330
1F
100
AcDbEntity
  8
0
100
AcDbBlockEnd
  0
BLOCK
  5
1C
330
1B
100
AcDbEntity
 67
     1
  8
0
100
AcDbBlockBegin
  2
*PAPER_SPACE
  1

  0
ENDBLK
  5
1D
330
1B
100
AcDbEntity
 67
     1
  8
0
100
AcDbBlockEnd
  0
ENDSEC
  0
SECTION
  2
ENTITIES
  0
LWPOLYLINE
  5
100
100
AcDbEntity
  8
0
 62
7
100
AcDbPolyline
 90
33
 70
0
 10
19.949212
 20
49.728426
 30
0.0
 10
15.256279
 20
48.271728
 30
0.0
 10
11.009555
 20
45.966757
 30
0.0
 10
7.309558
 20
42.914038
 30
0.0
 10
4.256807
 20
39.214088
 30
0.0
 10
1.951819
 20
34.967448
 30
0.0
 10
0.495113
 20
30.274617
 30
0.0
 10
-0.012793
 20
25.236126
 30
0.0
 10
0.495113
 20
20.197796
 30
0.0
 10
1.951819
 20
15.505107
 30
0.0
 10
4.256807
 20
11.258580
 30
0.0
 10
7.309558
 20
7.558731
 30
0.0
 10
11.009555
 20
4.506018
 30
0.0
 10
15.256279
 20
2.201024
 30
0.0
 10
19.949212
 20
0.744221
 30
0.0
 10
24.987837
 20
0.236137
 30
0.0
 10
30.026046
 20
0.744024
 30
0.0
 10
34.718667
 20
2.200770
 30
0.0
 10
38.965166
 20
4.505736
 30
0.0
 10
42.665012
 20
7.558477
 30
0.0
 10
45.717674
 20
11.258410
 30
0.0
 10
48.022614
 20
15.505016
 30
0.0
 10
49.479302
 20
20.197768
 30
0.0
 10
49.987206
 20
25.236126
 30
0.0
 10
49.479302
 20
30.274617
 30
0.0
 10
48.022614
 20
34.967448
 30
0.0
 10
45.717674
 20
39.214088
 30
0.0
 10
42.665012
 20
42.914038
 30
0.0
 10
38.965166
 20
45.966757
 30
0.0
 10
34.718667
 20
48.271728
 30
0.0
 10
30.026046
 20
49.728426
 30
0.0
 10
24.987837
 20
50.236336
 30
0.0
 10
19.949212
 20
49.728426
 30
0.0
  0
LWPOLYLINE
  5
101
100
AcDbEntity
  8
0
 62
7
100
AcDbPolyline
 90
33
 70
0
 10
20.669350
 20
4.243156
 30
0.0
 10
16.647026
 20
5.491735
 30
0.0
 10
13.007054
 20
7.467432
 30
0.0
 10
9.835623
 20
10.084027
 30
0.0
 10
7.218921
 20
13.255330
 30
0.0
 10
5.243139
 20
16.895206
 30
0.0
 10
3.994464
 20
20.917457
 30
0.0
 10
3.559086
 20
25.235917
 30
0.0
 10
3.994464
 20
29.554645
 30
0.0
 10
5.243139
 20
33.577088
 30
0.0
 10
7.218921
 20
37.217066
 30
0.0
 10
9.835623
 20
40.388448
 30
0.0
 10
13.007054
 20
43.005057
 30
0.0
 10
16.647026
 20
44.980737
 30
0.0
 10
20.669350
 20
46.229328
 30
0.0
 10
24.987837
 20
46.664667
 30
0.0
 10
29.306607
 20
46.229316
 30
0.0
 10
33.329025
 20
44.980706
 30
0.0
 10
36.968949
 20
43.004998
 30
0.0
 10
40.140235
 20
40.388366
 30
0.0
 10
42.756743
 20
37.216976
 30
0.0
 10
44.732329
 20
33.576998
 30
0.0
 10
45.980850
 20
29.554586
 30
0.0
 10
46.416169
 20
25.235917
 30
0.0
 10
45.980793
 20
20.917398
 30
0.0
 10
44.732242
 20
16.895116
 30
0.0
 10
42.756650
 20
13.255245
 30
0.0
 10
40.140156
 20
10.083942
 30
0.0
 10
36.968893
 20
7.467376
 30
0.0
 10
33.328997
 20
5.491707
 30
0.0
 10
29.306599
 20
4.243128
 30
0.0
 10
24.987837
 20
3.807800
 30
0.0
 10
20.669350
 20
4.243156
 30
0.0
  0
LWPOLYLINE
  5
102
100
AcDbEntity
  8
0
 62
7
100
AcDbPolyline
 90
44
 70
0
 10
22.601621
 20
40.254136
 30
0.0
 10
19.116355
 20
39.899577
 30
0.0
 10
17.721028
 20
39.634966
 30
0.0
 10
17.721028
 20
42.970818
 30
0.0
 10
15.556062
 20
42.970818
 30
0.0
 10
15.556062
 20
39.023698
 30
0.0
 10
13.348679
 20
37.932596
 30
0.0
 10
15.556062
 20
37.905107
 30
0.0
 10
15.556062
 20
17.379937
 30
0.0
 10
14.949042
 20
15.838708
 30
0.0
 10
14.722833
 20
13.990519
 30
0.0
 10
15.002641
 20
11.327780
 30
0.0
 10
15.618218
 20
9.082533
 30
0.0
 10
16.513602
 20
6.953646
 30
0.0
 10
16.060832
 20
9.325329
 30
0.0
 10
15.981912
 20
10.492544
 30
0.0
 10
16.091553
 20
12.158784
 30
0.0
 10
16.431606
 20
13.630290
 30
0.0
 10
17.054679
 20
14.919569
 30
0.0
 10
18.013379
 20
16.039167
 30
0.0
 10
19.360311
 20
17.001587
 30
0.0
 10
21.148083
 20
17.819349
 30
0.0
 10
23.429302
 20
18.504968
 30
0.0
 10
26.256575
 20
19.070959
 30
0.0
 10
28.919833
 20
19.464388
 30
0.0
 10
31.202881
 20
19.888548
 30
0.0
 10
33.639548
 20
20.541808
 30
0.0
 10
36.013477
 20
21.509540
 30
0.0
 10
38.108314
 20
22.877118
 30
0.0
 10
38.983460
 20
23.737529
 30
0.0
 10
39.707699
 20
24.729910
 30
0.0
 10
40.253985
 20
25.864937
 30
0.0
 10
40.595271
 20
27.153287
 30
0.0
 10
40.704519
 20
28.605628
 30
0.0
 10
40.530839
 20
30.530409
 30
0.0
 10
39.994510
 20
32.523299
 30
0.0
 10
39.565546
 20
33.513997
 30
0.0
 10
38.336412
 20
35.421368
 30
0.0
 10
36.546183
 20
37.146618
 30
0.0
 10
34.115474
 20
38.589657
 30
0.0
 10
30.964911
 20
39.650378
 30
0.0
 10
27.015112
 20
40.228699
 30
0.0
 10
24.715694
 20
40.305647
 30
0.0
 10
22.601621
 20
40.254136
 30
0.0
  0
LWPOLYLINE
  5
103
100
AcDbEntity
  8
0
 62
7
100
AcDbPolyline
 90
14
 70
0
 10
17.721028
 20
19.886497
 30
0.0
 10
17.721028
 20
37.588818
 30
0.0
 10
20.191258
 20
36.781197
 30
0.0
 10
22.472798
 20
35.278987
 30
0.0
 10
23.412279
 20
34.202137
 30
0.0
 10
24.147958
 20
32.873297
 30
0.0
 10
24.627621
 20
31.266366
 30
0.0
 10
24.778399
 20
28.485466
 30
0.0
 10
24.485226
 20
26.601466
 30
0.0
 10
23.573263
 20
24.605077
 30
0.0
 10
22.779109
 20
23.594837
 30
0.0
 10
21.702902
 20
22.592638
 30
0.0
 10
20.302193
 20
21.610488
 30
0.0
 10
17.721028
 20
19.886497
 30
0.0
  0
ENDSEC
  0
SECTION
  2
OBJECTS
  0
DICTIONARY
  5
C
330
0
100
AcDbDictionary
  3
ACAD_GROUP
350
D
  3
ACAD_MLINESTYLE
350
17
  0
DICTIONARY
  5
D
330
C
100
AcDbDictionary
  0
DICTIONARY
  5
1A
330
C
100
AcDbDictionary
  0
DICTIONARY
  5
17
330
C
100
AcDbDictionary
  3
STANDARD
350
18
  0
DICTIONARY
  5
19
330
C
100
AcDbDictionary
  0
ENDSEC
  0
EOF
