  0
SECTION
  2
HEADER
  9
$ACADVER
  1
AC1014
  9
$HANDSEED
  5
FFFF
  9
$MEASUREMENT
 70
     1
  0
ENDSEC
  0
SECTION
  2
TABLES
  0
TABLE
  2
VPORT
  5
8
330
0
100
AcDbSymbolTable
 70
     4
  0
VPORT
  5
2E
330
8
100
AcDbSymbolTableRecord
100
AcDbViewportTableRecord
  2
*ACTIVE
 70
     0
 10
0.0
 20
0.0
 11
1.0
 21
1.0
 12
210.0
 22
148.5
 13
0.0
 23
0.0
 14
10.0
 24
10.0
 15
10.0
 25
10.0
 16
0.0
 26
0.0
 36
1.0
 17
0.0
 27
0.0
 37
0.0
 40
341.0
 41
1.24
 42
50.0
 43
0.0
 44
0.0
 50
0.0
 51
0.0
 71
     0
 72
   100
 73
     1
 74
     3
 75
     0
 76
     0
 77
     0
 78
     0
  0
ENDTAB
  0
TABLE
  2
LTYPE
  5
5
330
0
100
AcDbSymbolTable
 70
     1
  0
LTYPE
  5
14
330
5
100
AcDbSymbolTableRecord
100
AcDbLinetypeTableRecord
  2
BYBLOCK
 70
     0
  3

 72
    65
 73
     0
 40
0.0
  0
LTYPE
  5
15
330
5
100
AcDbSymbolTableRecord
100
AcDbLinetypeTableRecord
  2
BYLAYER
 70
     0
  3

 72
    65
 73
     0
 40
0.0
  0
LTYPE
  5
16
330
5
100
AcDbSymbolTableRecord
100
AcDbLinetypeTableRecord
  2
CONTINUOUS
 70
     0
  3
Solid line
 72
    65
 73
     0
 40
0.0
  0
ENDTAB
  0
TABLE
  2
LAYER
  5
2
100
AcDbSymbolTable
 70
2
  0
LAYER
  5
50
100
AcDbSymbolTableRecord
100
AcDbLayerTableRecord
  2
0
 70
0
  6
CONTINUOUS
  0
LAYER
  5
51
100
AcDbSymbolTableRecord
100
AcDbLayerTableRecord
  2
Layer_1
 70
0
  6
CONTINUOUS
  0
ENDTAB
  0
TABLE
  2
STYLE
  5
3
330
0
100
AcDbSymbolTable
 70
     1
  0
STYLE
  5
11
330
3
100
AcDbSymbolTableRecord
100
AcDbTextStyleTableRecord
  2
STANDARD
 70
     0
 40
0.0
 41
1.0
 50
0.0
 71
     0
 42
2.5
  3
txt
  4

  0
ENDTAB
  0
TABLE
  2
VIEW
  5
6
330
0
100
AcDbSymbolTable
 70
     0
  0
ENDTAB
  0
TABLE
  2
UCS
  5
7
330
0
100
AcDbSymbolTable
 70
     0
  0
ENDTAB
  0
TABLE
  2
APPID
  5
9
330
0
100
AcDbSymbolTable
 70
     2
  0
APPID
  5
12
330
9
100
AcDbSymbolTableRecord
100
AcDbRegAppTableRecord
  2
ACAD
 70
     0
  0
ENDTAB
  0
TABLE
  2
DIMSTYLE
  5
A
330
0
100
AcDbSymbolTable
 70
     1
  0
DIMSTYLE
105
27
330
A
100
AcDbSymbolTableRecord
100
AcDbDimStyleTableRecord
  2
ISO-25
 70
     0
  3

  4

  5

  6

  7

 40
1.0
 41
2.5
 42
0.625
 43
3.75
 44
1.25
 45
0.0
 46
0.0
 47
0.0
 48
0.0
140
2.5
141
2.5
142
0.0
143
0.03937007874016
144
1.0
145
0.0
146
1.0
147
0.625
 71
     0
 72
     0
 73
     0
 74
     0
 75
     0
 76
     0
 77
     1
 78
     8
170
     0
171
     3
172
     1
173
     0
174
     0
175
     0
176
     0
177
     0
178
     0
270
     2
271
     2
272
     2
273
     2
274
     3
340
11
275
     0
280
     0
281
     0
282
     0
283
     0
284
     8
285
     0
286
     0
287
     3
288
     0
  0
ENDTAB
  0
TABLE
  2
BLOCK_RECORD
  5
1
330
0
100
AcDbSymbolTable
 70
     1
  0
BLOCK_RECORD
  5
1F
330
1
100
AcDbSymbolTableRecord
100
AcDbBlockTableRecord
  2
*MODEL_SPACE
  0
BLOCK_RECORD
  5
1B
330
1
100
AcDbSymbolTableRecord
100
AcDbBlockTableRecord
  2
*PAPER_SPACE
  0
ENDTAB
  0
ENDSEC
  0
SECTION
  2
BLOCKS
  0
BLOCK
  5
20
330
1F
100
AcDbEntity
  8
0
100
AcDbBlockBegin
  2
*MODEL_SPACE
 70
     0
 10
0.0
 20
0.0
 30
0.0
  3
*MODEL_SPACE
  1

  0
ENDBLK
  5
21
330
1F
100
AcDbEntity
  8
0
100
AcDbBlockEnd
  0
BLOCK
  5
1C
330
1B
100
AcDbEntity
 67
     1
  8
0
100
AcDbBlockBegin
  2
*PAPER_SPACE
  1

  0
ENDBLK
  5
1D
330
1B
100
AcDbEntity
 67
     1
  8
0
100
AcDbBlockEnd
  0
ENDSEC
  0
SECTION
  2
ENTITIES
  0
LWPOLYLINE
  5
100
100
AcDbEntity
  8
Layer_1
 62
7
100
AcDbPolyline
 90
210
 70
1
 10
23.513810
 20
50.000000
 30
0.0
 10
22.703216
 20
49.966583
 30
0.0
 10
21.894161
 20
49.869929
 30
0.0
 10
21.090736
 20
49.708098
 30
0.0
 10
20.297032
 20
49.479150
 30
0.0
 10
19.517138
 20
49.181143
 30
0.0
 10
18.755148
 20
48.812137
 30
0.0
 10
18.015151
 20
48.370192
 30
0.0
 10
17.301238
 20
47.853367
 30
0.0
 10
16.617500
 20
47.259722
 30
0.0
 10
15.968028
 20
46.587315
 30
0.0
 10
15.356914
 20
45.834207
 30
0.0
 10
14.788247
 20
44.998457
 30
0.0
 10
14.266119
 20
44.078125
 30
0.0
 10
13.794621
 20
43.071269
 30
0.0
 10
13.377843
 20
41.975950
 30
0.0
 10
13.019877
 20
40.790226
 30
0.0
 10
12.668627
 20
38.748188
 30
0.0
 10
12.556631
 20
36.682952
 30
0.0
 10
12.464524
 20
34.361843
 30
0.0
 10
12.172940
 20
31.552182
 30
0.0
 10
11.462513
 20
28.021293
 30
0.0
 10
10.113879
 20
23.536500
 30
0.0
 10
7.907671
 20
17.865122
 30
0.0
 10
4.624524
 20
10.774487
 30
0.0
 10
4.660112
 20
10.519807
 30
0.0
 10
4.729387
 20
10.301909
 30
0.0
 10
4.829738
 20
10.118349
 30
0.0
 10
4.958553
 20
9.966685
 30
0.0
 10
5.113220
 20
9.844474
 30
0.0
 10
5.291129
 20
9.749269
 30
0.0
 10
5.489666
 20
9.678628
 30
0.0
 10
5.706221
 20
9.630106
 30
0.0
 10
5.938181
 20
9.601263
 30
0.0
 10
6.182935
 20
9.589648
 30
0.0
 10
6.437871
 20
9.592823
 30
0.0
 10
6.700378
 20
9.608354
 30
0.0
 10
6.967844
 20
9.633781
 30
0.0
 10
7.237656
 20
9.666666
 30
0.0
 10
7.507204
 20
9.704565
 30
0.0
 10
7.773875
 20
9.745035
 30
0.0
 10
8.035059
 20
9.785636
 30
0.0
 10
8.288143
 20
9.823918
 30
0.0
 10
8.530515
 20
9.857441
 30
0.0
 10
8.759564
 20
9.883767
 30
0.0
 10
8.972678
 20
9.900436
 30
0.0
 10
9.167245
 20
9.905013
 30
0.0
 10
9.340655
 20
9.895065
 30
0.0
 10
9.490294
 20
9.868135
 30
0.0
 10
9.613551
 20
9.821783
 30
0.0
 10
9.707815
 20
9.753568
 30
0.0
 10
9.770474
 20
9.661041
 30
0.0
 10
9.798916
 20
9.541764
 30
0.0
 10
9.790529
 20
9.393290
 30
0.0
 10
9.742702
 20
9.213175
 30
0.0
 10
9.652824
 20
8.998977
 30
0.0
 10
9.518281
 20
8.748252
 30
0.0
 10
9.087567
 20
7.810606
 30
0.0
 10
8.635210
 20
6.922841
 30
0.0
 10
8.140269
 20
6.075810
 30
0.0
 10
7.581800
 20
5.260366
 30
0.0
 10
6.938861
 20
4.467368
 30
0.0
 10
6.190509
 20
3.687673
 30
0.0
 10
5.315801
 20
2.912131
 30
0.0
 10
4.293794
 20
2.131602
 30
0.0
 10
5.449931
 20
1.756561
 30
0.0
 10
6.692272
 20
1.459132
 30
0.0
 10
8.000220
 20
1.233792
 30
0.0
 10
9.353181
 20
1.075021
 30
0.0
 10
10.730557
 20
0.977299
 30
0.0
 10
12.111755
 20
0.935109
 30
0.0
 10
13.476178
 20
0.942941
 30
0.0
 10
14.803230
 20
0.995249
 30
0.0
 10
14.883518
 20
0.927764
 30
0.0
 10
14.972472
 20
0.873300
 30
0.0
 10
15.068531
 20
0.832654
 30
0.0
 10
15.170133
 20
0.806619
 30
0.0
 10
15.731371
 20
0.711078
 30
0.0
 10
16.342218
 20
0.620041
 30
0.0
 10
16.984168
 20
0.541679
 30
0.0
 10
17.638716
 20
0.484158
 30
0.0
 10
18.286432
 20
0.453504
 30
0.0
 10
18.914585
 20
0.462156
 30
0.0
 10
19.514715
 20
0.527796
 30
0.0
 10
20.078360
 20
0.668136
 30
0.0
 10
20.558641
 20
0.729380
 30
0.0
 10
21.280302
 20
0.704853
 30
0.0
 10
22.147069
 20
0.614553
 30
0.0
 10
23.062674
 20
0.478483
 30
0.0
 10
24.773680
 20
0.242321
 30
0.0
 10
25.525573
 20
0.263515
 30
0.0
 10
26.285216
 20
0.643853
 30
0.0
 10
26.285480
 20
0.643752
 30
0.0
 10
26.285733
 20
0.643596
 30
0.0
 10
26.285986
 20
0.643438
 30
0.0
 10
26.286250
 20
0.643337
 30
0.0
 10
26.286379
 20
0.643337
 30
0.0
 10
26.286508
 20
0.643337
 30
0.0
 10
26.286637
 20
0.643337
 30
0.0
 10
26.286766
 20
0.643337
 30
0.0
 10
27.396344
 20
0.393785
 30
0.0
 10
28.530044
 20
0.148624
 30
0.0
 10
29.653666
 20
0.007030
 30
0.0
 10
30.733007
 20
0.068178
 30
0.0
 10
31.278721
 20
0.464611
 30
0.0
 10
31.714781
 20
0.738367
 30
0.0
 10
32.004897
 20
1.093280
 30
0.0
 10
32.112767
 20
1.733193
 30
0.0
 10
31.605400
 20
2.040252
 30
0.0
 10
30.808027
 20
2.308069
 30
0.0
 10
29.856871
 20
2.543728
 30
0.0
 10
29.854755
 20
2.754318
 30
0.0
 10
30.133176
 20
3.164319
 30
0.0
 10
30.443156
 20
3.711136
 30
0.0
 10
30.687735
 20
4.400566
 30
0.0
 10
30.836092
 20
5.238406
 30
0.0
 10
30.926902
 20
7.123766
 30
0.0
 10
30.990135
 20
8.906224
 30
0.0
 10
30.973545
 20
10.619703
 30
0.0
 10
30.907598
 20
12.298132
 30
0.0
 10
30.822730
 20
13.975437
 30
0.0
 10
30.749390
 20
15.685545
 30
0.0
 10
30.718027
 20
17.462381
 30
0.0
 10
30.759082
 20
19.339869
 30
0.0
 10
30.820214
 20
20.233587
 30
0.0
 10
30.922671
 20
21.232275
 30
0.0
 10
31.057916
 20
22.316212
 30
0.0
 10
31.217407
 20
23.465673
 30
0.0
 10
31.392598
 20
24.660939
 30
0.0
 10
31.574949
 20
25.882285
 30
0.0
 10
31.755921
 20
27.109991
 30
0.0
 10
31.926969
 20
28.324334
 30
0.0
 10
32.337282
 20
32.704945
 30
0.0
 10
32.267517
 20
34.407921
 30
0.0
 10
31.798813
 20
35.724399
 30
0.0
 10
31.244370
 20
36.404775
 30
0.0
 10
32.031569
 20
37.216814
 30
0.0
 10
32.974843
 20
37.572388
 30
0.0
 10
34.148360
 20
37.854990
 30
0.0
 10
35.464014
 20
38.072667
 30
0.0
 10
36.833690
 20
38.233471
 30
0.0
 10
38.169281
 20
38.345450
 30
0.0
 10
39.382678
 20
38.416653
 30
0.0
 10
40.385769
 20
38.455132
 30
0.0
 10
41.090447
 20
38.468935
 30
0.0
 10
44.865930
 20
38.531980
 30
0.0
 10
46.503883
 20
38.701425
 30
0.0
 10
48.064128
 20
38.967173
 30
0.0
 10
49.296901
 20
39.258591
 30
0.0
 10
49.952441
 20
39.505047
 30
0.0
 10
49.997915
 20
39.607367
 30
0.0
 10
49.952441
 20
39.607366
 30
0.0
 10
46.934019
 20
39.516932
 30
0.0
 10
43.608640
 20
39.479208
 30
0.0
 10
41.090447
 20
39.492643
 30
0.0
 10
40.256010
 20
39.503925
 30
0.0
 10
39.251170
 20
39.530420
 30
0.0
 10
38.145958
 20
39.571224
 30
0.0
 10
37.010403
 20
39.625433
 30
0.0
 10
35.914536
 20
39.692143
 30
0.0
 10
34.928381
 20
39.770452
 30
0.0
 10
34.121968
 20
39.859454
 30
0.0
 10
33.565327
 20
39.958248
 30
0.0
 10
33.624181
 20
40.239555
 30
0.0
 10
33.666779
 20
40.519858
 30
0.0
 10
33.695460
 20
40.799054
 30
0.0
 10
33.712605
 20
41.077043
 30
0.0
 10
34.342871
 20
40.820650
 30
0.0
 10
35.218235
 20
40.589030
 30
0.0
 10
36.257671
 20
40.384628
 30
0.0
 10
37.380156
 20
40.209888
 30
0.0
 10
38.504666
 20
40.067254
 30
0.0
 10
39.550178
 20
39.959173
 30
0.0
 10
40.435667
 20
39.888088
 30
0.0
 10
41.080113
 20
39.856445
 30
0.0
 10
43.594170
 20
39.800118
 30
0.0
 10
46.940737
 20
39.698315
 30
0.0
 10
47.987185
 20
39.672476
 30
0.0
 10
49.845986
 20
39.635269
 30
0.0
 10
50.004117
 20
39.635798
 30
0.0
 10
49.845986
 20
39.797545
 30
0.0
 10
47.985118
 20
40.112772
 30
0.0
 10
46.937636
 20
40.317410
 30
0.0
 10
43.586421
 20
40.829524
 30
0.0
 10
41.069262
 20
41.085322
 30
0.0
 10
40.386309
 20
41.152054
 30
0.0
 10
39.460815
 20
41.267672
 30
0.0
 10
38.377735
 20
41.427804
 30
0.0
 10
37.222027
 20
41.628076
 30
0.0
 10
36.078649
 20
41.864115
 30
0.0
 10
35.032553
 20
42.131548
 30
0.0
 10
34.168701
 20
42.426002
 30
0.0
 10
33.572045
 20
42.743102
 30
0.0
 10
33.571881
 20
42.743843
 30
0.0
 10
33.571748
 20
42.744584
 30
0.0
 10
33.571632
 20
42.745325
 30
0.0
 10
33.571526
 20
42.746092
 30
0.0
 10
33.571420
 20
42.746912
 30
0.0
 10
33.571307
 20
42.747785
 30
0.0
 10
33.571172
 20
42.748764
 30
0.0
 10
33.571010
 20
42.749823
 30
0.0
 10
33.065582
 20
44.255966
 30
0.0
 10
32.288284
 20
45.624635
 30
0.0
 10
31.275118
 20
46.838762
 30
0.0
 10
30.062135
 20
47.881264
 30
0.0
 10
28.685236
 20
48.735096
 30
0.0
 10
27.180471
 20
49.383176
 30
0.0
 10
25.583843
 20
49.808433
 30
0.0
 10
23.931356
 20
49.993799
 30
0.0
 10
23.931356
 20
49.993282
 30
0.0
  0
LWPOLYLINE
  5
101
100
AcDbEntity
  8
Layer_1
 62
7
100
AcDbPolyline
 90
16
 70
1
 10
27.814323
 20
43.108431
 30
0.0
 10
28.168602
 20
43.034888
 30
0.0
 10
28.457781
 20
42.837344
 30
0.0
 10
28.652221
 20
42.545900
 30
0.0
 10
28.722277
 20
42.190658
 30
0.0
 10
28.648051
 20
41.836380
 30
0.0
 10
28.450418
 20
41.547204
 30
0.0
 10
28.159270
 20
41.352766
 30
0.0
 10
27.804504
 20
41.282703
 30
0.0
 10
27.450161
 20
41.356272
 30
0.0
 10
27.160876
 20
41.553861
 30
0.0
 10
26.966415
 20
41.845314
 30
0.0
 10
26.896549
 20
42.200476
 30
0.0
 10
26.970487
 20
42.554819
 30
0.0
 10
27.168096
 20
42.844102
 30
0.0
 10
27.459376
 20
43.038562
 30
0.0
  0
LWPOLYLINE
  5
102
100
AcDbEntity
  8
Layer_1
 62
7
100
AcDbPolyline
 90
93
 70
1
 10
24.267252
 20
40.517375
 30
0.0
 10
24.857860
 20
40.439816
 30
0.0
 10
25.375093
 20
40.250423
 30
0.0
 10
25.790135
 20
39.941454
 30
0.0
 10
26.074174
 20
39.505171
 30
0.0
 10
26.198397
 20
38.933834
 30
0.0
 10
26.133991
 20
38.219703
 30
0.0
 10
25.852141
 20
37.355038
 30
0.0
 10
25.324035
 20
36.332101
 30
0.0
 10
25.226427
 20
35.775521
 30
0.0
 10
25.409579
 20
35.357309
 30
0.0
 10
25.799284
 20
35.060938
 30
0.0
 10
26.321338
 20
34.869884
 30
0.0
 10
26.901534
 20
34.767619
 30
0.0
 10
27.465668
 20
34.737620
 30
0.0
 10
27.939531
 20
34.763362
 30
0.0
 10
28.248922
 20
34.828317
 30
0.0
 10
29.401307
 20
35.338880
 30
0.0
 10
29.822468
 20
34.831934
 30
0.0
 10
30.014389
 20
34.171300
 30
0.0
 10
30.119092
 20
32.730254
 30
0.0
 10
29.722733
 20
28.511907
 30
0.0
 10
29.553259
 20
27.312792
 30
0.0
 10
29.372613
 20
26.095972
 30
0.0
 10
29.189526
 20
24.878931
 30
0.0
 10
29.012724
 20
23.679155
 30
0.0
 10
28.850936
 20
22.514126
 30
0.0
 10
28.712895
 20
21.401333
 30
0.0
 10
28.607326
 20
20.358259
 30
0.0
 10
28.542961
 20
19.402385
 30
0.0
 10
28.498805
 20
17.467847
 30
0.0
 10
28.527306
 20
15.655427
 30
0.0
 10
28.598516
 20
13.930561
 30
0.0
 10
28.682492
 20
12.258691
 30
0.0
 10
28.749281
 20
10.605257
 30
0.0
 10
28.768939
 20
8.935696
 30
0.0
 10
28.711525
 20
7.215449
 30
0.0
 10
28.547089
 20
5.409957
 30
0.0
 10
28.397051
 20
4.748451
 30
0.0
 10
28.157074
 20
4.214789
 30
0.0
 10
27.869356
 20
3.757814
 30
0.0
 10
27.576089
 20
3.326363
 30
0.0
 10
26.628860
 20
2.609096
 30
0.0
 10
25.308527
 20
1.645330
 30
0.0
 10
25.252200
 20
1.587968
 30
0.0
 10
25.308527
 20
1.645330
 30
0.0
 10
25.298708
 20
1.644272
 30
0.0
 10
24.865143
 20
1.638583
 30
0.0
 10
23.293146
 20
1.859240
 30
0.0
 10
22.366679
 20
2.019485
 30
0.0
 10
21.426690
 20
2.145221
 30
0.0
 10
20.503836
 20
2.161678
 30
0.0
 10
19.628770
 20
1.994109
 30
0.0
 10
19.291866
 20
1.917391
 30
0.0
 10
18.842703
 20
1.871472
 30
0.0
 10
18.312960
 20
1.858455
 30
0.0
 10
17.734312
 20
1.880441
 30
0.0
 10
17.650552
 20
1.888405
 30
0.0
 10
17.568047
 20
1.899571
 30
0.0
 10
17.485734
 20
1.912033
 30
0.0
 10
17.402550
 20
1.923860
 30
0.0
 10
18.252472
 20
2.741607
 30
0.0
 10
19.022904
 20
3.772929
 30
0.0
 10
19.717791
 20
4.995831
 30
0.0
 10
20.341078
 20
6.388314
 30
0.0
 10
20.896708
 20
7.928382
 30
0.0
 10
21.388627
 20
9.594038
 30
0.0
 10
21.820778
 20
11.363285
 30
0.0
 10
22.197105
 20
13.214128
 30
0.0
 10
22.521555
 20
15.124567
 30
0.0
 10
22.798069
 20
17.072607
 30
0.0
 10
23.030594
 20
19.036252
 30
0.0
 10
23.223074
 20
20.993502
 30
0.0
 10
23.379452
 20
22.922365
 30
0.0
 10
23.503673
 20
24.800838
 30
0.0
 10
23.599682
 20
26.606928
 30
0.0
 10
23.671423
 20
28.318637
 30
0.0
 10
23.654458
 20
29.940426
 30
0.0
 10
23.494841
 20
31.436116
 30
0.0
 10
23.214679
 20
32.786095
 30
0.0
 10
22.836086
 20
33.970749
 30
0.0
 10
22.381171
 20
34.970465
 30
0.0
 10
21.872046
 20
35.765632
 30
0.0
 10
21.330822
 20
36.336635
 30
0.0
 10
20.779610
 20
36.663863
 30
0.0
 10
20.402190
 20
37.459925
 30
0.0
 10
20.379595
 20
38.199068
 30
0.0
 10
20.650609
 20
38.864843
 30
0.0
 10
21.154017
 20
39.440796
 30
0.0
 10
21.828601
 20
39.910478
 30
0.0
 10
22.613146
 20
40.257436
 30
0.0
 10
23.446434
 20
40.465218
 30
0.0
 10
24.267251
 20
40.517375
 30
0.0
  0
ENDSEC
  0
SECTION
  2
OBJECTS
  0
DICTIONARY
  5
C
330
0
100
AcDbDictionary
  3
ACAD_GROUP
350
D
  3
ACAD_MLINESTYLE
350
17
  0
DICTIONARY
  5
D
330
C
100
AcDbDictionary
  0
DICTIONARY
  5
1A
330
C
100
AcDbDictionary
  0
DICTIONARY
  5
17
330
C
100
AcDbDictionary
  3
STANDARD
350
18
  0
DICTIONARY
  5
19
330
C
100
AcDbDictionary
  0
ENDSEC
  0
EOF
