  0
SECTION
  2
HEADER
  9
$ACADVER
  1
AC1014
  9
$HANDSEED
  5
FFFF
  9
$MEASUREMENT
 70
     1
  0
ENDSEC
  0
SECTION
  2
TABLES
  0
TABLE
  2
VPORT
  5
8
330
0
100
AcDbSymbolTable
 70
     4
  0
VPORT
  5
2E
330
8
100
AcDbSymbolTableRecord
100
AcDbViewportTableRecord
  2
*ACTIVE
 70
     0
 10
0.0
 20
0.0
 11
1.0
 21
1.0
 12
210.0
 22
148.5
 13
0.0
 23
0.0
 14
10.0
 24
10.0
 15
10.0
 25
10.0
 16
0.0
 26
0.0
 36
1.0
 17
0.0
 27
0.0
 37
0.0
 40
341.0
 41
1.24
 42
50.0
 43
0.0
 44
0.0
 50
0.0
 51
0.0
 71
     0
 72
   100
 73
     1
 74
     3
 75
     0
 76
     0
 77
     0
 78
     0
  0
ENDTAB
  0
TABLE
  2
LTYPE
  5
5
330
0
100
AcDbSymbolTable
 70
     1
  0
LTYPE
  5
14
330
5
100
AcDbSymbolTableRecord
100
AcDbLinetypeTableRecord
  2
BYBLOCK
 70
     0
  3

 72
    65
 73
     0
 40
0.0
  0
LTYPE
  5
15
330
5
100
AcDbSymbolTableRecord
100
AcDbLinetypeTableRecord
  2
BYLAYER
 70
     0
  3

 72
    65
 73
     0
 40
0.0
  0
LTYPE
  5
16
330
5
100
AcDbSymbolTableRecord
100
AcDbLinetypeTableRecord
  2
CONTINUOUS
 70
     0
  3
Solid line
 72
    65
 73
     0
 40
0.0
  0
ENDTAB
  0
TABLE
  2
LAYER
  5
2
100
AcDbSymbolTable
 70
1
  0
LAYER
  5
50
100
AcDbSymbolTableRecord
100
AcDbLayerTableRecord
  2
0
 70
0
  6
CONTINUOUS
  0
ENDTAB
  0
TABLE
  2
STYLE
  5
3
330
0
100
AcDbSymbolTable
 70
     1
  0
STYLE
  5
11
330
3
100
AcDbSymbolTableRecord
100
AcDbTextStyleTableRecord
  2
STANDARD
 70
     0
 40
0.0
 41
1.0
 50
0.0
 71
     0
 42
2.5
  3
txt
  4

  0
ENDTAB
  0
TABLE
  2
VIEW
  5
6
330
0
100
AcDbSymbolTable
 70
     0
  0
ENDTAB
  0
TABLE
  2
UCS
  5
7
330
0
100
AcDbSymbolTable
 70
     0
  0
ENDTAB
  0
TABLE
  2
APPID
  5
9
330
0
100
AcDbSymbolTable
 70
     2
  0
APPID
  5
12
330
9
100
AcDbSymbolTableRecord
100
AcDbRegAppTableRecord
  2
ACAD
 70
     0
  0
ENDTAB
  0
TABLE
  2
DIMSTYLE
  5
A
330
0
100
AcDbSymbolTable
 70
     1
  0
DIMSTYLE
105
27
330
A
100
AcDbSymbolTableRecord
100
AcDbDimStyleTableRecord
  2
ISO-25
 70
     0
  3

  4

  5

  6

  7

 40
1.0
 41
2.5
 42
0.625
 43
3.75
 44
1.25
 45
0.0
 46
0.0
 47
0.0
 48
0.0
140
2.5
141
2.5
142
0.0
143
0.03937007874016
144
1.0
145
0.0
146
1.0
147
0.625
 71
     0
 72
     0
 73
     0
 74
     0
 75
     0
 76
     0
 77
     1
 78
     8
170
     0
171
     3
172
     1
173
     0
174
     0
175
     0
176
     0
177
     0
178
     0
270
     2
271
     2
272
     2
273
     2
274
     3
340
11
275
     0
280
     0
281
     0
282
     0
283
     0
284
     8
285
     0
286
     0
287
     3
288
     0
  0
ENDTAB
  0
TABLE
  2
BLOCK_RECORD
  5
1
330
0
100
AcDbSymbolTable
 70
     1
  0
BLOCK_RECORD
  5
1F
330
1
100
AcDbSymbolTableRecord
100
AcDbBlockTableRecord
  2
*MODEL_SPACE
  0
BLOCK_RECORD
  5
1B
330
1
100
AcDbSymbolTableRecord
100
AcDbBlockTableRecord
  2
*PAPER_SPACE
  0
ENDTAB
  0
ENDSEC
  0
SECTION
  2
BLOCKS
  0
BLOCK
  5
20
330
1F
100
AcDbEntity
  8
0
100
AcDbBlockBegin
  2
*MODEL_SPACE
 70
     0
 10
0.0
 20
0.0
 30
0.0
  3
*MODEL_SPACE
  1

  0
ENDBLK
  5
21
330
1F
100
AcDbEntity
  8
0
100
AcDbBlockEnd
  0
BLOCK
  5
1C
330
1B
100
AcDbEntity
 67
     1
  8
0
100
AcDbBlockBegin
  2
*PAPER_SPACE
  1

  0
ENDBLK
  5
1D
330
1B
100
AcDbEntity
 67
     1
  8
0
100
AcDbBlockEnd
  0
ENDSEC
  0
SECTION
  2
ENTITIES
  0
LWPOLYLINE
  5
100
100
AcDbEntity
  8
0
 62
7
100
AcDbPolyline
 90
159
 70
0
 10
14.955390
 20
48.051072
 30
0.0
 10
13.517888
 20
47.863572
 30
0.0
 10
11.799137
 20
46.582270
 30
0.0
 10
10.955386
 20
45.301069
 30
0.0
 10
10.111635
 20
43.582267
 30
0.0
 10
9.330384
 20
41.113565
 30
0.0
 10
8.861634
 20
38.394862
 30
0.0
 10
8.674133
 20
35.801059
 30
0.0
 10
8.861634
 20
33.144857
 30
0.0
 10
9.424134
 20
30.488554
 30
0.0
 10
10.330385
 20
27.894851
 30
0.0
 10
12.705388
 20
24.363548
 30
0.0
 10
9.080384
 20
18.488542
 30
0.0
 10
6.330381
 20
19.894843
 30
0.0
 10
6.892882
 20
21.394845
 30
0.0
 10
7.330382
 20
23.176046
 30
0.0
 10
7.517882
 20
24.957248
 30
0.0
 10
7.486632
 20
26.926050
 30
0.0
 10
7.080382
 20
28.926052
 30
0.0
 10
6.142881
 20
30.769854
 30
0.0
 10
4.924130
 20
31.957255
 30
0.0
 10
3.424128
 20
32.801056
 30
0.0
 10
1.799126
 20
33.269857
 30
0.0
 10
0.267875
 20
33.426057
 30
0.0
 10
-2.700878
 20
33.082257
 30
0.0
 10
-5.482131
 20
32.301056
 30
0.0
 10
-7.763383
 20
31.301055
 30
0.0
 10
-10.575886
 20
33.519857
 30
0.0
 10
-12.575888
 20
34.144858
 30
0.0
 10
-14.919641
 20
34.238858
 30
0.0
 10
-17.232143
 20
33.801357
 30
0.0
 10
-19.075895
 20
32.707556
 30
0.0
 10
-22.482148
 20
28.551352
 30
0.0
 10
-25.232151
 20
24.582548
 30
0.0
 10
-27.013403
 20
22.238846
 30
0.0
 10
-28.544654
 20
21.395145
 30
0.0
 10
-32.638409
 20
21.520145
 30
0.0
 10
-33.982160
 20
21.801345
 30
0.0
 10
-33.825910
 20
22.207546
 30
0.0
 10
-34.294660
 20
22.395146
 30
0.0
 10
-34.357160
 20
22.270146
 30
0.0
 10
-38.075914
 20
25.426349
 30
0.0
 10
-37.919664
 20
25.863849
 30
0.0
 10
-39.794666
 20
26.613850
 30
0.0
 10
-40.169666
 20
25.707549
 30
0.0
 10
-41.575918
 20
26.270150
 30
0.0
 10
-41.794668
 20
25.738849
 30
0.0
 10
-40.357167
 20
25.176349
 30
0.0
 10
-41.450918
 20
22.488846
 30
0.0
 10
-42.857169
 20
23.051346
 30
0.0
 10
-43.075919
 20
22.520146
 30
0.0
 10
-41.669668
 20
21.957545
 30
0.0
 10
-42.107168
 20
20.863844
 30
0.0
 10
-40.232166
 20
20.082543
 30
0.0
 10
-40.075916
 20
20.520144
 30
0.0
 10
-35.169661
 20
20.207543
 30
0.0
 10
-35.232161
 20
20.082543
 30
0.0
 10
-34.763411
 20
19.895143
 30
0.0
 10
-34.607161
 20
20.238843
 30
0.0
 10
-32.950909
 20
19.863843
 30
0.0
 10
-28.138404
 20
19.769843
 30
0.0
 10
-25.825902
 20
21.082244
 30
0.0
 10
-23.857150
 20
23.644847
 30
0.0
 10
-21.075897
 20
27.644851
 30
0.0
 10
-17.919644
 20
31.488555
 30
0.0
 10
-16.544642
 20
32.269856
 30
0.0
 10
-14.732140
 20
32.613556
 30
0.0
 10
-12.888388
 20
32.519556
 30
0.0
 10
-11.325887
 20
32.019556
 30
0.0
 10
-9.013385
 20
30.238254
 30
0.0
 10
-9.794635
 20
29.300753
 30
0.0
 10
-11.700887
 20
25.863249
 30
0.0
 10
-12.450888
 20
22.206946
 30
0.0
 10
-11.950888
 20
18.550742
 30
0.0
 10
-10.888386
 20
17.363241
 30
0.0
 10
-9.607135
 20
16.956940
 30
0.0
 10
-7.763383
 20
17.581941
 30
0.0
 10
-6.482132
 20
19.488243
 30
0.0
 10
-5.919631
 20
21.175744
 30
0.0
 10
-5.575881
 20
23.206947
 30
0.0
 10
-5.700881
 20
26.331950
 30
0.0
 10
-6.544632
 20
29.613253
 30
0.0
 10
-6.732132
 20
29.988253
 30
0.0
 10
-4.982130
 20
30.706954
 30
0.0
 10
-2.419628
 20
31.425755
 30
0.0
 10
0.299125
 20
31.738255
 30
0.0
 10
1.486626
 20
31.644255
 30
0.0
 10
2.736627
 20
31.269255
 30
0.0
 10
3.861629
 20
30.675454
 30
0.0
 10
4.767880
 20
29.800453
 30
0.0
 10
5.517880
 20
28.300452
 30
0.0
 10
5.830381
 20
26.644250
 30
0.0
 10
5.861631
 20
24.987948
 30
0.0
 10
5.674130
 20
23.456647
 30
0.0
 10
5.236630
 20
21.675445
 30
0.0
 10
4.642879
 20
20.206643
 30
0.0
 10
1.924127
 20
19.831643
 30
0.0
 10
-0.982126
 20
18.019241
 30
0.0
 10
-2.107128
 20
16.675440
 30
0.0
 10
-2.513378
 20
15.550439
 30
0.0
 10
-2.419628
 20
14.644238
 30
0.0
 10
-2.107128
 20
13.987937
 30
0.0
 10
-0.544626
 20
13.019236
 30
0.0
 10
1.080376
 20
13.175436
 30
0.0
 10
2.392877
 20
13.862937
 30
0.0
 10
4.142879
 20
15.675439
 30
0.0
 10
5.111630
 20
17.394241
 30
0.0
 10
5.580380
 20
18.300442
 30
0.0
 10
5.611630
 20
18.362442
 30
0.0
 10
8.330383
 20
16.924940
 30
0.0
 10
4.861630
 20
10.987434
 30
0.0
 10
3.799129
 20
8.206131
 30
0.0
 10
3.549128
 20
6.331129
 30
0.0
 10
3.861629
 20
4.456127
 30
0.0
 10
5.455380
 20
1.799925
 30
0.0
 10
7.549132
 20
0.549923
 30
0.0
 10
8.205383
 20
0.487923
 30
0.0
 10
9.424134
 20
0.737924
 30
0.0
 10
10.549135
 20
1.394224
 30
0.0
 10
12.267887
 20
3.987927
 30
0.0
 10
12.830388
 20
5.925429
 30
0.0
 10
13.142888
 20
8.050431
 30
0.0
 10
13.205388
 20
10.206633
 30
0.0
 10
12.955388
 20
12.206635
 30
0.0
 10
12.455387
 20
13.862937
 30
0.0
 10
11.705387
 20
15.425439
 30
0.0
 10
10.330385
 20
17.237940
 30
0.0
 10
13.924139
 20
23.144246
 30
0.0
 10
17.392892
 20
20.550444
 30
0.0
 10
21.861647
 20
19.612943
 30
0.0
 10
26.111651
 20
19.925443
 30
0.0
 10
30.080405
 20
20.925444
 30
0.0
 10
33.580409
 20
22.081645
 30
0.0
 10
35.861661
 20
22.925446
 30
0.0
 10
38.392914
 20
23.456647
 30
0.0
 10
40.892916
 20
23.144246
 30
0.0
 10
42.424168
 20
22.112945
 30
0.0
 10
42.955418
 20
22.769246
 30
0.0
 10
43.517919
 20
23.425447
 30
0.0
 10
41.611667
 20
24.676048
 30
0.0
 10
38.299164
 20
25.113548
 30
0.0
 10
35.736661
 20
24.613548
 30
0.0
 10
32.986658
 20
23.644847
 30
0.0
 10
29.580405
 20
22.519846
 30
0.0
 10
25.799151
 20
21.551045
 30
0.0
 10
21.767897
 20
21.301045
 30
0.0
 10
18.267893
 20
21.988545
 30
0.0
 10
14.799140
 20
24.613548
 30
0.0
 10
16.455391
 20
27.488551
 30
0.0
 10
17.892893
 20
30.363554
 30
0.0
 10
18.861644
 20
33.832257
 30
0.0
 10
19.517895
 20
37.301061
 30
0.0
 10
19.767895
 20
39.707263
 30
0.0
 10
19.830395
 20
42.144866
 30
0.0
 10
19.517895
 20
44.332268
 30
0.0
 10
18.705394
 20
46.019870
 30
0.0
 10
16.299141
 20
47.801072
 30
0.0
 10
14.955390
 20
48.051072
 30
0.0
 10
14.955390
 20
48.051072
 30
0.0
  0
LWPOLYLINE
  5
101
100
AcDbEntity
  8
0
 62
7
100
AcDbPolyline
 90
17
 70
0
 10
9.532541
 20
15.641139
 30
0.0
 10
6.381574
 20
10.267433
 30
0.0
 10
5.479220
 20
7.955131
 30
0.0
 10
5.219155
 20
6.470829
 30
0.0
 10
5.410868
 20
5.065728
 30
0.0
 10
6.535723
 20
3.113226
 30
0.0
 10
7.861037
 20
2.203425
 30
0.0
 10
8.966772
 20
2.359625
 30
0.0
 10
9.810818
 20
3.049526
 30
0.0
 10
10.713662
 20
4.605528
 30
0.0
 10
11.208880
 20
6.296129
 30
0.0
 10
11.486036
 20
8.197731
 30
0.0
 10
11.528686
 20
10.113433
 30
0.0
 10
11.320398
 20
11.846635
 30
0.0
 10
10.919198
 20
13.251436
 30
0.0
 10
10.234213
 20
14.628438
 30
0.0
 10
9.532540
 20
15.641139
 30
0.0
  0
LWPOLYLINE
  5
102
100
AcDbEntity
  8
0
 62
7
100
AcDbPolyline
 90
12
 70
0
 10
3.824230
 20
18.546642
 30
0.0
 10
2.485188
 20
18.245741
 30
0.0
 10
0.147007
 20
16.793840
 30
0.0
 10
-0.660802
 20
15.849339
 30
0.0
 10
-0.828368
 20
15.370039
 30
0.0
 10
-0.721772
 20
14.929338
 30
0.0
 10
-0.286071
 20
14.688738
 30
0.0
 10
0.599004
 20
14.783738
 30
0.0
 10
1.358750
 20
15.158938
 30
0.0
 10
2.776750
 20
16.651340
 30
0.0
 10
3.610752
 20
18.114341
 30
0.0
 10
3.824230
 20
18.546942
 30
0.0
  0
LWPOLYLINE
  5
103
100
AcDbEntity
  8
0
 62
7
100
AcDbPolyline
 90
13
 70
0
 10
-8.032035
 20
28.838152
 30
0.0
 10
-8.435803
 20
28.317552
 30
0.0
 10
-10.123056
 20
25.265949
 30
0.0
 10
-10.771358
 20
22.128545
 30
0.0
 10
-10.455519
 20
19.292943
 30
0.0
 10
-10.004451
 20
18.791242
 30
0.0
 10
-9.621297
 20
18.632442
 30
0.0
 10
-8.852639
 20
18.878142
 30
0.0
 10
-8.044283
 20
20.098343
 30
0.0
 10
-7.537768
 20
21.571545
 30
0.0
 10
-7.246808
 20
23.290847
 30
0.0
 10
-7.355471
 20
25.973749
 30
0.0
 10
-8.032035
 20
28.838152
 30
0.0
  0
LWPOLYLINE
  5
104
100
AcDbEntity
  8
0
 62
7
100
AcDbPolyline
 90
22
 70
0
 10
14.848459
 20
46.393570
 30
0.0
 10
13.959119
 20
46.266270
 30
0.0
 10
13.231470
 20
45.677669
 30
0.0
 10
12.538515
 20
44.675968
 30
0.0
 10
11.660309
 20
42.922367
 30
0.0
 10
10.960770
 20
40.667064
 30
0.0
 10
10.518121
 20
38.158562
 30
0.0
 10
10.354588
 20
35.800659
 30
0.0
 10
10.533038
 20
33.373657
 30
0.0
 10
11.045242
 20
30.936254
 30
0.0
 10
11.882958
 20
28.547652
 30
0.0
 10
13.602145
 20
25.868349
 30
0.0
 10
15.090575
 20
28.470052
 30
0.0
 10
16.363779
 20
31.035055
 30
0.0
 10
17.233872
 20
34.193158
 30
0.0
 10
17.869052
 20
37.529461
 30
0.0
 10
18.125071
 20
40.208264
 30
0.0
 10
18.131671
 20
42.347866
 30
0.0
 10
17.889152
 20
43.941668
 30
0.0
 10
17.397923
 20
44.983169
 30
0.0
 10
16.193233
 20
46.042270
 30
0.0
 10
14.848453
 20
46.393570
 30
0.0
  0
ENDSEC
  0
SECTION
  2
OBJECTS
  0
DICTIONARY
  5
C
330
0
100
AcDbDictionary
  3
ACAD_GROUP
350
D
  3
ACAD_MLINESTYLE
350
17
  0
DICTIONARY
  5
D
330
C
100
AcDbDictionary
  0
DICTIONARY
  5
1A
330
C
100
AcDbDictionary
  0
DICTIONARY
  5
17
330
C
100
AcDbDictionary
  3
STANDARD
350
18
  0
DICTIONARY
  5
19
330
C
100
AcDbDictionary
  0
ENDSEC
  0
EOF
