  0
SECTION
  2
HEADER
  9
$ACADVER
  1
AC1014
  9
$HANDSEED
  5
FFFF
  9
$MEASUREMENT
 70
     1
  0
ENDSEC
  0
SECTION
  2
TABLES
  0
TABLE
  2
VPORT
  5
8
330
0
100
AcDbSymbolTable
 70
     4
  0
VPORT
  5
2E
330
8
100
AcDbSymbolTableRecord
100
AcDbViewportTableRecord
  2
*ACTIVE
 70
     0
 10
0.0
 20
0.0
 11
1.0
 21
1.0
 12
210.0
 22
148.5
 13
0.0
 23
0.0
 14
10.0
 24
10.0
 15
10.0
 25
10.0
 16
0.0
 26
0.0
 36
1.0
 17
0.0
 27
0.0
 37
0.0
 40
341.0
 41
1.24
 42
50.0
 43
0.0
 44
0.0
 50
0.0
 51
0.0
 71
     0
 72
   100
 73
     1
 74
     3
 75
     0
 76
     0
 77
     0
 78
     0
  0
ENDTAB
  0
TABLE
  2
LTYPE
  5
5
330
0
100
AcDbSymbolTable
 70
     1
  0
LTYPE
  5
14
330
5
100
AcDbSymbolTableRecord
100
AcDbLinetypeTableRecord
  2
BYBLOCK
 70
     0
  3

 72
    65
 73
     0
 40
0.0
  0
LTYPE
  5
15
330
5
100
AcDbSymbolTableRecord
100
AcDbLinetypeTableRecord
  2
BYLAYER
 70
     0
  3

 72
    65
 73
     0
 40
0.0
  0
LTYPE
  5
16
330
5
100
AcDbSymbolTableRecord
100
AcDbLinetypeTableRecord
  2
CONTINUOUS
 70
     0
  3
Solid line
 72
    65
 73
     0
 40
0.0
  0
ENDTAB
  0
TABLE
  2
LAYER
  5
2
100
AcDbSymbolTable
 70
2
  0
LAYER
  5
50
100
AcDbSymbolTableRecord
100
AcDbLayerTableRecord
  2
0
 70
0
  6
CONTINUOUS
  0
LAYER
  5
51
100
AcDbSymbolTableRecord
100
AcDbLayerTableRecord
  2
Layer_1
 70
0
  6
CONTINUOUS
  0
ENDTAB
  0
TABLE
  2
STYLE
  5
3
330
0
100
AcDbSymbolTable
 70
     1
  0
STYLE
  5
11
330
3
100
AcDbSymbolTableRecord
100
AcDbTextStyleTableRecord
  2
STANDARD
 70
     0
 40
0.0
 41
1.0
 50
0.0
 71
     0
 42
2.5
  3
txt
  4

  0
ENDTAB
  0
TABLE
  2
VIEW
  5
6
330
0
100
AcDbSymbolTable
 70
     0
  0
ENDTAB
  0
TABLE
  2
UCS
  5
7
330
0
100
AcDbSymbolTable
 70
     0
  0
ENDTAB
  0
TABLE
  2
APPID
  5
9
330
0
100
AcDbSymbolTable
 70
     2
  0
APPID
  5
12
330
9
100
AcDbSymbolTableRecord
100
AcDbRegAppTableRecord
  2
ACAD
 70
     0
  0
ENDTAB
  0
TABLE
  2
DIMSTYLE
  5
A
330
0
100
AcDbSymbolTable
 70
     1
  0
DIMSTYLE
105
27
330
A
100
AcDbSymbolTableRecord
100
AcDbDimStyleTableRecord
  2
ISO-25
 70
     0
  3

  4

  5

  6

  7

 40
1.0
 41
2.5
 42
0.625
 43
3.75
 44
1.25
 45
0.0
 46
0.0
 47
0.0
 48
0.0
140
2.5
141
2.5
142
0.0
143
0.03937007874016
144
1.0
145
0.0
146
1.0
147
0.625
 71
     0
 72
     0
 73
     0
 74
     0
 75
     0
 76
     0
 77
     1
 78
     8
170
     0
171
     3
172
     1
173
     0
174
     0
175
     0
176
     0
177
     0
178
     0
270
     2
271
     2
272
     2
273
     2
274
     3
340
11
275
     0
280
     0
281
     0
282
     0
283
     0
284
     8
285
     0
286
     0
287
     3
288
     0
  0
ENDTAB
  0
TABLE
  2
BLOCK_RECORD
  5
1
330
0
100
AcDbSymbolTable
 70
     1
  0
BLOCK_RECORD
  5
1F
330
1
100
AcDbSymbolTableRecord
100
AcDbBlockTableRecord
  2
*MODEL_SPACE
  0
BLOCK_RECORD
  5
1B
330
1
100
AcDbSymbolTableRecord
100
AcDbBlockTableRecord
  2
*PAPER_SPACE
  0
ENDTAB
  0
ENDSEC
  0
SECTION
  2
BLOCKS
  0
BLOCK
  5
20
330
1F
100
AcDbEntity
  8
0
100
AcDbBlockBegin
  2
*MODEL_SPACE
 70
     0
 10
0.0
 20
0.0
 30
0.0
  3
*MODEL_SPACE
  1

  0
ENDBLK
  5
21
330
1F
100
AcDbEntity
  8
0
100
AcDbBlockEnd
  0
BLOCK
  5
1C
330
1B
100
AcDbEntity
 67
     1
  8
0
100
AcDbBlockBegin
  2
*PAPER_SPACE
  1

  0
ENDBLK
  5
1D
330
1B
100
AcDbEntity
 67
     1
  8
0
100
AcDbBlockEnd
  0
ENDSEC
  0
SECTION
  2
ENTITIES
  0
LWPOLYLINE
  5
100
100
AcDbEntity
  8
Layer_1
 62
7
100
AcDbPolyline
 90
12
 70
0
 10
24.917262
 20
13.190955
 30
0.0
 10
12.164903
 20
3.659662
 30
0.0
 10
15.160934
 20
13.009402
 30
0.0
 10
13.785273
 20
13.009402
 30
0.0
 10
9.638448
 20
0.070557
 30
0.0
 10
24.914021
 20
11.490425
 30
0.0
 10
40.451938
 20
0.119043
 30
0.0
 10
36.175044
 20
13.009402
 30
0.0
 10
34.792768
 20
13.009402
 30
0.0
 10
37.881393
 20
3.699342
 30
0.0
 10
24.917262
 20
13.190955
 30
0.0
 10
24.917262
 20
13.190955
 30
0.0
  0
LWPOLYLINE
  5
101
100
AcDbEntity
  8
Layer_1
 62
7
100
AcDbPolyline
 90
16
 70
0
 10
24.971340
 20
47.974452
 30
0.0
 10
19.261463
 20
29.669603
 30
0.0
 10
0.070547
 20
29.645360
 30
0.0
 10
2.987214
 20
27.546575
 30
0.0
 10
5.284392
 20
27.546575
 30
0.0
 10
4.177690
 20
28.342439
 30
0.0
 10
20.196208
 20
28.362279
 30
0.0
 10
24.960317
 20
43.640201
 30
0.0
 10
29.927248
 20
28.366812
 30
0.0
 10
45.791445
 20
28.408575
 30
0.0
 10
39.836860
 20
24.030227
 30
0.0
 10
42.186947
 20
24.030227
 30
0.0
 10
49.929452
 20
29.724724
 30
0.0
 10
30.923721
 20
29.654301
 30
0.0
 10
24.971340
 20
47.974460
 30
0.0
 10
24.971340
 20
47.974452
 30
0.0
  0
LWPOLYLINE
  5
102
100
AcDbEntity
  8
Layer_1
 62
7
100
AcDbPolyline
 90
5
 70
0
 10
4.095952
 20
26.745558
 30
0.0
 10
5.806263
 20
26.745558
 30
0.0
 10
5.806263
 20
24.928335
 30
0.0
 10
4.095952
 20
24.928335
 30
0.0
 10
4.095952
 20
26.745558
 30
0.0
  0
LWPOLYLINE
  5
103
100
AcDbEntity
  8
Layer_1
 62
7
100
AcDbPolyline
 90
5
 70
0
 10
7.694732
 20
26.745558
 30
0.0
 10
9.405043
 20
26.745558
 30
0.0
 10
9.405043
 20
24.928335
 30
0.0
 10
7.694732
 20
24.928335
 30
0.0
 10
7.694732
 20
26.745558
 30
0.0
  0
LWPOLYLINE
  5
104
100
AcDbEntity
  8
Layer_1
 62
7
100
AcDbPolyline
 90
5
 70
0
 10
9.606956
 20
26.745558
 30
0.0
 10
11.317267
 20
26.745558
 30
0.0
 10
11.317267
 20
24.928335
 30
0.0
 10
9.606956
 20
24.928335
 30
0.0
 10
9.606956
 20
26.745558
 30
0.0
  0
LWPOLYLINE
  5
105
100
AcDbEntity
  8
Layer_1
 62
7
100
AcDbPolyline
 90
5
 70
0
 10
11.519177
 20
26.745558
 30
0.0
 10
13.229489
 20
26.745558
 30
0.0
 10
13.229489
 20
24.928335
 30
0.0
 10
11.519177
 20
24.928335
 30
0.0
 10
11.519177
 20
26.745558
 30
0.0
  0
LWPOLYLINE
  5
106
100
AcDbEntity
  8
Layer_1
 62
7
100
AcDbPolyline
 90
5
 70
0
 10
13.431400
 20
26.745558
 30
0.0
 10
15.141712
 20
26.745558
 30
0.0
 10
15.141712
 20
24.928335
 30
0.0
 10
13.431400
 20
24.928335
 30
0.0
 10
13.431400
 20
26.745558
 30
0.0
  0
LWPOLYLINE
  5
107
100
AcDbEntity
  8
Layer_1
 62
7
100
AcDbPolyline
 90
5
 70
0
 10
15.943422
 20
26.745558
 30
0.0
 10
17.653733
 20
26.745558
 30
0.0
 10
17.653733
 20
24.928335
 30
0.0
 10
15.943422
 20
24.928335
 30
0.0
 10
15.943422
 20
26.745558
 30
0.0
  0
LWPOLYLINE
  5
108
100
AcDbEntity
  8
Layer_1
 62
7
100
AcDbPolyline
 90
5
 70
0
 10
17.855643
 20
26.745558
 30
0.0
 10
19.565955
 20
26.745558
 30
0.0
 10
19.565955
 20
24.928335
 30
0.0
 10
17.855643
 20
24.928335
 30
0.0
 10
17.855643
 20
26.745558
 30
0.0
  0
LWPOLYLINE
  5
109
100
AcDbEntity
  8
Layer_1
 62
7
100
AcDbPolyline
 90
5
 70
0
 10
19.767865
 20
26.745558
 30
0.0
 10
21.478176
 20
26.745558
 30
0.0
 10
21.478176
 20
24.928335
 30
0.0
 10
19.767865
 20
24.928335
 30
0.0
 10
19.767865
 20
26.745558
 30
0.0
  0
LWPOLYLINE
  5
10a
100
AcDbEntity
  8
Layer_1
 62
7
100
AcDbPolyline
 90
5
 70
0
 10
21.680087
 20
26.745558
 30
0.0
 10
23.390398
 20
26.745558
 30
0.0
 10
23.390398
 20
24.928335
 30
0.0
 10
21.680087
 20
24.928335
 30
0.0
 10
21.680087
 20
26.745558
 30
0.0
  0
LWPOLYLINE
  5
10b
100
AcDbEntity
  8
Layer_1
 62
7
100
AcDbPolyline
 90
5
 70
0
 10
24.281188
 20
26.745558
 30
0.0
 10
25.991499
 20
26.745558
 30
0.0
 10
25.991499
 20
24.928335
 30
0.0
 10
24.281188
 20
24.928335
 30
0.0
 10
24.281188
 20
26.745558
 30
0.0
  0
LWPOLYLINE
  5
10c
100
AcDbEntity
  8
Layer_1
 62
7
100
AcDbPolyline
 90
5
 70
0
 10
26.193410
 20
26.745558
 30
0.0
 10
27.903721
 20
26.745558
 30
0.0
 10
27.903721
 20
24.928335
 30
0.0
 10
26.193410
 20
24.928335
 30
0.0
 10
26.193410
 20
26.745558
 30
0.0
  0
LWPOLYLINE
  5
10d
100
AcDbEntity
  8
Layer_1
 62
7
100
AcDbPolyline
 90
5
 70
0
 10
28.105632
 20
26.745558
 30
0.0
 10
29.815943
 20
26.745558
 30
0.0
 10
29.815943
 20
24.928335
 30
0.0
 10
28.105632
 20
24.928335
 30
0.0
 10
28.105632
 20
26.745558
 30
0.0
  0
LWPOLYLINE
  5
10e
100
AcDbEntity
  8
Layer_1
 62
7
100
AcDbPolyline
 90
5
 70
0
 10
30.017855
 20
26.745558
 30
0.0
 10
31.728167
 20
26.745558
 30
0.0
 10
31.728167
 20
24.928335
 30
0.0
 10
30.017855
 20
24.928335
 30
0.0
 10
30.017855
 20
26.745558
 30
0.0
  0
LWPOLYLINE
  5
10f
100
AcDbEntity
  8
Layer_1
 62
7
100
AcDbPolyline
 90
5
 70
0
 10
32.583320
 20
26.745558
 30
0.0
 10
34.293632
 20
26.745558
 30
0.0
 10
34.293632
 20
24.928335
 30
0.0
 10
32.583320
 20
24.928335
 30
0.0
 10
32.583320
 20
26.745558
 30
0.0
  0
LWPOLYLINE
  5
110
100
AcDbEntity
  8
Layer_1
 62
7
100
AcDbPolyline
 90
5
 70
0
 10
34.495545
 20
26.745558
 30
0.0
 10
36.205856
 20
26.745558
 30
0.0
 10
36.205856
 20
24.928335
 30
0.0
 10
34.495545
 20
24.928335
 30
0.0
 10
34.495545
 20
26.745558
 30
0.0
  0
LWPOLYLINE
  5
111
100
AcDbEntity
  8
Layer_1
 62
7
100
AcDbPolyline
 90
5
 70
0
 10
36.407770
 20
26.745558
 30
0.0
 10
38.118081
 20
26.745558
 30
0.0
 10
38.118081
 20
24.928335
 30
0.0
 10
36.407770
 20
24.928335
 30
0.0
 10
36.407770
 20
26.745558
 30
0.0
  0
LWPOLYLINE
  5
112
100
AcDbEntity
  8
Layer_1
 62
7
100
AcDbPolyline
 90
5
 70
0
 10
32.648652
 20
23.068106
 30
0.0
 10
34.270878
 20
23.068106
 30
0.0
 10
34.270878
 20
21.427501
 30
0.0
 10
32.648652
 20
21.427501
 30
0.0
 10
32.648652
 20
23.068106
 30
0.0
  0
LWPOLYLINE
  5
113
100
AcDbEntity
  8
Layer_1
 62
7
100
AcDbPolyline
 90
5
 70
0
 10
34.462387
 20
23.068106
 30
0.0
 10
36.084615
 20
23.068106
 30
0.0
 10
36.084615
 20
21.427501
 30
0.0
 10
34.462387
 20
21.427501
 30
0.0
 10
34.462387
 20
23.068106
 30
0.0
  0
LWPOLYLINE
  5
114
100
AcDbEntity
  8
Layer_1
 62
7
100
AcDbPolyline
 90
5
 70
0
 10
36.258308
 20
23.068106
 30
0.0
 10
37.880534
 20
23.068106
 30
0.0
 10
37.880534
 20
21.427501
 30
0.0
 10
36.258308
 20
21.427501
 30
0.0
 10
36.258308
 20
23.068106
 30
0.0
  0
LWPOLYLINE
  5
115
100
AcDbEntity
  8
Layer_1
 62
7
100
AcDbPolyline
 90
5
 70
0
 10
32.709474
 20
21.203639
 30
0.0
 10
34.319102
 20
21.203639
 30
0.0
 10
34.319102
 20
19.578530
 30
0.0
 10
32.709474
 20
19.578530
 30
0.0
 10
32.709474
 20
21.203639
 30
0.0
  0
LWPOLYLINE
  5
116
100
AcDbEntity
  8
Layer_1
 62
7
100
AcDbPolyline
 90
5
 70
0
 10
34.523214
 20
21.203639
 30
0.0
 10
36.132843
 20
21.203639
 30
0.0
 10
36.132843
 20
19.578530
 30
0.0
 10
34.523214
 20
19.578530
 30
0.0
 10
34.523214
 20
21.203639
 30
0.0
  0
LWPOLYLINE
  5
117
100
AcDbEntity
  8
Layer_1
 62
7
100
AcDbPolyline
 90
5
 70
0
 10
36.336952
 20
21.203639
 30
0.0
 10
37.959178
 20
21.203639
 30
0.0
 10
37.959178
 20
19.578530
 30
0.0
 10
36.336952
 20
19.578530
 30
0.0
 10
36.336952
 20
21.203639
 30
0.0
  0
LWPOLYLINE
  5
118
100
AcDbEntity
  8
Layer_1
 62
7
100
AcDbPolyline
 90
5
 70
0
 10
6.055685
 20
23.049039
 30
0.0
 10
7.587838
 20
23.049039
 30
0.0
 10
7.587838
 20
21.421111
 30
0.0
 10
6.055685
 20
21.421111
 30
0.0
 10
6.055685
 20
23.049039
 30
0.0
  0
LWPOLYLINE
  5
119
100
AcDbEntity
  8
Layer_1
 62
7
100
AcDbPolyline
 90
5
 70
0
 10
7.899613
 20
23.049039
 30
0.0
 10
9.431766
 20
23.049039
 30
0.0
 10
9.431766
 20
21.421111
 30
0.0
 10
7.899613
 20
21.421111
 30
0.0
 10
7.899613
 20
23.049039
 30
0.0
  0
LWPOLYLINE
  5
11a
100
AcDbEntity
  8
Layer_1
 62
7
100
AcDbPolyline
 90
5
 70
0
 10
9.743542
 20
23.049039
 30
0.0
 10
11.275696
 20
23.049039
 30
0.0
 10
11.275696
 20
21.421111
 30
0.0
 10
9.743542
 20
21.421111
 30
0.0
 10
9.743542
 20
23.049039
 30
0.0
  0
LWPOLYLINE
  5
11b
100
AcDbEntity
  8
Layer_1
 62
7
100
AcDbPolyline
 90
5
 70
0
 10
11.587471
 20
23.049039
 30
0.0
 10
13.119625
 20
23.049039
 30
0.0
 10
13.119625
 20
21.421111
 30
0.0
 10
11.587471
 20
21.421111
 30
0.0
 10
11.587471
 20
23.049039
 30
0.0
  0
LWPOLYLINE
  5
11c
100
AcDbEntity
  8
Layer_1
 62
7
100
AcDbPolyline
 90
5
 70
0
 10
13.431400
 20
23.049039
 30
0.0
 10
14.963554
 20
23.049039
 30
0.0
 10
14.963554
 20
21.421111
 30
0.0
 10
13.431400
 20
21.421111
 30
0.0
 10
13.431400
 20
23.049039
 30
0.0
  0
LWPOLYLINE
  5
11d
100
AcDbEntity
  8
Layer_1
 62
7
100
AcDbPolyline
 90
5
 70
0
 10
15.275329
 20
23.049039
 30
0.0
 10
16.807483
 20
23.049039
 30
0.0
 10
16.807483
 20
21.421111
 30
0.0
 10
15.275329
 20
21.421111
 30
0.0
 10
15.275329
 20
23.049039
 30
0.0
  0
LWPOLYLINE
  5
11e
100
AcDbEntity
  8
Layer_1
 62
7
100
AcDbPolyline
 90
5
 70
0
 10
17.119261
 20
23.049039
 30
0.0
 10
18.651415
 20
23.049039
 30
0.0
 10
18.651415
 20
21.421111
 30
0.0
 10
17.119261
 20
21.421111
 30
0.0
 10
17.119261
 20
23.049039
 30
0.0
  0
LWPOLYLINE
  5
11f
100
AcDbEntity
  8
Layer_1
 62
7
100
AcDbPolyline
 90
5
 70
0
 10
18.963188
 20
23.049039
 30
0.0
 10
20.495342
 20
23.049039
 30
0.0
 10
20.495342
 20
21.421111
 30
0.0
 10
18.963188
 20
21.421111
 30
0.0
 10
18.963188
 20
23.049039
 30
0.0
  0
LWPOLYLINE
  5
120
100
AcDbEntity
  8
Layer_1
 62
7
100
AcDbPolyline
 90
5
 70
0
 10
20.807117
 20
23.049039
 30
0.0
 10
22.339271
 20
23.049039
 30
0.0
 10
22.339271
 20
21.421111
 30
0.0
 10
20.807117
 20
21.421111
 30
0.0
 10
20.807117
 20
23.049039
 30
0.0
  0
LWPOLYLINE
  5
121
100
AcDbEntity
  8
Layer_1
 62
7
100
AcDbPolyline
 90
5
 70
0
 10
22.651046
 20
23.049039
 30
0.0
 10
24.183200
 20
23.049039
 30
0.0
 10
24.183200
 20
21.421111
 30
0.0
 10
22.651046
 20
21.421111
 30
0.0
 10
22.651046
 20
23.049039
 30
0.0
  0
LWPOLYLINE
  5
122
100
AcDbEntity
  8
Layer_1
 62
7
100
AcDbPolyline
 90
5
 70
0
 10
24.494976
 20
23.049039
 30
0.0
 10
26.027130
 20
23.049039
 30
0.0
 10
26.027130
 20
21.421111
 30
0.0
 10
24.494976
 20
21.421111
 30
0.0
 10
24.494976
 20
23.049039
 30
0.0
  0
LWPOLYLINE
  5
123
100
AcDbEntity
  8
Layer_1
 62
7
100
AcDbPolyline
 90
5
 70
0
 10
26.338903
 20
23.049039
 30
0.0
 10
27.871056
 20
23.049039
 30
0.0
 10
27.871056
 20
21.421111
 30
0.0
 10
26.338903
 20
21.421111
 30
0.0
 10
26.338903
 20
23.049039
 30
0.0
  0
LWPOLYLINE
  5
124
100
AcDbEntity
  8
Layer_1
 62
7
100
AcDbPolyline
 90
5
 70
0
 10
6.942017
 20
21.197196
 30
0.0
 10
8.474171
 20
21.197196
 30
0.0
 10
8.474171
 20
19.569267
 30
0.0
 10
6.942017
 20
19.569267
 30
0.0
 10
6.942017
 20
21.197196
 30
0.0
  0
LWPOLYLINE
  5
125
100
AcDbEntity
  8
Layer_1
 62
7
100
AcDbPolyline
 90
5
 70
0
 10
8.785946
 20
21.202589
 30
0.0
 10
10.318100
 20
21.202589
 30
0.0
 10
10.318100
 20
19.574660
 30
0.0
 10
8.785946
 20
19.574660
 30
0.0
 10
8.785946
 20
21.202589
 30
0.0
  0
LWPOLYLINE
  5
126
100
AcDbEntity
  8
Layer_1
 62
7
100
AcDbPolyline
 90
5
 70
0
 10
10.629874
 20
21.202589
 30
0.0
 10
12.162028
 20
21.202589
 30
0.0
 10
12.162028
 20
19.574660
 30
0.0
 10
10.629874
 20
19.574660
 30
0.0
 10
10.629874
 20
21.202589
 30
0.0
  0
LWPOLYLINE
  5
127
100
AcDbEntity
  8
Layer_1
 62
7
100
AcDbPolyline
 90
5
 70
0
 10
12.473804
 20
21.202589
 30
0.0
 10
14.005958
 20
21.202589
 30
0.0
 10
14.005958
 20
19.574660
 30
0.0
 10
12.473804
 20
19.574660
 30
0.0
 10
12.473804
 20
21.202589
 30
0.0
  0
LWPOLYLINE
  5
128
100
AcDbEntity
  8
Layer_1
 62
7
100
AcDbPolyline
 90
5
 70
0
 10
14.317733
 20
21.202589
 30
0.0
 10
15.849887
 20
21.202589
 30
0.0
 10
15.849887
 20
19.574660
 30
0.0
 10
14.317733
 20
19.574660
 30
0.0
 10
14.317733
 20
21.202589
 30
0.0
  0
LWPOLYLINE
  5
129
100
AcDbEntity
  8
Layer_1
 62
7
100
AcDbPolyline
 90
5
 70
0
 10
16.161662
 20
21.202589
 30
0.0
 10
17.693816
 20
21.202589
 30
0.0
 10
17.693816
 20
19.574660
 30
0.0
 10
16.161662
 20
19.574660
 30
0.0
 10
16.161662
 20
21.202589
 30
0.0
  0
LWPOLYLINE
  5
12a
100
AcDbEntity
  8
Layer_1
 62
7
100
AcDbPolyline
 90
5
 70
0
 10
18.005593
 20
21.202589
 30
0.0
 10
19.537747
 20
21.202589
 30
0.0
 10
19.537747
 20
19.574660
 30
0.0
 10
18.005593
 20
19.574660
 30
0.0
 10
18.005593
 20
21.202589
 30
0.0
  0
LWPOLYLINE
  5
12b
100
AcDbEntity
  8
Layer_1
 62
7
100
AcDbPolyline
 90
5
 70
0
 10
19.849523
 20
21.202589
 30
0.0
 10
21.381676
 20
21.202589
 30
0.0
 10
21.381676
 20
19.574660
 30
0.0
 10
19.849523
 20
19.574660
 30
0.0
 10
19.849523
 20
21.202589
 30
0.0
  0
LWPOLYLINE
  5
12c
100
AcDbEntity
  8
Layer_1
 62
7
100
AcDbPolyline
 90
5
 70
0
 10
21.693452
 20
21.202589
 30
0.0
 10
23.225606
 20
21.202589
 30
0.0
 10
23.225606
 20
19.574660
 30
0.0
 10
21.693452
 20
19.574660
 30
0.0
 10
21.693452
 20
21.202589
 30
0.0
  0
LWPOLYLINE
  5
12d
100
AcDbEntity
  8
Layer_1
 62
7
100
AcDbPolyline
 90
5
 70
0
 10
23.537379
 20
21.202589
 30
0.0
 10
25.069533
 20
21.202589
 30
0.0
 10
25.069533
 20
19.574660
 30
0.0
 10
23.537379
 20
19.574660
 30
0.0
 10
23.537379
 20
21.202589
 30
0.0
  0
LWPOLYLINE
  5
12e
100
AcDbEntity
  8
Layer_1
 62
7
100
AcDbPolyline
 90
5
 70
0
 10
25.381310
 20
21.202589
 30
0.0
 10
26.913464
 20
21.202589
 30
0.0
 10
26.913464
 20
19.574660
 30
0.0
 10
25.381310
 20
19.574660
 30
0.0
 10
25.381310
 20
21.202589
 30
0.0
  0
LWPOLYLINE
  5
12f
100
AcDbEntity
  8
Layer_1
 62
7
100
AcDbPolyline
 90
5
 70
0
 10
27.225238
 20
21.202589
 30
0.0
 10
28.757391
 20
21.202589
 30
0.0
 10
28.757391
 20
19.574660
 30
0.0
 10
27.225238
 20
19.574660
 30
0.0
 10
27.225238
 20
21.202589
 30
0.0
  0
LWPOLYLINE
  5
130
100
AcDbEntity
  8
Layer_1
 62
7
100
AcDbPolyline
 90
5
 70
0
 10
7.369596
 20
19.345372
 30
0.0
 10
8.901749
 20
19.345372
 30
0.0
 10
8.901749
 20
17.717443
 30
0.0
 10
7.369596
 20
17.717443
 30
0.0
 10
7.369596
 20
19.345372
 30
0.0
  0
LWPOLYLINE
  5
131
100
AcDbEntity
  8
Layer_1
 62
7
100
AcDbPolyline
 90
5
 70
0
 10
9.213523
 20
19.349730
 30
0.0
 10
10.745677
 20
19.349730
 30
0.0
 10
10.745677
 20
17.721801
 30
0.0
 10
9.213523
 20
17.721801
 30
0.0
 10
9.213523
 20
19.349730
 30
0.0
  0
LWPOLYLINE
  5
132
100
AcDbEntity
  8
Layer_1
 62
7
100
AcDbPolyline
 90
5
 70
0
 10
11.057453
 20
19.349730
 30
0.0
 10
12.589607
 20
19.349730
 30
0.0
 10
12.589607
 20
17.721801
 30
0.0
 10
11.057453
 20
17.721801
 30
0.0
 10
11.057453
 20
19.349730
 30
0.0
  0
LWPOLYLINE
  5
133
100
AcDbEntity
  8
Layer_1
 62
7
100
AcDbPolyline
 90
5
 70
0
 10
12.901382
 20
19.349730
 30
0.0
 10
14.433536
 20
19.349730
 30
0.0
 10
14.433536
 20
17.721801
 30
0.0
 10
12.901382
 20
17.721801
 30
0.0
 10
12.901382
 20
19.349730
 30
0.0
  0
LWPOLYLINE
  5
134
100
AcDbEntity
  8
Layer_1
 62
7
100
AcDbPolyline
 90
5
 70
0
 10
14.745310
 20
19.349730
 30
0.0
 10
16.277464
 20
19.349730
 30
0.0
 10
16.277464
 20
17.721801
 30
0.0
 10
14.745310
 20
17.721801
 30
0.0
 10
14.745310
 20
19.349730
 30
0.0
  0
LWPOLYLINE
  5
135
100
AcDbEntity
  8
Layer_1
 62
7
100
AcDbPolyline
 90
5
 70
0
 10
16.589239
 20
19.349730
 30
0.0
 10
18.121393
 20
19.349730
 30
0.0
 10
18.121393
 20
17.721801
 30
0.0
 10
16.589239
 20
17.721801
 30
0.0
 10
16.589239
 20
19.349730
 30
0.0
  0
LWPOLYLINE
  5
136
100
AcDbEntity
  8
Layer_1
 62
7
100
AcDbPolyline
 90
5
 70
0
 10
18.433171
 20
19.349730
 30
0.0
 10
19.965324
 20
19.349730
 30
0.0
 10
19.965324
 20
17.721801
 30
0.0
 10
18.433171
 20
17.721801
 30
0.0
 10
18.433171
 20
19.349730
 30
0.0
  0
LWPOLYLINE
  5
137
100
AcDbEntity
  8
Layer_1
 62
7
100
AcDbPolyline
 90
5
 70
0
 10
20.277100
 20
19.349730
 30
0.0
 10
21.809254
 20
19.349730
 30
0.0
 10
21.809254
 20
17.721801
 30
0.0
 10
20.277100
 20
17.721801
 30
0.0
 10
20.277100
 20
19.349730
 30
0.0
  0
LWPOLYLINE
  5
138
100
AcDbEntity
  8
Layer_1
 62
7
100
AcDbPolyline
 90
5
 70
0
 10
22.121029
 20
19.349730
 30
0.0
 10
23.653183
 20
19.349730
 30
0.0
 10
23.653183
 20
17.721801
 30
0.0
 10
22.121029
 20
17.721801
 30
0.0
 10
22.121029
 20
19.349730
 30
0.0
  0
LWPOLYLINE
  5
139
100
AcDbEntity
  8
Layer_1
 62
7
100
AcDbPolyline
 90
5
 70
0
 10
23.964958
 20
19.349730
 30
0.0
 10
25.497112
 20
19.349730
 30
0.0
 10
25.497112
 20
17.721801
 30
0.0
 10
23.964958
 20
17.721801
 30
0.0
 10
23.964958
 20
19.349730
 30
0.0
  0
LWPOLYLINE
  5
13a
100
AcDbEntity
  8
Layer_1
 62
7
100
AcDbPolyline
 90
5
 70
0
 10
25.808888
 20
19.349730
 30
0.0
 10
27.341041
 20
19.349730
 30
0.0
 10
27.341041
 20
17.721801
 30
0.0
 10
25.808888
 20
17.721801
 30
0.0
 10
25.808888
 20
19.349730
 30
0.0
  0
LWPOLYLINE
  5
13b
100
AcDbEntity
  8
Layer_1
 62
7
100
AcDbPolyline
 90
5
 70
0
 10
8.331645
 20
17.493529
 30
0.0
 10
9.863799
 20
17.493529
 30
0.0
 10
9.863799
 20
15.865600
 30
0.0
 10
8.331645
 20
15.865600
 30
0.0
 10
8.331645
 20
17.493529
 30
0.0
  0
LWPOLYLINE
  5
13c
100
AcDbEntity
  8
Layer_1
 62
7
100
AcDbPolyline
 90
5
 70
0
 10
10.175573
 20
17.493529
 30
0.0
 10
11.707727
 20
17.493529
 30
0.0
 10
11.707727
 20
15.865600
 30
0.0
 10
10.175573
 20
15.865600
 30
0.0
 10
10.175573
 20
17.493529
 30
0.0
  0
LWPOLYLINE
  5
13d
100
AcDbEntity
  8
Layer_1
 62
7
100
AcDbPolyline
 90
5
 70
0
 10
12.019502
 20
17.493529
 30
0.0
 10
13.551656
 20
17.493529
 30
0.0
 10
13.551656
 20
15.865600
 30
0.0
 10
12.019502
 20
15.865600
 30
0.0
 10
12.019502
 20
17.493529
 30
0.0
  0
LWPOLYLINE
  5
13e
100
AcDbEntity
  8
Layer_1
 62
7
100
AcDbPolyline
 90
5
 70
0
 10
13.863431
 20
17.493529
 30
0.0
 10
15.395585
 20
17.493529
 30
0.0
 10
15.395585
 20
15.865600
 30
0.0
 10
13.863431
 20
15.865600
 30
0.0
 10
13.863431
 20
17.493529
 30
0.0
  0
LWPOLYLINE
  5
13f
100
AcDbEntity
  8
Layer_1
 62
7
100
AcDbPolyline
 90
5
 70
0
 10
15.707359
 20
17.493529
 30
0.0
 10
17.239513
 20
17.493529
 30
0.0
 10
17.239513
 20
15.865600
 30
0.0
 10
15.707359
 20
15.865600
 30
0.0
 10
15.707359
 20
17.493529
 30
0.0
  0
LWPOLYLINE
  5
140
100
AcDbEntity
  8
Layer_1
 62
7
100
AcDbPolyline
 90
5
 70
0
 10
17.551289
 20
17.493529
 30
0.0
 10
19.083443
 20
17.493529
 30
0.0
 10
19.083443
 20
15.865600
 30
0.0
 10
17.551289
 20
15.865600
 30
0.0
 10
17.551289
 20
17.493529
 30
0.0
  0
LWPOLYLINE
  5
141
100
AcDbEntity
  8
Layer_1
 62
7
100
AcDbPolyline
 90
5
 70
0
 10
19.395220
 20
17.493529
 30
0.0
 10
20.927374
 20
17.493529
 30
0.0
 10
20.927374
 20
15.865600
 30
0.0
 10
19.395220
 20
15.865600
 30
0.0
 10
19.395220
 20
17.493529
 30
0.0
  0
LWPOLYLINE
  5
142
100
AcDbEntity
  8
Layer_1
 62
7
100
AcDbPolyline
 90
5
 70
0
 10
21.239149
 20
17.493529
 30
0.0
 10
22.771303
 20
17.493529
 30
0.0
 10
22.771303
 20
15.865600
 30
0.0
 10
21.239149
 20
15.865600
 30
0.0
 10
21.239149
 20
17.493529
 30
0.0
  0
LWPOLYLINE
  5
143
100
AcDbEntity
  8
Layer_1
 62
7
100
AcDbPolyline
 90
5
 70
0
 10
23.083079
 20
17.493529
 30
0.0
 10
24.615232
 20
17.493529
 30
0.0
 10
24.615232
 20
15.865600
 30
0.0
 10
23.083079
 20
15.865600
 30
0.0
 10
23.083079
 20
17.493529
 30
0.0
  0
LWPOLYLINE
  5
144
100
AcDbEntity
  8
Layer_1
 62
7
100
AcDbPolyline
 90
5
 70
0
 10
24.927008
 20
17.493529
 30
0.0
 10
26.459162
 20
17.493529
 30
0.0
 10
26.459162
 20
15.865600
 30
0.0
 10
24.927008
 20
15.865600
 30
0.0
 10
24.927008
 20
17.493529
 30
0.0
  0
LWPOLYLINE
  5
145
100
AcDbEntity
  8
Layer_1
 62
7
100
AcDbPolyline
 90
5
 70
0
 10
39.121698
 20
23.068106
 30
0.0
 10
40.743925
 20
23.068106
 30
0.0
 10
40.743925
 20
21.357779
 30
0.0
 10
39.121698
 20
21.357779
 30
0.0
 10
39.121698
 20
23.068106
 30
0.0
  0
LWPOLYLINE
  5
146
100
AcDbEntity
  8
Layer_1
 62
7
100
AcDbPolyline
 90
5
 70
0
 10
40.914653
 20
23.077013
 30
0.0
 10
42.536880
 20
23.077013
 30
0.0
 10
42.536880
 20
21.366686
 30
0.0
 10
40.914653
 20
21.366686
 30
0.0
 10
40.914653
 20
23.077013
 30
0.0
  0
LWPOLYLINE
  5
147
100
AcDbEntity
  8
Layer_1
 62
7
100
AcDbPolyline
 90
5
 70
0
 10
42.707605
 20
23.077013
 30
0.0
 10
44.329832
 20
23.077013
 30
0.0
 10
44.329832
 20
21.366686
 30
0.0
 10
42.707605
 20
21.366686
 30
0.0
 10
42.707605
 20
23.077013
 30
0.0
  0
LWPOLYLINE
  5
148
100
AcDbEntity
  8
Layer_1
 62
7
100
AcDbPolyline
 90
5
 70
0
 10
39.121698
 20
21.238951
 30
0.0
 10
40.743925
 20
21.238951
 30
0.0
 10
40.743925
 20
19.528623
 30
0.0
 10
39.121698
 20
19.528623
 30
0.0
 10
39.121698
 20
21.238951
 30
0.0
  0
LWPOLYLINE
  5
149
100
AcDbEntity
  8
Layer_1
 62
7
100
AcDbPolyline
 90
5
 70
0
 10
40.917622
 20
21.244894
 30
0.0
 10
42.539849
 20
21.244894
 30
0.0
 10
42.539849
 20
19.534567
 30
0.0
 10
40.917622
 20
19.534567
 30
0.0
 10
40.917622
 20
21.244894
 30
0.0
  0
LWPOLYLINE
  5
14a
100
AcDbEntity
  8
Layer_1
 62
7
100
AcDbPolyline
 90
5
 70
0
 10
42.713546
 20
21.244894
 30
0.0
 10
44.335773
 20
21.244894
 30
0.0
 10
44.335773
 20
19.534567
 30
0.0
 10
42.713546
 20
19.534567
 30
0.0
 10
42.713546
 20
21.244894
 30
0.0
  0
LWPOLYLINE
  5
14b
100
AcDbEntity
  8
Layer_1
 62
7
100
AcDbPolyline
 90
5
 70
0
 10
39.121698
 20
19.409795
 30
0.0
 10
40.743925
 20
19.409795
 30
0.0
 10
40.743925
 20
17.699468
 30
0.0
 10
39.121698
 20
17.699468
 30
0.0
 10
39.121698
 20
19.409795
 30
0.0
  0
LWPOLYLINE
  5
14c
100
AcDbEntity
  8
Layer_1
 62
7
100
AcDbPolyline
 90
5
 70
0
 10
40.915460
 20
19.412758
 30
0.0
 10
42.537687
 20
19.412758
 30
0.0
 10
42.537687
 20
17.702431
 30
0.0
 10
40.915460
 20
17.702431
 30
0.0
 10
40.915460
 20
19.412758
 30
0.0
  0
LWPOLYLINE
  5
14d
100
AcDbEntity
  8
Layer_1
 62
7
100
AcDbPolyline
 90
5
 70
0
 10
42.709222
 20
19.412758
 30
0.0
 10
44.331449
 20
19.412758
 30
0.0
 10
44.331449
 20
17.702431
 30
0.0
 10
42.709222
 20
17.702431
 30
0.0
 10
42.709222
 20
19.412758
 30
0.0
  0
LWPOLYLINE
  5
14e
100
AcDbEntity
  8
Layer_1
 62
7
100
AcDbPolyline
 90
5
 70
0
 10
39.120084
 20
17.580623
 30
0.0
 10
40.742310
 20
17.580623
 30
0.0
 10
40.742310
 20
15.870295
 30
0.0
 10
39.120084
 20
15.870295
 30
0.0
 10
39.120084
 20
17.580623
 30
0.0
  0
LWPOLYLINE
  5
14f
100
AcDbEntity
  8
Layer_1
 62
7
100
AcDbPolyline
 90
5
 70
0
 10
40.913846
 20
17.580623
 30
0.0
 10
42.536072
 20
17.580623
 30
0.0
 10
42.536072
 20
15.870295
 30
0.0
 10
40.913846
 20
15.870295
 30
0.0
 10
40.913846
 20
17.580623
 30
0.0
  0
LWPOLYLINE
  5
150
100
AcDbEntity
  8
Layer_1
 62
7
100
AcDbPolyline
 90
5
 70
0
 10
42.707608
 20
17.580623
 30
0.0
 10
44.329835
 20
17.580623
 30
0.0
 10
44.329835
 20
15.870295
 30
0.0
 10
42.707608
 20
15.870295
 30
0.0
 10
42.707608
 20
17.580623
 30
0.0
  0
LWPOLYLINE
  5
151
100
AcDbEntity
  8
Layer_1
 62
7
100
AcDbPolyline
 90
5
 70
0
 10
44.566964
 20
23.068106
 30
0.0
 10
46.155746
 20
23.068106
 30
0.0
 10
46.155746
 20
21.380007
 30
0.0
 10
44.566964
 20
21.380007
 30
0.0
 10
44.566964
 20
23.068106
 30
0.0
  0
LWPOLYLINE
  5
152
100
AcDbEntity
  8
Layer_1
 62
7
100
AcDbPolyline
 90
5
 70
0
 10
34.515535
 20
17.720371
 30
0.0
 10
36.137762
 20
17.720371
 30
0.0
 10
36.137762
 20
16.010043
 30
0.0
 10
34.515535
 20
16.010043
 30
0.0
 10
34.515535
 20
17.720371
 30
0.0
  0
LWPOLYLINE
  5
153
100
AcDbEntity
  8
Layer_1
 62
7
100
AcDbPolyline
 90
5
 70
0
 10
34.515535
 20
15.735324
 30
0.0
 10
36.137762
 20
15.735324
 30
0.0
 10
36.137762
 20
14.024996
 30
0.0
 10
34.515535
 20
14.024996
 30
0.0
 10
34.515535
 20
15.735324
 30
0.0
  0
LWPOLYLINE
  5
154
100
AcDbEntity
  8
Layer_1
 62
7
100
AcDbPolyline
 90
5
 70
0
 10
36.329595
 20
15.735324
 30
0.0
 10
37.951821
 20
15.735324
 30
0.0
 10
37.951821
 20
14.024996
 30
0.0
 10
36.329595
 20
14.024996
 30
0.0
 10
36.329595
 20
15.735324
 30
0.0
  0
LWPOLYLINE
  5
155
100
AcDbEntity
  8
Layer_1
 62
7
100
AcDbPolyline
 90
5
 70
0
 10
32.701473
 20
15.735324
 30
0.0
 10
34.323699
 20
15.735324
 30
0.0
 10
34.323699
 20
14.024996
 30
0.0
 10
32.701473
 20
14.024996
 30
0.0
 10
32.701473
 20
15.735324
 30
0.0
  0
LWPOLYLINE
  5
156
100
AcDbEntity
  8
Layer_1
 62
7
100
AcDbPolyline
 90
5
 70
0
 10
4.139994
 20
23.057670
 30
0.0
 10
5.762221
 20
23.057670
 30
0.0
 10
5.762221
 20
21.427514
 30
0.0
 10
4.139994
 20
21.427514
 30
0.0
 10
4.139994
 20
23.057670
 30
0.0
  0
LWPOLYLINE
  5
157
100
AcDbEntity
  8
Layer_1
 62
7
100
AcDbPolyline
 90
5
 70
0
 10
4.131583
 20
21.203639
 30
0.0
 10
6.605149
 20
21.203639
 30
0.0
 10
6.605149
 20
19.578530
 30
0.0
 10
4.131583
 20
19.578530
 30
0.0
 10
4.131583
 20
21.203639
 30
0.0
  0
LWPOLYLINE
  5
158
100
AcDbEntity
  8
Layer_1
 62
7
100
AcDbPolyline
 90
5
 70
0
 10
4.131583
 20
19.345474
 30
0.0
 10
7.053861
 20
19.345474
 30
0.0
 10
7.053861
 20
17.720363
 30
0.0
 10
4.131583
 20
17.720363
 30
0.0
 10
4.131583
 20
19.345474
 30
0.0
  0
LWPOLYLINE
  5
159
100
AcDbEntity
  8
Layer_1
 62
7
100
AcDbPolyline
 90
5
 70
0
 10
4.131583
 20
17.493616
 30
0.0
 10
7.981284
 20
17.493616
 30
0.0
 10
7.981284
 20
15.868951
 30
0.0
 10
4.131583
 20
15.868951
 30
0.0
 10
4.131583
 20
17.493616
 30
0.0
  0
LWPOLYLINE
  5
15a
100
AcDbEntity
  8
Layer_1
 62
7
100
AcDbPolyline
 90
5
 70
0
 10
4.131583
 20
15.646252
 30
0.0
 10
6.626283
 20
15.646252
 30
0.0
 10
6.626283
 20
14.025003
 30
0.0
 10
4.131583
 20
14.025003
 30
0.0
 10
4.131583
 20
15.646252
 30
0.0
  0
LWPOLYLINE
  5
15b
100
AcDbEntity
  8
Layer_1
 62
7
100
AcDbPolyline
 90
5
 70
0
 10
8.878981
 20
15.646252
 30
0.0
 10
11.356364
 20
15.646252
 30
0.0
 10
11.356364
 20
14.025004
 30
0.0
 10
8.878981
 20
14.025004
 30
0.0
 10
8.878981
 20
15.646252
 30
0.0
  0
LWPOLYLINE
  5
15c
100
AcDbEntity
  8
Layer_1
 62
7
100
AcDbPolyline
 90
5
 70
0
 10
24.360862
 20
15.646252
 30
0.0
 10
26.865601
 20
15.646252
 30
0.0
 10
26.865601
 20
14.025004
 30
0.0
 10
24.360862
 20
14.025004
 30
0.0
 10
24.360862
 20
15.646252
 30
0.0
  0
LWPOLYLINE
  5
15d
100
AcDbEntity
  8
Layer_1
 62
7
100
AcDbPolyline
 90
5
 70
0
 10
28.957324
 20
15.646252
 30
0.0
 10
31.389668
 20
15.646252
 30
0.0
 10
31.389668
 20
14.025004
 30
0.0
 10
28.957324
 20
14.025004
 30
0.0
 10
28.957324
 20
15.646252
 30
0.0
  0
LWPOLYLINE
  5
15e
100
AcDbEntity
  8
Layer_1
 62
7
100
AcDbPolyline
 90
5
 70
0
 10
29.058102
 20
21.203639
 30
0.0
 10
31.399073
 20
21.203639
 30
0.0
 10
31.399073
 20
19.574645
 30
0.0
 10
29.058102
 20
19.574645
 30
0.0
 10
29.058102
 20
21.203639
 30
0.0
  0
LWPOLYLINE
  5
15f
100
AcDbEntity
  8
Layer_1
 62
7
100
AcDbPolyline
 90
5
 70
0
 10
27.624197
 20
19.345474
 30
0.0
 10
31.399071
 20
19.345474
 30
0.0
 10
31.399071
 20
17.721795
 30
0.0
 10
27.624197
 20
17.721795
 30
0.0
 10
27.624197
 20
19.345474
 30
0.0
  0
LWPOLYLINE
  5
160
100
AcDbEntity
  8
Layer_1
 62
7
100
AcDbPolyline
 90
5
 70
0
 10
26.758604
 20
17.478114
 30
0.0
 10
31.399071
 20
17.478114
 30
0.0
 10
31.399071
 20
15.865598
 30
0.0
 10
26.758604
 20
15.865598
 30
0.0
 10
26.758604
 20
17.478114
 30
0.0
  0
LWPOLYLINE
  5
161
100
AcDbEntity
  8
Layer_1
 62
7
100
AcDbPolyline
 90
5
 70
0
 10
28.173056
 20
23.066574
 30
0.0
 10
31.399070
 20
23.066574
 30
0.0
 10
31.399070
 20
21.430407
 30
0.0
 10
28.173056
 20
21.430407
 30
0.0
 10
28.173056
 20
23.066574
 30
0.0
  0
LWPOLYLINE
  5
162
100
AcDbEntity
  8
Layer_1
 62
7
100
AcDbPolyline
 90
5
 70
0
 10
39.120084
 20
15.646252
 30
0.0
 10
42.524506
 20
15.646252
 30
0.0
 10
42.524506
 20
14.025004
 30
0.0
 10
39.120084
 20
14.025004
 30
0.0
 10
39.120084
 20
15.646252
 30
0.0
  0
LWPOLYLINE
  5
163
100
AcDbEntity
  8
Layer_1
 62
7
100
AcDbPolyline
 90
5
 70
0
 10
44.584775
 20
21.258260
 30
0.0
 10
46.153559
 20
21.258260
 30
0.0
 10
46.153559
 20
17.712894
 30
0.0
 10
44.584775
 20
17.712894
 30
0.0
 10
44.584775
 20
21.258260
 30
0.0
  0
LWPOLYLINE
  5
164
100
AcDbEntity
  8
Layer_1
 62
7
100
AcDbPolyline
 90
5
 70
0
 10
11.658238
 20
15.646252
 30
0.0
 10
24.076803
 20
15.646252
 30
0.0
 10
24.076803
 20
14.025004
 30
0.0
 10
11.658238
 20
14.025004
 30
0.0
 10
11.658238
 20
15.646252
 30
0.0
  0
LWPOLYLINE
  5
165
100
AcDbEntity
  8
Layer_1
 62
7
100
AcDbPolyline
 90
5
 70
0
 10
44.606588
 20
17.588183
 30
0.0
 10
46.155749
 20
17.588183
 30
0.0
 10
46.155749
 20
14.025002
 30
0.0
 10
44.606588
 20
14.025002
 30
0.0
 10
44.606588
 20
17.588183
 30
0.0
  0
LWPOLYLINE
  5
166
100
AcDbEntity
  8
Layer_1
 62
7
100
AcDbPolyline
 90
5
 70
0
 10
42.703996
 20
15.646252
 30
0.0
 10
44.321357
 20
15.646252
 30
0.0
 10
44.321357
 20
14.025004
 30
0.0
 10
42.703996
 20
14.025004
 30
0.0
 10
42.703996
 20
15.646252
 30
0.0
  0
ENDSEC
  0
SECTION
  2
OBJECTS
  0
DICTIONARY
  5
C
330
0
100
AcDbDictionary
  3
ACAD_GROUP
350
D
  3
ACAD_MLINESTYLE
350
17
  0
DICTIONARY
  5
D
330
C
100
AcDbDictionary
  0
DICTIONARY
  5
1A
330
C
100
AcDbDictionary
  0
DICTIONARY
  5
17
330
C
100
AcDbDictionary
  3
STANDARD
350
18
  0
DICTIONARY
  5
19
330
C
100
AcDbDictionary
  0
ENDSEC
  0
EOF
