  0
SECTION
  2
HEADER
  9
$ACADVER
  1
AC1014
  9
$HANDSEED
  5
FFFF
  9
$MEASUREMENT
 70
     1
  0
ENDSEC
  0
SECTION
  2
TABLES
  0
TABLE
  2
VPORT
  5
8
330
0
100
AcDbSymbolTable
 70
     4
  0
VPORT
  5
2E
330
8
100
AcDbSymbolTableRecord
100
AcDbViewportTableRecord
  2
*ACTIVE
 70
     0
 10
0.0
 20
0.0
 11
1.0
 21
1.0
 12
210.0
 22
148.5
 13
0.0
 23
0.0
 14
10.0
 24
10.0
 15
10.0
 25
10.0
 16
0.0
 26
0.0
 36
1.0
 17
0.0
 27
0.0
 37
0.0
 40
341.0
 41
1.24
 42
50.0
 43
0.0
 44
0.0
 50
0.0
 51
0.0
 71
     0
 72
   100
 73
     1
 74
     3
 75
     0
 76
     0
 77
     0
 78
     0
  0
ENDTAB
  0
TABLE
  2
LTYPE
  5
5
330
0
100
AcDbSymbolTable
 70
     1
  0
LTYPE
  5
14
330
5
100
AcDbSymbolTableRecord
100
AcDbLinetypeTableRecord
  2
BYBLOCK
 70
     0
  3

 72
    65
 73
     0
 40
0.0
  0
LTYPE
  5
15
330
5
100
AcDbSymbolTableRecord
100
AcDbLinetypeTableRecord
  2
BYLAYER
 70
     0
  3

 72
    65
 73
     0
 40
0.0
  0
LTYPE
  5
16
330
5
100
AcDbSymbolTableRecord
100
AcDbLinetypeTableRecord
  2
CONTINUOUS
 70
     0
  3
Solid line
 72
    65
 73
     0
 40
0.0
  0
ENDTAB
  0
TABLE
  2
LAYER
  5
2
100
AcDbSymbolTable
 70
1
  0
LAYER
  5
50
100
AcDbSymbolTableRecord
100
AcDbLayerTableRecord
  2
0
 70
0
  6
CONTINUOUS
  0
ENDTAB
  0
TABLE
  2
STYLE
  5
3
330
0
100
AcDbSymbolTable
 70
     1
  0
STYLE
  5
11
330
3
100
AcDbSymbolTableRecord
100
AcDbTextStyleTableRecord
  2
STANDARD
 70
     0
 40
0.0
 41
1.0
 50
0.0
 71
     0
 42
2.5
  3
txt
  4

  0
ENDTAB
  0
TABLE
  2
VIEW
  5
6
330
0
100
AcDbSymbolTable
 70
     0
  0
ENDTAB
  0
TABLE
  2
UCS
  5
7
330
0
100
AcDbSymbolTable
 70
     0
  0
ENDTAB
  0
TABLE
  2
APPID
  5
9
330
0
100
AcDbSymbolTable
 70
     2
  0
APPID
  5
12
330
9
100
AcDbSymbolTableRecord
100
AcDbRegAppTableRecord
  2
ACAD
 70
     0
  0
ENDTAB
  0
TABLE
  2
DIMSTYLE
  5
A
330
0
100
AcDbSymbolTable
 70
     1
  0
DIMSTYLE
105
27
330
A
100
AcDbSymbolTableRecord
100
AcDbDimStyleTableRecord
  2
ISO-25
 70
     0
  3

  4

  5

  6

  7

 40
1.0
 41
2.5
 42
0.625
 43
3.75
 44
1.25
 45
0.0
 46
0.0
 47
0.0
 48
0.0
140
2.5
141
2.5
142
0.0
143
0.03937007874016
144
1.0
145
0.0
146
1.0
147
0.625
 71
     0
 72
     0
 73
     0
 74
     0
 75
     0
 76
     0
 77
     1
 78
     8
170
     0
171
     3
172
     1
173
     0
174
     0
175
     0
176
     0
177
     0
178
     0
270
     2
271
     2
272
     2
273
     2
274
     3
340
11
275
     0
280
     0
281
     0
282
     0
283
     0
284
     8
285
     0
286
     0
287
     3
288
     0
  0
ENDTAB
  0
TABLE
  2
BLOCK_RECORD
  5
1
330
0
100
AcDbSymbolTable
 70
     1
  0
BLOCK_RECORD
  5
1F
330
1
100
AcDbSymbolTableRecord
100
AcDbBlockTableRecord
  2
*MODEL_SPACE
  0
BLOCK_RECORD
  5
1B
330
1
100
AcDbSymbolTableRecord
100
AcDbBlockTableRecord
  2
*PAPER_SPACE
  0
ENDTAB
  0
ENDSEC
  0
SECTION
  2
BLOCKS
  0
BLOCK
  5
20
330
1F
100
AcDbEntity
  8
0
100
AcDbBlockBegin
  2
*MODEL_SPACE
 70
     0
 10
0.0
 20
0.0
 30
0.0
  3
*MODEL_SPACE
  1

  0
ENDBLK
  5
21
330
1F
100
AcDbEntity
  8
0
100
AcDbBlockEnd
  0
BLOCK
  5
1C
330
1B
100
AcDbEntity
 67
     1
  8
0
100
AcDbBlockBegin
  2
*PAPER_SPACE
  1

  0
ENDBLK
  5
1D
330
1B
100
AcDbEntity
 67
     1
  8
0
100
AcDbBlockEnd
  0
ENDSEC
  0
SECTION
  2
ENTITIES
  0
LWPOLYLINE
  5
100
100
AcDbEntity
  8
0
 62
7
100
AcDbPolyline
 90
33
 70
0
 10
24.999990
 20
49.999996
 30
0.0
 10
19.968214
 20
49.491144
 30
0.0
 10
15.278547
 20
48.032147
 30
0.0
 10
11.032335
 20
45.724341
 30
0.0
 10
7.330924
 20
42.669065
 30
0.0
 10
4.275660
 20
38.967660
 30
0.0
 10
1.967851
 20
34.721451
 30
0.0
 10
0.508862
 20
30.031787
 30
0.0
 10
0.000000
 20
25.000001
 30
0.0
 10
0.508862
 20
19.968213
 30
0.0
 10
1.967851
 20
15.278545
 30
0.0
 10
4.275660
 20
11.032339
 30
0.0
 10
7.330924
 20
7.330927
 30
0.0
 10
11.032335
 20
4.275648
 30
0.0
 10
15.278547
 20
1.967846
 30
0.0
 10
19.968214
 20
0.508849
 30
0.0
 10
24.999990
 20
-0.000003
 30
0.0
 10
30.031785
 20
0.508849
 30
0.0
 10
34.721452
 20
1.967846
 30
0.0
 10
38.967664
 20
4.275648
 30
0.0
 10
42.669075
 20
7.330927
 30
0.0
 10
45.724339
 20
11.032335
 30
0.0
 10
48.032148
 20
15.278545
 30
0.0
 10
49.491138
 20
19.968213
 30
0.0
 10
49.999999
 20
25.000001
 30
0.0
 10
49.491138
 20
30.031787
 30
0.0
 10
48.032148
 20
34.721451
 30
0.0
 10
45.724339
 20
38.967656
 30
0.0
 10
42.669075
 20
42.669065
 30
0.0
 10
38.967664
 20
45.724345
 30
0.0
 10
34.721452
 20
48.032147
 30
0.0
 10
30.031785
 20
49.491146
 30
0.0
 10
24.999990
 20
49.999996
 30
0.0
  0
LWPOLYLINE
  5
101
100
AcDbEntity
  8
0
 62
7
100
AcDbPolyline
 90
33
 70
0
 10
24.999990
 20
46.110428
 30
0.0
 10
29.260936
 20
45.682461
 30
0.0
 10
33.226600
 20
44.454625
 30
0.0
 10
36.812902
 20
42.511022
 30
0.0
 10
39.935743
 20
39.935751
 30
0.0
 10
42.511003
 20
36.812914
 30
0.0
 10
44.454621
 20
33.226610
 30
0.0
 10
45.682461
 20
29.260938
 30
0.0
 10
46.110421
 20
25.000001
 30
0.0
 10
45.682461
 20
20.739061
 30
0.0
 10
44.454621
 20
16.773387
 30
0.0
 10
42.511022
 20
13.187080
 30
0.0
 10
39.935743
 20
10.064241
 30
0.0
 10
36.812902
 20
7.488969
 30
0.0
 10
33.226600
 20
5.545364
 30
0.0
 10
29.260936
 20
4.317526
 30
0.0
 10
24.999990
 20
3.889557
 30
0.0
 10
20.739045
 20
4.317523
 30
0.0
 10
16.773380
 20
5.545358
 30
0.0
 10
13.187078
 20
7.488962
 30
0.0
 10
10.064238
 20
10.064236
 30
0.0
 10
7.488977
 20
13.187076
 30
0.0
 10
5.545359
 20
16.773385
 30
0.0
 10
4.317520
 20
20.739059
 30
0.0
 10
3.889560
 20
25.000001
 30
0.0
 10
4.317520
 20
29.260938
 30
0.0
 10
5.545359
 20
33.226610
 30
0.0
 10
7.488977
 20
36.812914
 30
0.0
 10
10.064238
 20
39.935751
 30
0.0
 10
13.187078
 20
42.511022
 30
0.0
 10
16.773380
 20
44.454625
 30
0.0
 10
20.739045
 20
45.682461
 30
0.0
 10
24.999990
 20
46.110428
 30
0.0
  0
LWPOLYLINE
  5
102
100
AcDbEntity
  8
0
 62
7
100
AcDbPolyline
 90
13
 70
0
 10
23.449039
 20
31.770082
 30
0.0
 10
22.489165
 20
33.206202
 30
0.0
 10
21.801388
 20
34.790749
 30
0.0
 10
23.616363
 20
34.223504
 30
0.0
 10
25.508585
 20
34.035584
 30
0.0
 10
27.365801
 20
34.230374
 30
0.0
 10
29.147121
 20
34.790754
 30
0.0
 10
28.693178
 20
33.046207
 30
0.0
 10
27.774078
 20
31.495481
 30
0.0
 10
26.802250
 20
30.522936
 30
0.0
 10
25.645890
 20
29.779188
 30
0.0
 10
24.470303
 20
30.689495
 30
0.0
 10
23.449039
 20
31.770082
 30
0.0
  0
LWPOLYLINE
  5
103
100
AcDbEntity
  8
0
 62
7
100
AcDbPolyline
 90
9
 70
0
 10
28.947989
 20
13.445878
 30
0.0
 10
26.899389
 20
15.238239
 30
0.0
 10
24.850788
 20
17.030601
 30
0.0
 10
22.917487
 20
15.250791
 30
0.0
 10
20.984167
 20
13.470982
 30
0.0
 10
22.733203
 20
12.953509
 30
0.0
 10
24.543267
 20
12.728823
 30
0.0
 10
26.781920
 20
12.864443
 30
0.0
 10
28.947989
 20
13.445878
 30
0.0
  0
LWPOLYLINE
  5
104
100
AcDbEntity
  8
0
 62
7
100
AcDbPolyline
 90
63
 70
0
 10
29.975630
 20
16.315858
 30
0.0
 10
30.635159
 20
14.246538
 30
0.0
 10
30.820300
 20
12.082564
 30
0.0
 10
27.897886
 20
11.113547
 30
0.0
 10
24.834399
 20
10.805932
 30
0.0
 10
21.808545
 20
11.172858
 30
0.0
 10
18.933568
 20
12.185221
 30
0.0
 10
18.938898
 20
14.559465
 30
0.0
 10
19.385418
 20
16.891351
 30
0.0
 10
19.919083
 20
18.400634
 30
0.0
 10
20.582857
 20
19.859382
 30
0.0
 10
21.245032
 20
21.133680
 30
0.0
 10
21.961516
 20
22.378246
 30
0.0
 10
20.120575
 20
21.501101
 30
0.0
 10
18.546839
 20
20.204265
 30
0.0
 10
17.633660
 20
19.063818
 30
0.0
 10
16.893058
 20
17.801894
 30
0.0
 10
15.794261
 20
14.620387
 30
0.0
 10
15.632725
 20
11.266162
 30
0.0
 10
15.751050
 20
10.441675
 30
0.0
 10
15.932270
 20
9.628692
 30
0.0
 10
20.441327
 20
7.875995
 30
0.0
 10
25.245303
 20
7.305669
 30
0.0
 10
29.862901
 20
7.920146
 30
0.0
 10
34.196582
 20
9.628692
 30
0.0
 10
34.312661
 20
13.732062
 30
0.0
 10
33.219138
 20
17.688748
 30
0.0
 10
31.508306
 20
20.594258
 30
0.0
 10
29.310942
 20
23.170199
 30
0.0
 10
26.018094
 20
26.347186
 30
0.0
 10
23.300828
 20
29.145939
 30
0.0
 10
20.024179
 20
33.684532
 30
0.0
 10
19.364650
 20
35.753853
 30
0.0
 10
19.179509
 20
37.917827
 30
0.0
 10
22.101923
 20
38.886842
 30
0.0
 10
25.165391
 20
39.194458
 30
0.0
 10
28.191264
 20
38.827534
 30
0.0
 10
31.066241
 20
37.815167
 30
0.0
 10
31.060911
 20
35.440924
 30
0.0
 10
30.614391
 20
33.109038
 30
0.0
 10
30.080726
 20
31.599756
 30
0.0
 10
29.416952
 20
30.141008
 30
0.0
 10
28.754777
 20
28.866711
 30
0.0
 10
28.038274
 20
27.622145
 30
0.0
 10
29.879233
 20
28.499284
 30
0.0
 10
31.452970
 20
29.796126
 30
0.0
 10
32.366149
 20
30.936572
 30
0.0
 10
33.106732
 20
32.198497
 30
0.0
 10
34.205509
 20
35.380007
 30
0.0
 10
34.367065
 20
38.734227
 30
0.0
 10
34.248739
 20
39.558714
 30
0.0
 10
34.067539
 20
40.371699
 30
0.0
 10
29.558482
 20
42.124397
 30
0.0
 10
24.754487
 20
42.694722
 30
0.0
 10
20.136889
 20
42.080240
 30
0.0
 10
15.803227
 20
40.371699
 30
0.0
 10
15.687148
 20
36.268328
 30
0.0
 10
16.780652
 20
32.311641
 30
0.0
 10
20.688867
 20
26.830192
 30
0.0
 10
23.981696
 20
23.653202
 30
0.0
 10
26.698962
 20
20.854451
 30
0.0
 10
28.526063
 20
18.709526
 30
0.0
 10
29.975630
 20
16.315858
 30
0.0
  0
ENDSEC
  0
SECTION
  2
OBJECTS
  0
DICTIONARY
  5
C
330
0
100
AcDbDictionary
  3
ACAD_GROUP
350
D
  3
ACAD_MLINESTYLE
350
17
  0
DICTIONARY
  5
D
330
C
100
AcDbDictionary
  0
DICTIONARY
  5
1A
330
C
100
AcDbDictionary
  0
DICTIONARY
  5
17
330
C
100
AcDbDictionary
  3
STANDARD
350
18
  0
DICTIONARY
  5
19
330
C
100
AcDbDictionary
  0
ENDSEC
  0
EOF
